<?xml version="1.0" standalone="no"?>
<!DOCTYPE svg PUBLIC "-//W3C//DTD SVG 1.1//EN" "http://www.w3.org/Graphics/SVG/1.1/DTD/svg11.dtd" >
<svg xmlns="http://www.w3.org/2000/svg" xmlns:xlink="http://www.w3.org/1999/xlink" version="1.1">
<metadata>
Created by FontForge 20170924 at Thu Jun 27 16:53:45 2013
 By www-data
Copyright c The Font Bureau, Inc., 2008. All rights reserved.
</metadata>
<defs>
<font id="BentonSans-Medium" horiz-adv-x="650" >
  <font-face 
    font-family="Benton Sans"
    font-weight="500"
    font-stretch="normal"
    units-per-em="1000"
    panose-1="2 0 6 4 2 0 0 2 0 4"
    ascent="787"
    descent="-213"
    x-height="531"
    cap-height="740"
    bbox="-92 -271 1432 979"
    underline-thickness="0"
    underline-position="0"
    unicode-range="U+0020-FB04"
  />
<missing-glyph horiz-adv-x="500" 
d="M0 0v700h500v-700h-500zM50 650v-600h400v600h-400z" />
    <glyph glyph-name="f_f" unicode="ff" horiz-adv-x="689" 
d="M238 0h-123v433h-92v98h92v54c0 89 41 158 159 158c26 0 60 -4 69 -5v-94c-9 2 -26 3 -37 3c-44 0 -68 -23 -68 -69v-47h187v49c0 89 36 163 171 163c24 0 65 -4 74 -5v-95c-9 2 -29 4 -42 4c-44 0 -80 -12 -80 -69v-47h116v-98h-116v-433h-123v433h-187v-433z" />
    <glyph glyph-name="f_f_i" unicode="ffi" horiz-adv-x="929" 
d="M858 618h-125v112h125v-112zM857 0h-123v531h123v-531zM238 0h-123v433h-92v98h92v54c0 89 41 158 159 158c26 0 60 -4 69 -5v-95c-9 2 -26 3 -37 3c-44 0 -68 -23 -68 -69v-46h187v48c0 89 41 164 159 164c23 0 59 -4 68 -5v-95c-8 2 -25 3 -37 3c-44 0 -67 -23 -67 -69
v-46h103v-98h-103v-433h-123v433h-187v-433z" />
    <glyph glyph-name="f_f_l" unicode="ffl" horiz-adv-x="929" 
d="M857 0h-123v740h123v-740zM238 0h-123v433h-92v98h92v54c0 89 41 158 159 158c26 0 60 -4 69 -5v-95c-9 2 -26 3 -37 3c-44 0 -68 -23 -68 -69v-46h187v48c0 89 41 164 159 164c23 0 59 -4 68 -5v-95c-8 2 -25 3 -37 3c-44 0 -67 -23 -67 -69v-46h103v-98h-103v-433h-123
v433h-187v-433z" />
    <glyph glyph-name="f_i" unicode="fi" horiz-adv-x="627" 
d="M549 618h-125v112h125v-112zM238 0h-123v433h-92v98h92v54c0 89 41 158 159 158c24 0 60 -4 69 -5v-95c-9 2 -26 3 -37 3c-44 0 -68 -23 -68 -69v-46h104v-98h-104v-433zM548 0h-123v531h123v-531z" />
    <glyph glyph-name="f_j" unicode="fj" horiz-adv-x="624" 
d="M549 618h-125v112h125v-112zM238 0h-123v433h-92v98h92v54c0 89 41 158 159 158c24 0 60 -4 69 -5v-95c-9 2 -26 3 -37 3c-44 0 -68 -23 -68 -69v-46h104v-98h-104v-433zM400 -202c-22 0 -67 4 -75 6v86c9 -2 27 -4 41 -4c38 0 59 19 59 67v578h123v-597
c0 -73 -25 -136 -148 -136z" />
    <glyph glyph-name="f_l" unicode="fl" horiz-adv-x="624" 
d="M548 0h-123v740h123v-740zM238 0h-123v433h-92v98h92v54c0 89 41 158 159 158c24 0 60 -4 69 -5v-95c-9 2 -26 3 -37 3c-44 0 -68 -23 -68 -69v-46h104v-98h-104v-433z" />
    <glyph glyph-name=".notdef" horiz-adv-x="500" 
d="M0 0v700h500v-700h-500zM50 650v-600h400v600h-400z" />
    <glyph glyph-name="A" unicode="A" horiz-adv-x="697" 
d="M344 586l-103 -300h206l-101 300h-2zM142 0h-117l262 743h123l262 -743h-128l-60 176h-281z" />
    <glyph glyph-name="A.sc" horiz-adv-x="607" 
d="M216 223h165l-46 128l-34 99h-3l-35 -97zM23 0l223 594h115l223 -594h-123l-46 130h-232l-48 -130h-112z" />
    <glyph glyph-name="AE" unicode="&#xc6;" horiz-adv-x="1042" 
d="M504 636l-179 -318h180v318h-1zM146 0h-126l421 740h541v-116h-353v-184h259v-111h-259v-215h373v-114h-497v208h-242z" />
    <glyph glyph-name="AE.sc" horiz-adv-x="910" 
d="M443 506l-150 -251h151v251h-1zM238 164l-97 -164h-124l359 592h481v-98h-295v-142h216v-92h-216v-164h311v-96h-429v164h-206z" />
    <glyph glyph-name="Aacute" unicode="&#xc1;" horiz-adv-x="697" 
d="M301 784l94 166h132l-145 -166h-81zM344 586l-103 -300h206l-101 300h-2zM142 0h-117l262 743h123l262 -743h-128l-60 176h-281z" />
    <glyph glyph-name="Aacute.sc" horiz-adv-x="607" 
d="M258 642l94 166h132l-145 -166h-81zM216 223h165l-46 128l-34 99h-3l-35 -97zM23 0l223 594h115l223 -594h-123l-46 130h-232l-48 -130h-112z" />
    <glyph glyph-name="Abreve" unicode="&#x102;" horiz-adv-x="697" 
d="M348 776c-103 0 -161 74 -166 177h69c9 -75 50 -95 97 -95s89 20 98 95h68c-5 -103 -63 -177 -166 -177zM344 586l-103 -300h206l-101 300h-2zM142 0h-117l262 743h123l262 -743h-128l-60 176h-281z" />
    <glyph glyph-name="Abreve.sc" horiz-adv-x="607" 
d="M303 634c-103 0 -161 74 -166 177h69c9 -75 50 -95 97 -95s89 20 98 95h68c-5 -103 -63 -177 -166 -177zM216 223h165l-46 128l-34 99h-3l-35 -97zM23 0l223 594h115l223 -594h-123l-46 130h-232l-48 -130h-112z" />
    <glyph glyph-name="Acircumflex" unicode="&#xc2;" horiz-adv-x="697" 
d="M176 784l129 166h85l129 -166h-72l-100 84l-100 -84h-71zM344 586l-103 -300h206l-101 300h-2zM142 0h-117l262 743h123l262 -743h-128l-60 176h-281z" />
    <glyph glyph-name="Acircumflex.sc" horiz-adv-x="607" 
d="M131 642l129 166h85l129 -166h-72l-100 84l-100 -84h-71zM216 223h165l-46 128l-34 99h-3l-35 -97zM23 0l223 594h115l223 -594h-123l-46 130h-232l-48 -130h-112z" />
    <glyph glyph-name="Adieresis" unicode="&#xc4;" horiz-adv-x="697" 
d="M390 781v121h112v-121h-112zM192 781v121h112v-121h-112zM344 586l-103 -300h206l-101 300h-2zM142 0h-117l262 743h123l262 -743h-128l-60 176h-281z" />
    <glyph glyph-name="Adieresis.sc" horiz-adv-x="607" 
d="M345 639v121h112v-121h-112zM147 639v121h112v-121h-112zM216 223h165l-46 128l-34 99h-3l-35 -97zM23 0l223 594h115l223 -594h-123l-46 130h-232l-48 -130h-112z" />
    <glyph glyph-name="Agrave" unicode="&#xc0;" horiz-adv-x="697" 
d="M315 784l-146 166h133l94 -166h-81zM344 586l-103 -300h206l-101 300h-2zM142 0h-117l262 743h123l262 -743h-128l-60 176h-281z" />
    <glyph glyph-name="Agrave.sc" horiz-adv-x="607" 
d="M268 642l-146 166h133l94 -166h-81zM216 223h165l-46 128l-34 99h-3l-35 -97zM23 0l223 594h115l223 -594h-123l-46 130h-232l-48 -130h-112z" />
    <glyph glyph-name="Amacron" unicode="&#x100;" horiz-adv-x="697" 
d="M192 781v91h312v-91h-312zM344 586l-103 -300h206l-101 300h-2zM142 0h-117l262 743h123l262 -743h-128l-60 176h-281z" />
    <glyph glyph-name="Amacron.sc" horiz-adv-x="607" 
d="M147 639v91h312v-91h-312zM216 223h165l-46 128l-34 99h-3l-35 -97zM23 0l223 594h115l223 -594h-123l-46 130h-232l-48 -130h-112z" />
    <glyph glyph-name="Aogonek" unicode="&#x104;" horiz-adv-x="697" 
d="M344 586l-103 -300h206l-101 300h-2zM710 -148c-41 -24 -88 -39 -144 -39c-67 0 -104 29 -104 77c0 40 36 81 81 112l-59 174h-281l-61 -176h-117l262 743h123l262 -743h-61c-42 -31 -62 -61 -62 -91c0 -23 11 -42 48 -42s63 12 88 24z" />
    <glyph glyph-name="Aogonek.sc" horiz-adv-x="607" 
d="M216 223h165l-46 128l-34 99h-3l-35 -97zM622 -148c-41 -24 -88 -39 -144 -39c-67 0 -104 29 -104 77c0 42 40 86 86 114l-45 126h-232l-48 -130h-112l223 594h115l223 -594h-61c-42 -31 -62 -61 -62 -91c0 -23 11 -42 48 -42s63 12 88 24z" />
    <glyph glyph-name="Aring" unicode="&#xc5;" horiz-adv-x="697" 
d="M348 745c29 0 49 21 49 52c0 29 -20 50 -49 50c-28 0 -49 -21 -49 -50c0 -31 21 -52 49 -52zM240 287h208l-102 299h-2zM25 0l256 725c-21 15 -35 41 -35 72c0 57 44 101 102 101c59 0 102 -44 102 -101c0 -31 -13 -56 -34 -72l256 -725h-128l-60 176h-281l-61 -176h-117
z" />
    <glyph glyph-name="Aring.sc" horiz-adv-x="607" 
d="M303 596c29 0 49 21 49 51c0 29 -20 51 -49 51c-28 0 -49 -22 -49 -51c0 -30 21 -51 49 -51zM216 223h165l-46 128l-34 99h-3l-35 -97zM183 130l-48 -130h-112l213 569c-21 18 -35 46 -35 78c0 58 44 101 102 101c59 0 102 -43 102 -101c0 -32 -13 -60 -35 -78l214 -569
h-123l-46 130h-232z" />
    <glyph glyph-name="Atilde" unicode="&#xc3;" horiz-adv-x="697" 
d="M424 777c-66 0 -103 56 -145 56c-28 0 -41 -15 -41 -54h-69c0 98 39 139 104 139c66 0 103 -56 146 -56c27 0 41 15 41 54h69c0 -97 -40 -139 -105 -139zM344 586l-103 -300h206l-101 300h-2zM142 0h-117l262 743h123l262 -743h-128l-60 176h-281z" />
    <glyph glyph-name="Atilde.sc" horiz-adv-x="607" 
d="M378 635c-66 0 -103 56 -145 56c-28 0 -41 -15 -41 -54h-69c0 98 39 139 104 139c66 0 103 -56 146 -56c27 0 41 15 41 54h69c0 -97 -40 -139 -105 -139zM216 223h165l-46 128l-34 99h-3l-35 -97zM23 0l223 594h115l223 -594h-123l-46 130h-232l-48 -130h-112z" />
    <glyph glyph-name="B" unicode="B" horiz-adv-x="702" 
d="M382 0h-298v740h280c148 0 258 -48 258 -184c0 -103 -56 -155 -131 -170v-2c91 -17 153 -68 153 -181c0 -136 -111 -203 -262 -203zM207 630v-199h145c98 0 150 30 150 101s-45 98 -148 98h-147zM207 325v-217h162c106 0 152 34 152 108c0 79 -60 109 -165 109h-149z" />
    <glyph glyph-name="B.sc" horiz-adv-x="602" 
d="M72 0v592h247c118 0 219 -26 219 -147c0 -81 -54 -124 -114 -136v-1c77 -13 131 -53 131 -145c0 -118 -101 -163 -222 -163h-261zM188 503v-155h119c77 0 115 24 115 78c0 55 -34 77 -112 77h-122zM188 257v-169h131c82 0 118 27 118 84c0 61 -45 85 -127 85h-122z" />
    <glyph glyph-name="C" unicode="C" horiz-adv-x="717" 
d="M373 -14c-190 0 -325 131 -325 386c0 248 139 382 325 382c172 0 254 -95 287 -230l-119 -34c-28 98 -71 148 -169 148c-125 0 -198 -97 -198 -265c0 -176 75 -273 200 -273c96 0 150 48 178 159l119 -27c-36 -147 -127 -246 -298 -246z" />
    <glyph glyph-name="C.sc" horiz-adv-x="616" 
d="M322 -11c-160 0 -280 104 -280 308c0 201 123 306 280 306c150 0 221 -78 248 -185l-112 -31c-21 73 -57 119 -137 119c-101 0 -158 -80 -158 -208c0 -133 58 -214 160 -214c78 0 122 44 144 129l112 -25c-31 -118 -107 -199 -257 -199z" />
    <glyph glyph-name="Cacute" unicode="&#x106;" horiz-adv-x="717" 
d="M295 784l94 166h132l-145 -166h-81zM373 -14c-190 0 -325 131 -325 386c0 248 139 382 325 382c172 0 254 -95 287 -230l-119 -34c-28 98 -71 148 -169 148c-125 0 -198 -97 -198 -265c0 -176 75 -273 200 -273c96 0 150 48 178 159l119 -27
c-36 -147 -127 -246 -298 -246z" />
    <glyph glyph-name="Cacute.sc" horiz-adv-x="616" 
d="M244 642l94 166h132l-145 -166h-81zM322 -11c-160 0 -280 104 -280 308c0 201 123 306 280 306c150 0 221 -78 248 -185l-112 -31c-21 73 -57 119 -137 119c-101 0 -158 -80 -158 -208c0 -133 58 -214 160 -214c78 0 122 44 144 129l112 -25
c-31 -118 -107 -199 -257 -199z" />
    <glyph glyph-name="Ccaron" unicode="&#x10c;" horiz-adv-x="717" 
d="M315 787l-129 166h72l100 -84l100 84h71l-129 -166h-85zM373 -14c-190 0 -325 131 -325 386c0 248 139 382 325 382c172 0 254 -95 287 -230l-119 -34c-28 98 -71 148 -169 148c-125 0 -198 -97 -198 -265c0 -176 75 -273 200 -273c96 0 150 48 178 159l119 -27
c-36 -147 -127 -246 -298 -246z" />
    <glyph glyph-name="Ccaron.sc" horiz-adv-x="616" 
d="M265 645l-129 166h72l100 -84l100 84h71l-129 -166h-85zM322 -11c-160 0 -280 104 -280 308c0 201 123 306 280 306c150 0 221 -78 248 -185l-112 -31c-21 73 -57 119 -137 119c-101 0 -158 -80 -158 -208c0 -133 58 -214 160 -214c78 0 122 44 144 129l112 -25
c-31 -118 -107 -199 -257 -199z" />
    <glyph glyph-name="Ccedilla" unicode="&#xc7;" horiz-adv-x="717" 
d="M376 -199c-54 0 -103 14 -138 37l24 40c30 -20 69 -30 103 -30c40 0 60 14 60 39c0 21 -14 31 -36 31c-19 0 -33 -7 -47 -18l-35 17l22 71c-167 19 -280 154 -280 384c0 243 138 382 324 382c172 0 254 -95 287 -230l-119 -33c-27 98 -71 158 -169 158
c-125 0 -198 -108 -198 -276c0 -176 75 -284 200 -284c97 0 150 59 179 170l118 -27c-35 -144 -123 -241 -285 -246l-10 -35c14 9 33 15 60 15c38 0 72 -24 72 -69c0 -63 -59 -96 -132 -96z" />
    <glyph glyph-name="Ccedilla.sc" horiz-adv-x="616" 
d="M315 -199c-53 0 -103 14 -138 37l25 40c30 -20 68 -30 102 -30c40 0 60 14 60 39c0 21 -14 31 -36 31c-18 0 -32 -7 -46 -18l-35 17l23 76c-133 21 -228 123 -228 304c0 201 123 306 280 306c150 0 221 -78 248 -185l-112 -31c-21 73 -57 119 -137 119
c-101 0 -158 -80 -158 -208c0 -133 58 -214 160 -214c78 0 122 44 144 129l112 -25c-31 -118 -107 -199 -253 -199l-11 -38c14 9 34 15 61 15c37 0 71 -24 71 -69c0 -63 -59 -96 -132 -96z" />
    <glyph glyph-name="Ccircumflex" unicode="&#x108;" horiz-adv-x="717" 
d="M198 784l129 166h85l129 -166h-72l-100 84l-100 -84h-71zM373 -14c-190 0 -325 131 -325 386c0 248 139 382 325 382c172 0 254 -95 287 -230l-119 -34c-28 98 -71 148 -169 148c-125 0 -198 -97 -198 -265c0 -176 75 -273 200 -273c96 0 150 48 178 159l119 -27
c-36 -147 -127 -246 -298 -246z" />
    <glyph glyph-name="Ccircumflex.sc" horiz-adv-x="616" 
d="M144 642l129 166h85l129 -166h-72l-100 84l-100 -84h-71zM322 -11c-160 0 -280 104 -280 308c0 201 123 306 280 306c150 0 221 -78 248 -185l-112 -31c-21 73 -57 119 -137 119c-101 0 -158 -80 -158 -208c0 -133 58 -214 160 -214c78 0 122 44 144 129l112 -25
c-31 -118 -107 -199 -257 -199z" />
    <glyph glyph-name="Cdotaccent" unicode="&#x10a;" horiz-adv-x="717" 
d="M302 792v111h132v-111h-132zM373 -14c-190 0 -325 131 -325 386c0 248 139 382 325 382c172 0 254 -95 287 -230l-119 -34c-28 98 -71 148 -169 148c-125 0 -198 -97 -198 -265c0 -176 75 -273 200 -273c96 0 150 48 178 159l119 -27c-36 -147 -127 -246 -298 -246z" />
    <glyph glyph-name="Cdotaccent.sc" horiz-adv-x="616" 
d="M251 650v111h132v-111h-132zM322 -11c-160 0 -280 104 -280 308c0 201 123 306 280 306c150 0 221 -78 248 -185l-112 -31c-21 73 -57 119 -137 119c-101 0 -158 -80 -158 -208c0 -133 58 -214 160 -214c78 0 122 44 144 129l112 -25c-31 -118 -107 -199 -257 -199z" />
    <glyph glyph-name="D" unicode="D" horiz-adv-x="728" 
d="M295 0h-211v740h211c232 0 384 -108 384 -367c0 -264 -155 -373 -384 -373zM209 624v-512h97c169 0 248 74 248 261c0 178 -80 251 -250 251h-95z" />
    <glyph glyph-name="D.sc" horiz-adv-x="630" 
d="M72 0v592h189c192 0 327 -77 327 -293c0 -221 -138 -299 -327 -299h-189zM193 496v-402h76c139 0 198 59 198 203c0 139 -60 199 -199 199h-75z" />
    <glyph glyph-name="Dcaron" unicode="&#x10e;" horiz-adv-x="728" 
d="M321 787l-129 166h72l100 -84l100 84h71l-129 -166h-85zM295 0h-211v740h211c232 0 384 -108 384 -367c0 -264 -155 -373 -384 -373zM209 624v-512h97c169 0 248 74 248 261c0 178 -80 251 -250 251h-95z" />
    <glyph glyph-name="Dcaron.sc" horiz-adv-x="630" 
d="M272 645l-129 166h72l100 -84l100 84h71l-129 -166h-85zM72 0v592h189c192 0 327 -77 327 -293c0 -221 -138 -299 -327 -299h-189zM193 496v-402h76c139 0 198 59 198 203c0 139 -60 199 -199 199h-75z" />
    <glyph glyph-name="Dcroat" unicode="&#x110;" horiz-adv-x="728" 
d="M295 0h-211v335h-73v96h73v309h211c232 0 384 -108 384 -370c0 -260 -155 -370 -384 -370zM208 335v-224h98c169 0 248 75 248 262c0 178 -80 251 -250 251h-96v-193h155v-96h-155z" />
    <glyph glyph-name="Dcroat.sc" horiz-adv-x="630" 
d="M72 0v267h-61v74h61v251h189c192 0 327 -77 327 -293c0 -221 -138 -299 -327 -299h-189zM193 265v-171h76c139 0 198 59 198 203c0 139 -60 199 -199 199h-75v-154h111v-77h-111z" />
    <glyph glyph-name="Delta" unicode="&#x394;" horiz-adv-x="694" 
d="M23 0l265 743h118l265 -743h-648zM172 110h340l-167 458h-2z" />
    <glyph glyph-name="E" unicode="E" horiz-adv-x="621" 
d="M582 0h-498v740h478v-116h-353v-184h259v-111h-259v-215h373v-114z" />
    <glyph glyph-name="E.sc" horiz-adv-x="541" 
d="M505 0h-433v592h417v-98h-296v-140h217v-96h-217v-162h312v-96z" />
    <glyph glyph-name="Eacute" unicode="&#xc9;" horiz-adv-x="621" 
d="M251 784l94 166h132l-145 -166h-81zM582 0h-498v740h478v-116h-353v-184h259v-111h-259v-215h373v-114z" />
    <glyph glyph-name="Eacute.sc" horiz-adv-x="541" 
d="M207 642l94 166h132l-145 -166h-81zM505 0h-433v592h417v-98h-296v-140h217v-96h-217v-162h312v-96z" />
    <glyph glyph-name="Ebreve" unicode="&#x114;" horiz-adv-x="621" 
d="M315 775c-103 0 -161 74 -166 177h69c9 -75 50 -95 97 -95s89 20 98 95h68c-5 -103 -63 -177 -166 -177zM582 0h-498v740h478v-116h-353v-184h259v-111h-259v-215h373v-114z" />
    <glyph glyph-name="Ebreve.sc" horiz-adv-x="541" 
d="M275 634c-103 0 -161 74 -166 177h69c9 -75 50 -95 97 -95s89 20 98 95h68c-5 -103 -63 -177 -166 -177zM505 0h-433v592h417v-98h-296v-140h217v-96h-217v-162h312v-96z" />
    <glyph glyph-name="Ecaron" unicode="&#x11a;" horiz-adv-x="621" 
d="M287 787l-129 166h72l100 -84l100 84h71l-129 -166h-85zM582 0h-498v740h478v-116h-353v-184h259v-111h-259v-215h373v-114z" />
    <glyph glyph-name="Ecaron.sc" horiz-adv-x="541" 
d="M237 645l-129 166h72l100 -84l100 84h71l-129 -166h-85zM505 0h-433v592h417v-98h-296v-140h217v-96h-217v-162h312v-96z" />
    <glyph glyph-name="Ecircumflex" unicode="&#xca;" horiz-adv-x="621" 
d="M150 784l129 166h85l129 -166h-72l-100 84l-100 -84h-71zM582 0h-498v740h478v-116h-353v-184h259v-111h-259v-215h373v-114z" />
    <glyph glyph-name="Ecircumflex.sc" horiz-adv-x="541" 
d="M108 642l129 166h85l129 -166h-72l-100 84l-100 -84h-71zM505 0h-433v592h417v-98h-296v-140h217v-96h-217v-162h312v-96z" />
    <glyph glyph-name="Edieresis" unicode="&#xcb;" horiz-adv-x="621" 
d="M369 781v121h112v-121h-112zM171 781v121h112v-121h-112zM582 0h-498v740h478v-116h-353v-184h259v-111h-259v-215h373v-114z" />
    <glyph glyph-name="Edieresis.sc" horiz-adv-x="541" 
d="M322 639v121h112v-121h-112zM124 639v121h112v-121h-112zM505 0h-433v592h417v-98h-296v-140h217v-96h-217v-162h312v-96z" />
    <glyph glyph-name="Edotaccent" unicode="&#x116;" horiz-adv-x="621" 
d="M264 792v111h132v-111h-132zM582 0h-498v740h478v-116h-353v-184h259v-111h-259v-215h373v-114z" />
    <glyph glyph-name="Edotaccent.sc" horiz-adv-x="541" 
d="M214 650v111h132v-111h-132zM505 0h-433v592h417v-98h-296v-140h217v-96h-217v-162h312v-96z" />
    <glyph glyph-name="Egrave" unicode="&#xc8;" horiz-adv-x="621" 
d="M310 784l-146 166h133l94 -166h-81zM582 0h-498v740h478v-116h-353v-184h259v-111h-259v-215h373v-114z" />
    <glyph glyph-name="Egrave.sc" horiz-adv-x="541" 
d="M268 642l-146 166h133l94 -166h-81zM505 0h-433v592h417v-98h-296v-140h217v-96h-217v-162h312v-96z" />
    <glyph glyph-name="Emacron" unicode="&#x112;" horiz-adv-x="621" 
d="M174 781v91h312v-91h-312zM582 0h-498v740h478v-116h-353v-184h259v-111h-259v-215h373v-114z" />
    <glyph glyph-name="Emacron.sc" horiz-adv-x="541" 
d="M119 639v91h312v-91h-312zM505 0h-433v592h417v-98h-296v-140h217v-96h-217v-162h312v-96z" />
    <glyph glyph-name="Eng" unicode="&#x14a;" horiz-adv-x="763" 
d="M84 0v740h127l351 -528h2v528h115v-735c0 -130 -72 -207 -219 -207c-103 0 -158 39 -201 90l71 79c30 -39 68 -68 123 -68c58 0 101 28 107 105v4l-358 531h-2v-539h-116z" />
    <glyph glyph-name="Eng.sc" horiz-adv-x="654" 
d="M72 0v592h123l186 -265l97 -138h1v403h110v-612c0 -111 -54 -182 -188 -182c-79 0 -135 24 -178 56l52 80c36 -27 83 -44 117 -44c50 0 84 22 86 87v21l-195 275l-100 138h-1v-411h-110z" />
    <glyph glyph-name="Eogonek" unicode="&#x118;" horiz-adv-x="621" 
d="M602 -148c-41 -24 -88 -39 -144 -39c-67 0 -104 29 -104 77c0 39 34 80 79 110h-349v740h478v-116h-353v-184h259v-111h-259v-215h373v-114h-79c-42 -31 -62 -61 -62 -91c0 -23 11 -42 48 -42s63 12 88 24z" />
    <glyph glyph-name="Eogonek.sc" horiz-adv-x="541" 
d="M544 -148c-41 -24 -88 -39 -144 -39c-67 0 -104 29 -104 77c0 39 34 80 79 110h-303v592h417v-98h-296v-140h217v-96h-217v-162h312v-96h-60c-42 -31 -62 -61 -62 -91c0 -23 11 -42 48 -42s63 12 88 24z" />
    <glyph glyph-name="Eth" unicode="&#xd0;" horiz-adv-x="728" 
d="M295 0h-211v335h-73v96h73v309h211c232 0 384 -108 384 -370c0 -260 -155 -370 -384 -370zM208 335v-224h98c169 0 248 75 248 262c0 178 -80 251 -250 251h-96v-193h155v-96h-155z" />
    <glyph glyph-name="Eth.sc" horiz-adv-x="630" 
d="M72 0v267h-61v74h61v251h189c192 0 327 -77 327 -293c0 -221 -138 -299 -327 -299h-189zM193 265v-171h76c139 0 198 59 198 203c0 139 -60 199 -199 199h-75v-154h111v-77h-111z" />
    <glyph glyph-name="Euro" unicode="&#x20ac;" horiz-adv-x="729" 
d="M131 372v28h-110v83h119c33 186 149 271 283 271c148 0 218 -82 254 -205l-108 -37c-27 89 -57 134 -145 134c-82 0 -141 -53 -163 -163h186v-83h-195v-26c0 -15 0 -29 1 -43h194v-84h-184c21 -102 72 -155 163 -155c79 0 122 43 150 145l110 -33
c-39 -134 -123 -218 -261 -218c-139 0 -249 82 -283 261h-121v84h111c-1 13 -1 27 -1 41z" />
    <glyph glyph-name="Euro.sc" horiz-adv-x="614" 
d="M354 -12c-116 0 -207 61 -236 213h-96v62h89c-1 13 -1 23 -1 33c0 9 0 16 1 25h-89v62h95c23 150 124 222 236 222c125 0 184 -72 213 -172l-92 -31c-22 72 -51 111 -120 111c-62 0 -113 -41 -126 -130h145v-62h-151v-25c0 -12 0 -23 1 -33h150v-62h-143
c17 -84 61 -122 126 -122c58 0 100 34 123 118l94 -26c-35 -116 -107 -183 -219 -183z" />
    <glyph glyph-name="Euro.tab" 
d="M381 -14c-136 0 -241 76 -272 262h-107v82h99c-2 22 -1 40 -1 72h-98v80h105c28 192 140 272 272 272c144 0 211 -86 244 -210l-109 -32c-25 89 -52 136 -136 136c-82 0 -136 -51 -152 -166h177v-80h-184c-1 -17 -1 -56 0 -72h184v-82h-176c15 -110 64 -157 153 -157
c81 0 118 48 142 146l108 -28c-38 -134 -114 -223 -249 -223z" />
    <glyph glyph-name="F" unicode="F" horiz-adv-x="578" 
d="M209 0h-125v740h466v-116h-341v-198h247v-111h-247v-315z" />
    <glyph glyph-name="F.sc" horiz-adv-x="503" 
d="M193 0h-121v592h406v-98h-285v-156h206v-94h-206v-244z" />
    <glyph glyph-name="G" unicode="G" horiz-adv-x="745" 
d="M364 -14c-212 0 -316 161 -316 387c0 237 129 381 326 381c140 0 243 -65 287 -233l-116 -31c-33 111 -84 148 -172 148s-199 -54 -199 -262c0 -207 99 -278 204 -278c98 0 165 58 173 167h-149v101h269v-366h-103v107h-2c-23 -53 -88 -121 -202 -121z" />
    <glyph glyph-name="G.sc" horiz-adv-x="647" 
d="M307 -10c-176 0 -265 131 -265 308c0 186 111 305 281 305c118 0 210 -48 248 -188l-108 -28c-27 85 -72 119 -139 119c-88 0 -161 -56 -161 -205c0 -148 65 -219 164 -219c83 0 138 52 145 129h-122v89h231v-300h-94v84h-1c-26 -49 -83 -94 -179 -94z" />
    <glyph glyph-name="Gbreve" unicode="&#x11e;" horiz-adv-x="745" 
d="M372 776c-103 0 -161 74 -166 177h69c9 -75 50 -95 97 -95s89 20 98 95h68c-5 -103 -63 -177 -166 -177zM364 -14c-212 0 -316 161 -316 387c0 237 129 381 326 381c140 0 243 -65 287 -233l-116 -31c-33 111 -84 148 -172 148s-199 -54 -199 -262
c0 -207 99 -278 204 -278c98 0 165 58 173 167h-149v101h269v-366h-103v107h-2c-23 -53 -88 -121 -202 -121z" />
    <glyph glyph-name="Gbreve.sc" horiz-adv-x="647" 
d="M323 634c-103 0 -161 74 -166 177h69c9 -75 50 -95 97 -95s89 20 98 95h68c-5 -103 -63 -177 -166 -177zM307 -10c-176 0 -265 131 -265 308c0 186 111 305 281 305c118 0 210 -48 248 -188l-108 -28c-27 85 -72 119 -139 119c-88 0 -161 -56 -161 -205
c0 -148 65 -219 164 -219c83 0 138 52 145 129h-122v89h231v-300h-94v84h-1c-26 -49 -83 -94 -179 -94z" />
    <glyph glyph-name="Gcircumflex" unicode="&#x11c;" horiz-adv-x="745" 
d="M202 784l129 166h85l129 -166h-72l-100 84l-100 -84h-71zM364 -14c-212 0 -316 161 -316 387c0 237 129 381 326 381c140 0 243 -65 287 -233l-116 -31c-33 111 -84 148 -172 148s-199 -54 -199 -262c0 -207 99 -278 204 -278c98 0 165 58 173 167h-149v101h269v-366
h-103v107h-2c-23 -53 -88 -121 -202 -121z" />
    <glyph glyph-name="Gcircumflex.sc" horiz-adv-x="647" 
d="M151 642l129 166h85l129 -166h-72l-100 84l-100 -84h-71zM307 -10c-176 0 -265 131 -265 308c0 186 111 305 281 305c118 0 210 -48 248 -188l-108 -28c-27 85 -72 119 -139 119c-88 0 -161 -56 -161 -205c0 -148 65 -219 164 -219c83 0 138 52 145 129h-122v89h231v-300
h-94v84h-1c-26 -49 -83 -94 -179 -94z" />
    <glyph glyph-name="Gcommaaccent" unicode="&#x122;" horiz-adv-x="745" 
d="M364 -14c-212 0 -316 161 -316 387c0 237 129 381 326 381c140 0 243 -65 287 -233l-116 -31c-33 111 -84 148 -172 148s-199 -54 -199 -262c0 -207 99 -278 204 -278c98 0 165 58 173 167h-149v101h269v-366h-103v107h-2c-23 -53 -88 -121 -202 -121zM328 -271l32 106
h-48v120h123v-105l-55 -121h-52z" />
    <glyph glyph-name="Gcommaaccent.sc" horiz-adv-x="647" 
d="M307 -10c-176 0 -265 131 -265 308c0 186 111 305 281 305c118 0 210 -48 248 -188l-108 -28c-27 85 -72 119 -139 119c-88 0 -161 -56 -161 -205c0 -148 65 -219 164 -219c83 0 138 52 145 129h-122v89h231v-300h-94v84h-1c-26 -49 -83 -94 -179 -94zM281 -271l32 106
h-48v120h123v-105l-55 -121h-52z" />
    <glyph glyph-name="Gdotaccent" unicode="&#x120;" horiz-adv-x="745" 
d="M303 792v111h132v-111h-132zM364 -14c-212 0 -316 161 -316 387c0 237 129 381 326 381c140 0 243 -65 287 -233l-116 -31c-33 111 -84 148 -172 148s-199 -54 -199 -262c0 -207 99 -278 204 -278c98 0 165 58 173 167h-149v101h269v-366h-103v107h-2
c-23 -53 -88 -121 -202 -121z" />
    <glyph glyph-name="Gdotaccent.sc" horiz-adv-x="647" 
d="M259 650v111h132v-111h-132zM307 -10c-176 0 -265 131 -265 308c0 186 111 305 281 305c118 0 210 -48 248 -188l-108 -28c-27 85 -72 119 -139 119c-88 0 -161 -56 -161 -205c0 -148 65 -219 164 -219c83 0 138 52 145 129h-122v89h231v-300h-94v84h-1
c-26 -49 -83 -94 -179 -94z" />
    <glyph glyph-name="H" unicode="H" horiz-adv-x="754" 
d="M209 0h-125v740h125v-295h336v295h125v-740h-125v329h-336v-329z" />
    <glyph glyph-name="H.sc" horiz-adv-x="654" 
d="M193 0h-121v592h121v-231h267v231h122v-592h-122v257h-267v-257z" />
    <glyph glyph-name="Hbar" unicode="&#x126;" horiz-adv-x="754" 
d="M209 445h336v89h-336v-89zM209 329v-329h-125v534h-73v96h73v110h125v-110h336v110h125v-110h73v-96h-73v-534h-125v329h-336z" />
    <glyph glyph-name="Hbar.sc" horiz-adv-x="654" 
d="M193 361h267v58h-267v-58zM193 257v-257h-121v419h-61v82h61v91h121v-91h267v91h122v-91h61v-82h-61v-419h-122v257h-267z" />
    <glyph glyph-name="Hcircumflex" unicode="&#x124;" horiz-adv-x="754" 
d="M205 784l129 166h85l129 -166h-72l-100 84l-100 -84h-71zM209 0h-125v740h125v-295h336v295h125v-740h-125v329h-336v-329z" />
    <glyph glyph-name="Hcircumflex.sc" horiz-adv-x="654" 
d="M155 642l129 166h85l129 -166h-72l-100 84l-100 -84h-71zM193 0h-121v592h121v-231h267v231h122v-592h-122v257h-267v-257z" />
    <glyph glyph-name="I" unicode="I" horiz-adv-x="310" 
d="M218 0h-126v740h126v-740z" />
    <glyph glyph-name="I.sc" horiz-adv-x="278" 
d="M200 0h-121v592h121v-592z" />
    <glyph glyph-name="IJ" unicode="&#x132;" horiz-adv-x="790" 
d="M218 0h-126v740h126v-740zM489 -11c-89 0 -151 32 -201 85l78 77c26 -26 65 -53 115 -53c69 0 111 28 111 127v518h125v-535c0 -138 -83 -219 -228 -219z" />
    <glyph glyph-name="IJ.sc" horiz-adv-x="701" 
d="M200 0h-121v592h121v-592zM262 48l53 83c36 -27 82 -44 116 -44c53 0 87 21 87 91v417h121v-421c0 -110 -56 -182 -199 -182c-79 0 -134 25 -178 56z" />
    <glyph glyph-name="Iacute" unicode="&#xcd;" horiz-adv-x="310" 
d="M110 784l94 166h132l-145 -166h-81zM218 0h-126v740h126v-740z" />
    <glyph glyph-name="Iacute.sc" horiz-adv-x="278" 
d="M89 642l94 166h132l-145 -166h-81zM200 0h-121v592h121v-592z" />
    <glyph glyph-name="Ibreve" unicode="&#x12c;" horiz-adv-x="310" 
d="M155 775c-103 0 -161 74 -166 177h69c9 -75 50 -95 97 -95s89 20 98 95h68c-5 -103 -63 -177 -166 -177zM218 0h-126v740h126v-740z" />
    <glyph glyph-name="Ibreve.sc" horiz-adv-x="278" 
d="M139 634c-103 0 -161 74 -166 177h69c9 -75 50 -95 97 -95s89 20 98 95h68c-5 -103 -63 -177 -166 -177zM200 0h-121v592h121v-592z" />
    <glyph glyph-name="Icircumflex" unicode="&#xce;" horiz-adv-x="310" 
d="M-16 784l129 166h85l129 -166h-72l-100 84l-100 -84h-71zM218 0h-126v740h126v-740z" />
    <glyph glyph-name="Icircumflex.sc" horiz-adv-x="278" 
d="M-32 642l129 166h85l129 -166h-72l-100 84l-100 -84h-71zM200 0h-121v592h121v-592z" />
    <glyph glyph-name="Idieresis" unicode="&#xcf;" horiz-adv-x="310" 
d="M197 781v121h112v-121h-112zM-1 781v121h112v-121h-112zM218 0h-126v740h126v-740z" />
    <glyph glyph-name="Idieresis.sc" horiz-adv-x="278" 
d="M181 639v121h112v-121h-112zM-17 639v121h112v-121h-112zM200 0h-121v592h121v-592z" />
    <glyph glyph-name="Idotaccent" unicode="&#x130;" horiz-adv-x="310" 
d="M89 792v111h132v-111h-132zM218 0h-126v740h126v-740z" />
    <glyph glyph-name="Idotaccent.sc" horiz-adv-x="278" 
d="M73 650v111h132v-111h-132zM200 0h-121v592h121v-592z" />
    <glyph glyph-name="Igrave" unicode="&#xcc;" horiz-adv-x="310" 
d="M127 784l-146 166h133l94 -166h-81zM218 0h-126v740h126v-740z" />
    <glyph glyph-name="Igrave.sc" horiz-adv-x="278" 
d="M109 642l-146 166h133l94 -166h-81zM200 0h-121v592h121v-592z" />
    <glyph glyph-name="Imacron" unicode="&#x12a;" horiz-adv-x="310" 
d="M-1 781v91h312v-91h-312zM218 0h-126v740h126v-740z" />
    <glyph glyph-name="Imacron.sc" horiz-adv-x="278" 
d="M-17 639v91h312v-91h-312zM200 0h-121v592h121v-592z" />
    <glyph glyph-name="Iogonek" unicode="&#x12e;" horiz-adv-x="310" 
d="M258 -148c-41 -24 -88 -39 -144 -39c-67 0 -104 29 -104 77c0 40 36 81 82 112v738h126v-740h-59c-42 -31 -62 -61 -62 -91c0 -23 11 -42 48 -42s63 12 88 24z" />
    <glyph glyph-name="Iogonek.sc" horiz-adv-x="278" 
d="M251 -148c-40 -24 -87 -39 -143 -39c-67 0 -104 29 -104 77c0 42 34 86 75 114v588h121v-592h-56c-36 -31 -53 -61 -53 -91c0 -23 11 -42 48 -42c36 0 62 12 88 24z" />
    <glyph glyph-name="Itilde" unicode="&#x128;" horiz-adv-x="310" 
d="M231 777c-66 0 -103 56 -145 56c-28 0 -41 -15 -41 -54h-69c0 98 39 139 104 139c66 0 103 -56 146 -56c27 0 41 15 41 54h69c0 -97 -40 -139 -105 -139zM218 0h-126v740h126v-740z" />
    <glyph glyph-name="Itilde.sc" horiz-adv-x="278" 
d="M215 637c-66 0 -103 56 -145 56c-28 0 -41 -15 -41 -54h-69c0 98 39 139 104 139c66 0 103 -56 146 -56c27 0 41 15 41 54h69c0 -97 -40 -139 -105 -139zM200 0h-121v592h121v-592z" />
    <glyph glyph-name="J" unicode="J" horiz-adv-x="520" 
d="M219 -14c-89 0 -151 32 -201 85l78 77c26 -26 65 -53 115 -53c69 0 111 28 111 127v518h125v-535c0 -138 -83 -219 -228 -219z" />
    <glyph glyph-name="J.sc" horiz-adv-x="453" 
d="M14 45l53 83c36 -27 82 -44 116 -44c53 0 87 21 87 91v417h121v-421c0 -110 -56 -182 -199 -182c-79 0 -134 25 -178 56z" />
    <glyph glyph-name="Jcircumflex" unicode="&#x134;" horiz-adv-x="520" 
d="M212 784l129 166h85l129 -166h-72l-100 84l-100 -84h-71zM219 -14c-89 0 -151 32 -201 85l78 77c26 -26 65 -53 115 -53c69 0 111 28 111 127v518h125v-535c0 -138 -83 -219 -228 -219z" />
    <glyph glyph-name="Jcircumflex.sc" horiz-adv-x="453" 
d="M158 642l129 166h85l129 -166h-72l-100 84l-100 -84h-71zM14 45l53 83c36 -27 82 -44 116 -44c53 0 87 21 87 91v417h121v-421c0 -110 -56 -182 -199 -182c-79 0 -134 25 -178 56z" />
    <glyph glyph-name="K" unicode="K" horiz-adv-x="698" 
d="M209 0h-125v740h125v-344l291 344h148l-252 -285l283 -455h-143l-222 359l-105 -116v-243z" />
    <glyph glyph-name="K.sc" horiz-adv-x="609" 
d="M192 0h-120v592h120v-266l117 130l121 136h131l-211 -229l234 -363h-133l-179 275l-80 -83v-192z" />
    <glyph glyph-name="Kcommaaccent" unicode="&#x136;" horiz-adv-x="698" 
d="M209 0h-125v740h125v-344l291 344h148l-252 -285l283 -455h-143l-222 359l-105 -116v-243zM304 -271l32 106h-48v120h123v-105l-55 -121h-52z" />
    <glyph glyph-name="Kcommaaccent.sc" horiz-adv-x="609" 
d="M192 0h-120v592h120v-266l117 130l121 136h131l-211 -229l234 -363h-133l-179 275l-80 -83v-192zM259 -271l32 106h-48v120h123v-105l-55 -121h-52z" />
    <glyph glyph-name="L" unicode="L" horiz-adv-x="578" 
d="M550 0h-466v740h125v-626h341v-114z" />
    <glyph glyph-name="L.sc" horiz-adv-x="503" 
d="M478 0h-406v592h121v-496h285v-96z" />
    <glyph glyph-name="Lacute" unicode="&#x139;" horiz-adv-x="578" 
d="M106 784l94 166h132l-145 -166h-81zM550 0h-466v740h125v-626h341v-114z" />
    <glyph glyph-name="Lacute.sc" horiz-adv-x="503" 
d="M92 642l94 166h132l-145 -166h-81zM478 0h-406v592h121v-496h285v-96z" />
    <glyph glyph-name="Lcaron" unicode="&#x13d;" horiz-adv-x="578" 
d="M550 0h-466v740h125v-626h341v-114zM328 514l32 106h-48v120h123v-105l-55 -121h-52z" />
    <glyph glyph-name="Lcaron.sc" horiz-adv-x="503" 
d="M478 0h-406v592h121v-496h285v-96zM291 374l31 102h-47v116h119v-101l-53 -117h-50z" />
    <glyph glyph-name="Lcommaaccent" unicode="&#x13b;" horiz-adv-x="578" 
d="M550 0h-466v740h125v-626h341v-114zM244 -271l32 106h-48v120h123v-105l-55 -121h-52z" />
    <glyph glyph-name="Lcommaaccent.sc" horiz-adv-x="503" 
d="M478 0h-406v592h121v-496h285v-96zM206 -271l32 106h-48v120h123v-105l-55 -121h-52z" />
    <glyph glyph-name="Ldot" unicode="&#x13f;" horiz-adv-x="603" 
d="M550 0h-466v740h125v-626h341v-114zM385 351v111h122v-111h-122z" />
    <glyph glyph-name="Ldot.sc" horiz-adv-x="533" 
d="M478 0h-406v592h121v-496h285v-96zM339 271v111h122v-111h-122z" />
    <glyph glyph-name="Lslash" unicode="&#x141;" horiz-adv-x="578" 
d="M550 0h-466v332l-83 -22v96l83 22v312h126v-279l148 40v-96l-148 -40v-251h340v-114z" />
    <glyph glyph-name="Lslash.sc" horiz-adv-x="503" 
d="M478 94v-94h-406v257l-61 -16v75l61 16v260h121v-227l111 29v-75l-111 -29v-196h285z" />
    <glyph glyph-name="M" unicode="M" horiz-adv-x="893" 
d="M197 0h-113v740h165l198 -587h2l192 587h168v-740h-121v552h-2c-11 -51 -27 -99 -44 -151l-144 -401h-111l-143 401c-18 53 -29 85 -45 156h-2v-557z" />
    <glyph glyph-name="M.sc" horiz-adv-x="767" 
d="M177 0h-105v592h158l154 -455h2l147 455h163v-592h-115v452h-1c-7 -37 -20 -78 -32 -117c-6 -34 -102 -272 -116 -335h-106c-12 63 -109 308 -115 337c-14 51 -24 82 -33 117h-1v-454z" />
    <glyph glyph-name="N" unicode="N" horiz-adv-x="763" 
d="M200 0h-116v740h127l350 -528h2v528h116v-740h-114l-363 539h-2v-539z" />
    <glyph glyph-name="N.sc" horiz-adv-x="654" 
d="M182 0h-110v592h123l186 -265l97 -138h1v403h110v-592h-111l-195 273l-100 138h-1v-411z" />
    <glyph glyph-name="Nacute" unicode="&#x143;" horiz-adv-x="763" 
d="M303 784l94 166h132l-145 -166h-81zM200 0h-116v740h127l350 -528h2v528h116v-740h-114l-363 539h-2v-539z" />
    <glyph glyph-name="Nacute.sc" horiz-adv-x="654" 
d="M258 642l94 166h132l-145 -166h-81zM182 0h-110v592h123l186 -265l97 -138h1v403h110v-592h-111l-195 273l-100 138h-1v-411z" />
    <glyph glyph-name="Ncaron" unicode="&#x147;" horiz-adv-x="763" 
d="M338 787l-129 166h72l100 -84l100 84h71l-129 -166h-85zM200 0h-116v740h127l350 -528h2v528h116v-740h-114l-363 539h-2v-539z" />
    <glyph glyph-name="Ncaron.sc" horiz-adv-x="654" 
d="M284 645l-129 166h72l100 -84l100 84h71l-129 -166h-85zM182 0h-110v592h123l186 -265l97 -138h1v403h110v-592h-111l-195 273l-100 138h-1v-411z" />
    <glyph glyph-name="Ncommaaccent" unicode="&#x145;" horiz-adv-x="763" 
d="M200 0h-116v740h127l350 -528h2v528h116v-740h-114l-363 539h-2v-539zM336 -271l32 106h-48v120h123v-105l-55 -121h-52z" />
    <glyph glyph-name="Ncommaaccent.sc" horiz-adv-x="654" 
d="M182 0h-110v592h123l186 -265l97 -138h1v403h110v-592h-111l-195 273l-100 138h-1v-411zM282 -271l32 106h-48v120h123v-105l-55 -121h-52z" />
    <glyph glyph-name="Ntilde" unicode="&#xd1;" horiz-adv-x="763" 
d="M463 777c-66 0 -103 56 -145 56c-28 0 -41 -15 -41 -54h-69c0 98 39 139 104 139c66 0 103 -56 146 -56c27 0 41 15 41 54h69c0 -97 -40 -139 -105 -139zM200 0h-116v740h127l350 -528h2v528h116v-740h-114l-363 539h-2v-539z" />
    <glyph glyph-name="Ntilde.sc" horiz-adv-x="654" 
d="M402 635c-66 0 -103 56 -145 56c-28 0 -41 -15 -41 -54h-69c0 98 39 139 104 139c66 0 103 -56 146 -56c27 0 41 15 41 54h69c0 -97 -40 -139 -105 -139zM182 0h-110v592h123l186 -265l97 -138h1v403h110v-592h-111l-195 273l-100 138h-1v-411z" />
    <glyph glyph-name="O" unicode="O" horiz-adv-x="764" 
d="M383 -14c-188 0 -335 135 -335 384s147 384 335 384c187 0 333 -135 333 -384s-146 -384 -333 -384zM383 99c124 0 207 97 207 271s-83 269 -207 269c-126 0 -209 -95 -209 -269s83 -271 209 -271z" />
    <glyph glyph-name="O.sc" horiz-adv-x="663" 
d="M332 -11c-150 0 -289 104 -289 307c0 204 139 307 289 307c149 0 288 -103 288 -307c0 -203 -139 -307 -288 -307zM332 87c101 0 168 78 168 209s-67 207 -168 207s-168 -76 -168 -207s67 -209 168 -209z" />
    <glyph glyph-name="OE" unicode="&#x152;" horiz-adv-x="1126" 
d="M382 99c124 0 207 97 207 271s-83 269 -207 269c-126 0 -209 -95 -209 -269s83 -271 209 -271zM382 -14c-179 0 -335 135 -335 384s156 384 335 384c92 0 169 -42 218 -109v95h467v-116h-353v-184h259v-111h-259v-215h372v-114h-486v96c-49 -67 -126 -110 -218 -110z" />
    <glyph glyph-name="OE.sc" horiz-adv-x="959" 
d="M332 86c100 0 167 79 167 210s-67 208 -167 208c-101 0 -168 -77 -168 -208s67 -210 168 -210zM327 -11c-148 0 -284 104 -284 307c0 204 141 307 284 307c80 0 145 -33 185 -91v80h395v-98h-296v-142h216v-92h-216v-164h311v-96h-410v79c-40 -58 -104 -90 -185 -90z" />
    <glyph glyph-name="Oacute" unicode="&#xd3;" horiz-adv-x="764" 
d="M319 784l94 166h132l-145 -166h-81zM383 -14c-188 0 -335 135 -335 384s147 384 335 384c187 0 333 -135 333 -384s-146 -384 -333 -384zM383 99c124 0 207 97 207 271s-83 269 -207 269c-126 0 -209 -95 -209 -269s83 -271 209 -271z" />
    <glyph glyph-name="Oacute.sc" horiz-adv-x="663" 
d="M263 642l94 166h132l-145 -166h-81zM332 -11c-150 0 -289 104 -289 307c0 204 139 307 289 307c149 0 288 -103 288 -307c0 -203 -139 -307 -288 -307zM332 87c101 0 168 78 168 209s-67 207 -168 207s-168 -76 -168 -207s67 -209 168 -209z" />
    <glyph glyph-name="Obreve" unicode="&#x14e;" horiz-adv-x="764" 
d="M381 776c-103 0 -161 74 -166 177h69c9 -75 50 -95 97 -95s89 20 98 95h68c-5 -103 -63 -177 -166 -177zM383 -14c-188 0 -335 135 -335 384s147 384 335 384c187 0 333 -135 333 -384s-146 -384 -333 -384zM383 99c124 0 207 97 207 271s-83 269 -207 269
c-126 0 -209 -95 -209 -269s83 -271 209 -271z" />
    <glyph glyph-name="Obreve.sc" horiz-adv-x="663" 
d="M331 636c-103 0 -161 74 -166 177h69c9 -75 50 -95 97 -95s89 20 98 95h68c-5 -103 -63 -177 -166 -177zM332 -11c-150 0 -289 104 -289 307c0 204 139 307 289 307c149 0 288 -103 288 -307c0 -203 -139 -307 -288 -307zM332 87c101 0 168 78 168 209s-67 207 -168 207
s-168 -76 -168 -207s67 -209 168 -209z" />
    <glyph glyph-name="Ocircumflex" unicode="&#xd4;" horiz-adv-x="764" 
d="M210 784l129 166h85l129 -166h-72l-100 84l-100 -84h-71zM383 -14c-188 0 -335 135 -335 384s147 384 335 384c187 0 333 -135 333 -384s-146 -384 -333 -384zM383 99c124 0 207 97 207 271s-83 269 -207 269c-126 0 -209 -95 -209 -269s83 -271 209 -271z" />
    <glyph glyph-name="Ocircumflex.sc" horiz-adv-x="663" 
d="M159 642l129 166h85l129 -166h-72l-100 84l-100 -84h-71zM332 -11c-150 0 -289 104 -289 307c0 204 139 307 289 307c149 0 288 -103 288 -307c0 -203 -139 -307 -288 -307zM332 87c101 0 168 78 168 209s-67 207 -168 207s-168 -76 -168 -207s67 -209 168 -209z" />
    <glyph glyph-name="Odieresis" unicode="&#xd6;" horiz-adv-x="764" 
d="M423 781v121h112v-121h-112zM225 781v121h112v-121h-112zM383 -14c-188 0 -335 135 -335 384s147 384 335 384c187 0 333 -135 333 -384s-146 -384 -333 -384zM383 99c124 0 207 97 207 271s-83 269 -207 269c-126 0 -209 -95 -209 -269s83 -271 209 -271z" />
    <glyph glyph-name="Odieresis.sc" horiz-adv-x="663" 
d="M373 639v121h112v-121h-112zM175 639v121h112v-121h-112zM332 -11c-150 0 -289 104 -289 307c0 204 139 307 289 307c149 0 288 -103 288 -307c0 -203 -139 -307 -288 -307zM332 87c101 0 168 78 168 209s-67 207 -168 207s-168 -76 -168 -207s67 -209 168 -209z" />
    <glyph glyph-name="Ograve" unicode="&#xd2;" horiz-adv-x="764" 
d="M362 784l-146 166h133l94 -166h-81zM383 -14c-188 0 -335 135 -335 384s147 384 335 384c187 0 333 -135 333 -384s-146 -384 -333 -384zM383 99c124 0 207 97 207 271s-83 269 -207 269c-126 0 -209 -95 -209 -269s83 -271 209 -271z" />
    <glyph glyph-name="Ograve.sc" horiz-adv-x="663" 
d="M319 642l-146 166h133l94 -166h-81zM332 -11c-150 0 -289 104 -289 307c0 204 139 307 289 307c149 0 288 -103 288 -307c0 -203 -139 -307 -288 -307zM332 87c101 0 168 78 168 209s-67 207 -168 207s-168 -76 -168 -207s67 -209 168 -209z" />
    <glyph glyph-name="Ohungarumlaut" unicode="&#x150;" horiz-adv-x="764" 
d="M400 784l105 166h134l-157 -166h-82zM221 784l100 166h134l-152 -166h-82zM383 -14c-188 0 -335 135 -335 384s147 384 335 384c187 0 333 -135 333 -384s-146 -384 -333 -384zM383 99c124 0 207 97 207 271s-83 269 -207 269c-126 0 -209 -95 -209 -269
s83 -271 209 -271z" />
    <glyph glyph-name="Ohungarumlaut.sc" horiz-adv-x="663" 
d="M354 642l105 166h134l-157 -166h-82zM175 642l100 166h134l-152 -166h-82zM332 -11c-150 0 -289 104 -289 307c0 204 139 307 289 307c149 0 288 -103 288 -307c0 -203 -139 -307 -288 -307zM332 87c101 0 168 78 168 209s-67 207 -168 207s-168 -76 -168 -207
s67 -209 168 -209z" />
    <glyph glyph-name="Omacron" unicode="&#x14c;" horiz-adv-x="764" 
d="M225 781v91h312v-91h-312zM383 -14c-188 0 -335 135 -335 384s147 384 335 384c187 0 333 -135 333 -384s-146 -384 -333 -384zM383 99c124 0 207 97 207 271s-83 269 -207 269c-126 0 -209 -95 -209 -269s83 -271 209 -271z" />
    <glyph glyph-name="Omacron.sc" horiz-adv-x="663" 
d="M175 639v91h312v-91h-312zM332 -11c-150 0 -289 104 -289 307c0 204 139 307 289 307c149 0 288 -103 288 -307c0 -203 -139 -307 -288 -307zM332 87c101 0 168 78 168 209s-67 207 -168 207s-168 -76 -168 -207s67 -209 168 -209z" />
    <glyph glyph-name="Omega" unicode="&#x3a9;" horiz-adv-x="762" 
d="M381 754c210 0 323 -171 323 -355c0 -116 -53 -224 -147 -296h140v-103h-249v103c85 81 132 167 132 295c0 137 -70 251 -200 251c-125 0 -197 -108 -197 -249c0 -129 47 -216 132 -297v-103h-250v103h141c-94 71 -148 182 -148 296c0 186 116 355 323 355z" />
    <glyph glyph-name="Oslash" unicode="&#xd8;" horiz-adv-x="764" 
d="M203 208l312 385c-35 33 -80 50 -132 50c-127 0 -212 -98 -212 -273c0 -65 12 -119 32 -162zM561 531l-313 -385c35 -34 81 -52 135 -52c125 0 210 101 210 276c0 64 -11 118 -32 161zM717 716l-74 -90c46 -63 73 -149 73 -256c0 -249 -146 -384 -333 -384
c-78 0 -150 24 -206 69l-67 -80l-63 49l74 89c-46 64 -73 150 -73 257c0 249 147 384 335 384c78 0 149 -23 204 -69l67 80z" />
    <glyph glyph-name="Oslash.sc" horiz-adv-x="663" 
d="M193 161l232 319c-25 20 -57 30 -93 30c-103 0 -173 -80 -173 -214c0 -54 12 -101 34 -135zM332 80c103 0 172 83 172 216c0 56 -13 102 -35 136l-233 -321c26 -20 59 -31 96 -31zM128 -40l-56 42l51 70c-49 52 -80 127 -80 224c0 204 139 307 289 307
c54 0 106 -14 150 -42l53 72l56 -42l-52 -71c50 -51 81 -127 81 -224c0 -203 -139 -307 -288 -307c-55 0 -108 14 -152 42z" />
    <glyph glyph-name="Otilde" unicode="&#xd5;" horiz-adv-x="764" 
d="M456 777c-66 0 -103 56 -145 56c-28 0 -41 -15 -41 -54h-69c0 98 39 139 104 139c66 0 103 -56 146 -56c27 0 41 15 41 54h69c0 -97 -40 -139 -105 -139zM383 -14c-188 0 -335 135 -335 384s147 384 335 384c187 0 333 -135 333 -384s-146 -384 -333 -384zM383 99
c124 0 207 97 207 271s-83 269 -207 269c-126 0 -209 -95 -209 -269s83 -271 209 -271z" />
    <glyph glyph-name="Otilde.sc" horiz-adv-x="663" 
d="M406 635c-66 0 -103 56 -145 56c-28 0 -41 -15 -41 -54h-69c0 98 39 139 104 139c66 0 103 -56 146 -56c27 0 41 15 41 54h69c0 -97 -40 -139 -105 -139zM332 -11c-150 0 -289 104 -289 307c0 204 139 307 289 307c149 0 288 -103 288 -307c0 -203 -139 -307 -288 -307z
M332 87c101 0 168 78 168 209s-67 207 -168 207s-168 -76 -168 -207s67 -209 168 -209z" />
    <glyph glyph-name="P" unicode="P" horiz-adv-x="663" 
d="M208 0h-124v740h259c160 0 285 -56 285 -227c0 -179 -137 -232 -289 -232h-131v-281zM208 626v-236h137c110 0 160 34 160 119c0 82 -50 117 -161 117h-136z" />
    <glyph glyph-name="P.sc" horiz-adv-x="576" 
d="M191 0h-119v592h226c134 0 246 -34 246 -184c0 -155 -122 -189 -248 -189h-105v-219zM191 498v-192h110c88 0 127 31 127 98c0 66 -38 94 -128 94h-109z" />
    <glyph glyph-name="Q" unicode="Q" horiz-adv-x="764" 
d="M647 -193h-102c-156 0 -231 79 -234 188c-150 27 -264 161 -264 375c0 249 156 384 335 384c178 0 333 -135 333 -384c0 -221 -121 -355 -277 -378c15 -72 66 -79 158 -79h51v-106zM382 97c124 0 207 99 207 273s-83 269 -207 269c-126 0 -209 -95 -209 -269
s83 -273 209 -273z" />
    <glyph glyph-name="Q.sc" horiz-adv-x="663" 
d="M562 -70v-91h-84c-151 0 -211 71 -213 160c-123 25 -222 126 -222 297c0 204 139 307 289 307c148 0 288 -103 288 -307c0 -177 -108 -279 -236 -300c6 -55 41 -66 133 -66h45zM332 83c100 0 167 80 167 213c0 134 -67 210 -167 210c-101 0 -169 -76 -169 -210
c0 -133 68 -213 169 -213z" />
    <glyph glyph-name="R" unicode="R" horiz-adv-x="691" 
d="M207 626v-225h137c104 0 160 26 160 114c0 85 -55 111 -161 111h-136zM207 0h-123v740h265c176 0 278 -71 278 -222c0 -118 -61 -185 -164 -210l174 -308h-134l-166 292h-130v-292z" />
    <glyph glyph-name="R.sc" horiz-adv-x="600" 
d="M191 498v-181h109c83 0 125 24 125 92c0 67 -42 89 -125 89h-109zM191 0h-119v592h232c151 0 239 -51 239 -178c0 -96 -48 -146 -133 -167l143 -247h-128l-134 233h-100v-233z" />
    <glyph glyph-name="Racute" unicode="&#x154;" horiz-adv-x="691" 
d="M277 784l94 166h132l-145 -166h-81zM207 626v-225h137c104 0 160 26 160 114c0 85 -55 111 -161 111h-136zM207 0h-123v740h265c176 0 278 -71 278 -222c0 -118 -61 -185 -164 -210l174 -308h-134l-166 292h-130v-292z" />
    <glyph glyph-name="Racute.sc" horiz-adv-x="600" 
d="M232 642l94 166h132l-145 -166h-81zM191 498v-181h109c83 0 125 24 125 92c0 67 -42 89 -125 89h-109zM191 0h-119v592h232c151 0 239 -51 239 -178c0 -96 -48 -146 -133 -167l143 -247h-128l-134 233h-100v-233z" />
    <glyph glyph-name="Rcaron" unicode="&#x158;" horiz-adv-x="691" 
d="M302 787l-129 166h72l100 -84l100 84h71l-129 -166h-85zM207 626v-225h137c104 0 160 26 160 114c0 85 -55 111 -161 111h-136zM207 0h-123v740h265c176 0 278 -71 278 -222c0 -118 -61 -185 -164 -210l174 -308h-134l-166 292h-130v-292z" />
    <glyph glyph-name="Rcaron.sc" horiz-adv-x="600" 
d="M257 645l-129 166h72l100 -84l100 84h71l-129 -166h-85zM191 498v-181h109c83 0 125 24 125 92c0 67 -42 89 -125 89h-109zM191 0h-119v592h232c151 0 239 -51 239 -178c0 -96 -48 -146 -133 -167l143 -247h-128l-134 233h-100v-233z" />
    <glyph glyph-name="Rcommaaccent" unicode="&#x156;" horiz-adv-x="691" 
d="M207 626v-225h137c104 0 160 26 160 114c0 85 -55 111 -161 111h-136zM207 0h-123v740h265c176 0 278 -71 278 -222c0 -118 -61 -185 -164 -210l174 -308h-134l-166 292h-130v-292zM300 -271l32 106h-48v120h123v-105l-55 -121h-52z" />
    <glyph glyph-name="Rcommaaccent.sc" horiz-adv-x="600" 
d="M191 498v-181h109c83 0 125 24 125 92c0 67 -42 89 -125 89h-109zM191 0h-119v592h232c151 0 239 -51 239 -178c0 -96 -48 -146 -133 -167l143 -247h-128l-134 233h-100v-233zM255 -271l32 106h-48v120h123v-105l-55 -121h-52z" />
    <glyph glyph-name="S" unicode="S" horiz-adv-x="674" 
d="M343 -14c-147 0 -251 76 -298 188l99 52c44 -87 112 -129 204 -129c90 0 151 29 151 96c0 64 -46 94 -168 130c-143 42 -258 81 -258 222c0 126 103 209 253 209c146 0 232 -72 277 -159l-91 -63c-44 74 -107 108 -187 108c-82 0 -129 -30 -129 -84
c0 -69 53 -92 174 -128c140 -41 252 -87 252 -226c0 -121 -103 -216 -279 -216z" />
    <glyph glyph-name="S.sc" horiz-adv-x="588" 
d="M303 -13c-112 0 -212 46 -261 143l92 57c29 -70 98 -106 169 -106c78 0 120 26 120 76c0 61 -47 73 -132 94c-122 27 -227 56 -227 187c0 101 88 165 216 165s206 -53 245 -121l-83 -60c-30 56 -93 87 -158 87c-67 0 -103 -23 -103 -68c0 -65 60 -75 156 -98
c97 -22 205 -51 205 -180c0 -115 -103 -176 -239 -176z" />
    <glyph glyph-name="Sacute" unicode="&#x15a;" horiz-adv-x="674" 
d="M268 784l94 166h132l-145 -166h-81zM343 -14c-147 0 -251 76 -298 188l99 52c44 -87 112 -129 204 -129c90 0 151 29 151 96c0 64 -46 94 -168 130c-143 42 -258 81 -258 222c0 126 103 209 253 209c146 0 232 -72 277 -159l-91 -63c-44 74 -107 108 -187 108
c-82 0 -129 -30 -129 -84c0 -69 53 -92 174 -128c140 -41 252 -87 252 -226c0 -121 -103 -216 -279 -216z" />
    <glyph glyph-name="Sacute.sc" horiz-adv-x="588" 
d="M225 642l94 166h132l-145 -166h-81zM303 -13c-112 0 -212 46 -261 143l92 57c29 -70 98 -106 169 -106c78 0 120 26 120 76c0 61 -47 73 -132 94c-122 27 -227 56 -227 187c0 101 88 165 216 165s206 -53 245 -121l-83 -60c-30 56 -93 87 -158 87
c-67 0 -103 -23 -103 -68c0 -65 60 -75 156 -98c97 -22 205 -51 205 -180c0 -115 -103 -176 -239 -176z" />
    <glyph glyph-name="Scaron" unicode="&#x160;" horiz-adv-x="674" 
d="M294 792l-129 166h72l100 -84l100 84h71l-129 -166h-85zM343 -14c-147 0 -251 76 -298 188l99 52c44 -87 112 -129 204 -129c90 0 151 29 151 96c0 64 -46 94 -168 130c-143 42 -258 81 -258 222c0 126 103 209 253 209c146 0 232 -72 277 -159l-91 -63
c-44 74 -107 108 -187 108c-82 0 -129 -30 -129 -84c0 -69 53 -92 174 -128c140 -41 252 -87 252 -226c0 -121 -103 -216 -279 -216z" />
    <glyph glyph-name="Scaron.sc" horiz-adv-x="588" 
d="M251 645l-129 166h72l100 -84l100 84h71l-129 -166h-85zM303 -13c-112 0 -212 46 -261 143l92 57c29 -70 98 -106 169 -106c78 0 120 26 120 76c0 61 -47 73 -132 94c-122 27 -227 56 -227 187c0 101 88 165 216 165s206 -53 245 -121l-83 -60c-30 56 -93 87 -158 87
c-67 0 -103 -23 -103 -68c0 -65 60 -75 156 -98c97 -22 205 -51 205 -180c0 -115 -103 -176 -239 -176z" />
    <glyph glyph-name="Scedilla" unicode="&#x15e;" horiz-adv-x="674" 
d="M344 -199c-53 0 -103 14 -138 37l25 40c30 -20 68 -30 102 -30c40 0 60 14 60 39c0 21 -14 31 -36 31c-18 0 -32 -7 -46 -18l-35 17l22 72c-123 14 -211 85 -253 185l99 52c44 -87 112 -129 204 -129c90 0 151 29 151 96c0 64 -46 94 -168 130c-143 42 -258 81 -258 222
c0 126 103 209 253 209c146 0 232 -72 277 -159l-91 -63c-44 74 -107 108 -187 108c-82 0 -129 -30 -129 -84c0 -69 53 -92 174 -128c140 -41 252 -87 252 -226c0 -118 -99 -212 -268 -216l-10 -35c14 9 34 15 61 15c37 0 71 -24 71 -69c0 -63 -59 -96 -132 -96z" />
    <glyph glyph-name="Scedilla.sc" horiz-adv-x="588" 
d="M301 -199c-53 0 -103 14 -138 37l25 40c30 -20 68 -30 102 -30c40 0 60 14 60 39c0 21 -14 31 -36 31c-18 0 -32 -7 -46 -18l-35 17l22 73c-92 11 -171 57 -213 140l92 57c29 -70 98 -106 169 -106c78 0 120 26 120 76c0 61 -47 73 -132 94c-122 27 -227 56 -227 187
c0 101 88 165 216 165s206 -53 245 -121l-83 -60c-30 56 -93 87 -158 87c-67 0 -103 -23 -103 -68c0 -65 60 -75 156 -98c97 -22 205 -51 205 -180c0 -113 -99 -173 -231 -176l-10 -36c14 9 34 15 61 15c37 0 71 -24 71 -69c0 -63 -59 -96 -132 -96z" />
    <glyph glyph-name="Scircumflex" unicode="&#x15c;" horiz-adv-x="674" 
d="M160 784l129 166h85l129 -166h-72l-100 84l-100 -84h-71zM343 -14c-147 0 -251 76 -298 188l99 52c44 -87 112 -129 204 -129c90 0 151 29 151 96c0 64 -46 94 -168 130c-143 42 -258 81 -258 222c0 126 103 209 253 209c146 0 232 -72 277 -159l-91 -63
c-44 74 -107 108 -187 108c-82 0 -129 -30 -129 -84c0 -69 53 -92 174 -128c140 -41 252 -87 252 -226c0 -121 -103 -216 -279 -216z" />
    <glyph glyph-name="Scircumflex.sc" horiz-adv-x="588" 
d="M116 642l129 166h85l129 -166h-72l-100 84l-100 -84h-71zM303 -13c-112 0 -212 46 -261 143l92 57c29 -70 98 -106 169 -106c78 0 120 26 120 76c0 61 -47 73 -132 94c-122 27 -227 56 -227 187c0 101 88 165 216 165s206 -53 245 -121l-83 -60c-30 56 -93 87 -158 87
c-67 0 -103 -23 -103 -68c0 -65 60 -75 156 -98c97 -22 205 -51 205 -180c0 -115 -103 -176 -239 -176z" />
    <glyph glyph-name="Scommaaccent" unicode="&#x218;" horiz-adv-x="674" 
d="M343 -14c-147 0 -251 76 -298 188l99 52c44 -87 112 -129 204 -129c90 0 151 29 151 96c0 64 -46 94 -168 130c-143 42 -258 81 -258 222c0 126 103 209 253 209c146 0 232 -72 277 -159l-91 -63c-44 74 -107 108 -187 108c-82 0 -129 -30 -129 -84
c0 -69 53 -92 174 -128c140 -41 252 -87 252 -226c0 -121 -103 -216 -279 -216zM292 -271l32 106h-48v120h123v-105l-55 -121h-52z" />
    <glyph glyph-name="Scommaaccent.sc" horiz-adv-x="588" 
d="M303 -13c-112 0 -212 46 -261 143l92 57c29 -70 98 -106 169 -106c78 0 120 26 120 76c0 61 -47 73 -132 94c-122 27 -227 56 -227 187c0 101 88 165 216 165s206 -53 245 -121l-83 -60c-30 56 -93 87 -158 87c-67 0 -103 -23 -103 -68c0 -65 60 -75 156 -98
c97 -22 205 -51 205 -180c0 -115 -103 -176 -239 -176zM249 -271l32 106h-48v120h123v-105l-55 -121h-52z" />
    <glyph glyph-name="T" unicode="T" horiz-adv-x="635" 
d="M380 0h-125v624h-228v116h581v-116h-228v-624z" />
    <glyph glyph-name="T.sc" horiz-adv-x="553" 
d="M337 0h-121v494h-190v98h501v-98h-190v-494z" />
    <glyph glyph-name="Tbar" unicode="&#x166;" horiz-adv-x="635" 
d="M608 304h-228v-304h-125v304h-228v96h228v224h-228v116h581v-116h-228v-224h228v-96z" />
    <glyph glyph-name="Tbar.sc" horiz-adv-x="553" 
d="M527 227h-190v-227h-121v227h-190v81h190v186h-190v98h501v-98h-190v-186h190v-81z" />
    <glyph glyph-name="Tcaron" unicode="&#x164;" horiz-adv-x="635" 
d="M275 787l-129 166h72l100 -84l100 84h71l-129 -166h-85zM380 0h-125v624h-228v116h581v-116h-228v-624z" />
    <glyph glyph-name="Tcaron.sc" horiz-adv-x="553" 
d="M233 645l-129 166h72l100 -84l100 84h71l-129 -166h-85zM337 0h-121v494h-190v98h501v-98h-190v-494z" />
    <glyph glyph-name="Tcommaaccent" unicode="&#x21a;" horiz-adv-x="635" 
d="M380 0h-125v624h-228v116h581v-116h-228v-624zM273 -271l32 106h-48v120h123v-105l-55 -121h-52z" />
    <glyph glyph-name="Tcommaaccent.sc" horiz-adv-x="553" 
d="M337 0h-121v494h-190v98h501v-98h-190v-494zM231 -271l32 106h-48v120h123v-105l-55 -121h-52z" />
    <glyph glyph-name="Thorn" unicode="&#xde;" horiz-adv-x="665" 
d="M209 0h-125v740h125v-123h132c159 -1 287 -59 287 -230c0 -179 -140 -235 -291 -235h-128v-152zM209 500v-236h132c110 0 160 34 160 119c0 82 -50 117 -161 117h-131z" />
    <glyph glyph-name="Thorn.sc" horiz-adv-x="583" 
d="M192 0h-119v592h119v-96h109c134 0 248 -38 248 -184c0 -151 -124 -187 -251 -187h-106v-125zM192 405v-195h111c90 0 129 37 129 98c0 60 -39 97 -130 97h-110z" />
    <glyph glyph-name="U" unicode="U" horiz-adv-x="721" 
d="M361 -12c-204 0 -287 114 -287 282v470h125v-459c0 -113 49 -180 163 -180c113 0 162 65 162 179v460h123v-469c0 -168 -95 -283 -286 -283z" />
    <glyph glyph-name="U.sc" horiz-adv-x="621" 
d="M311 -10c-168 0 -248 92 -248 232v370h121v-367c0 -87 36 -138 129 -138c91 0 126 50 126 138v367h120v-369c0 -140 -79 -233 -248 -233z" />
    <glyph glyph-name="Uacute" unicode="&#xda;" horiz-adv-x="721" 
d="M288 784l94 166h132l-145 -166h-81zM361 -12c-204 0 -287 114 -287 282v470h125v-459c0 -113 49 -180 163 -180c113 0 162 65 162 179v460h123v-469c0 -168 -95 -283 -286 -283z" />
    <glyph glyph-name="Uacute.sc" horiz-adv-x="621" 
d="M227 642l94 166h132l-145 -166h-81zM311 -10c-168 0 -248 92 -248 232v370h121v-367c0 -87 36 -138 129 -138c91 0 126 50 126 138v367h120v-369c0 -140 -79 -233 -248 -233z" />
    <glyph glyph-name="Ubreve" unicode="&#x16c;" horiz-adv-x="721" 
d="M361 776c-103 0 -161 74 -166 177h69c9 -75 50 -95 97 -95s89 20 98 95h68c-5 -103 -63 -177 -166 -177zM361 -12c-204 0 -287 114 -287 282v470h125v-459c0 -113 49 -180 163 -180c113 0 162 65 162 179v460h123v-469c0 -168 -95 -283 -286 -283z" />
    <glyph glyph-name="Ubreve.sc" horiz-adv-x="621" 
d="M310 634c-103 0 -161 74 -166 177h69c9 -75 50 -95 97 -95s89 20 98 95h68c-5 -103 -63 -177 -166 -177zM311 -10c-168 0 -248 92 -248 232v370h121v-367c0 -87 36 -138 129 -138c91 0 126 50 126 138v367h120v-369c0 -140 -79 -233 -248 -233z" />
    <glyph glyph-name="Ucircumflex" unicode="&#xdb;" horiz-adv-x="721" 
d="M188 784l129 166h85l129 -166h-72l-100 84l-100 -84h-71zM361 -12c-204 0 -287 114 -287 282v470h125v-459c0 -113 49 -180 163 -180c113 0 162 65 162 179v460h123v-469c0 -168 -95 -283 -286 -283z" />
    <glyph glyph-name="Ucircumflex.sc" horiz-adv-x="621" 
d="M138 642l129 166h85l129 -166h-72l-100 84l-100 -84h-71zM311 -10c-168 0 -248 92 -248 232v370h121v-367c0 -87 36 -138 129 -138c91 0 126 50 126 138v367h120v-369c0 -140 -79 -233 -248 -233z" />
    <glyph glyph-name="Udieresis" unicode="&#xdc;" horiz-adv-x="721" 
d="M402 781v121h112v-121h-112zM204 781v121h112v-121h-112zM361 -12c-204 0 -287 114 -287 282v470h125v-459c0 -113 49 -180 163 -180c113 0 162 65 162 179v460h123v-469c0 -168 -95 -283 -286 -283z" />
    <glyph glyph-name="Udieresis.sc" horiz-adv-x="621" 
d="M352 639v121h112v-121h-112zM154 639v121h112v-121h-112zM311 -10c-168 0 -248 92 -248 232v370h121v-367c0 -87 36 -138 129 -138c91 0 126 50 126 138v367h120v-369c0 -140 -79 -233 -248 -233z" />
    <glyph glyph-name="Ugrave" unicode="&#xd9;" horiz-adv-x="721" 
d="M344 784l-146 166h133l94 -166h-81zM361 -12c-204 0 -287 114 -287 282v470h125v-459c0 -113 49 -180 163 -180c113 0 162 65 162 179v460h123v-469c0 -168 -95 -283 -286 -283z" />
    <glyph glyph-name="Ugrave.sc" horiz-adv-x="621" 
d="M298 642l-146 166h133l94 -166h-81zM311 -10c-168 0 -248 92 -248 232v370h121v-367c0 -87 36 -138 129 -138c91 0 126 50 126 138v367h120v-369c0 -140 -79 -233 -248 -233z" />
    <glyph glyph-name="Uhungarumlaut" unicode="&#x170;" horiz-adv-x="721" 
d="M383 784l105 166h134l-157 -166h-82zM204 784l100 166h134l-152 -166h-82zM361 -12c-204 0 -287 114 -287 282v470h125v-459c0 -113 49 -180 163 -180c113 0 162 65 162 179v460h123v-469c0 -168 -95 -283 -286 -283z" />
    <glyph glyph-name="Uhungarumlaut.sc" horiz-adv-x="621" 
d="M333 642l105 166h134l-157 -166h-82zM154 642l100 166h134l-152 -166h-82zM311 -10c-168 0 -248 92 -248 232v370h121v-367c0 -87 36 -138 129 -138c91 0 126 50 126 138v367h120v-369c0 -140 -79 -233 -248 -233z" />
    <glyph glyph-name="Umacron" unicode="&#x16a;" horiz-adv-x="721" 
d="M204 781v91h312v-91h-312zM361 -12c-204 0 -287 114 -287 282v470h125v-459c0 -113 49 -180 163 -180c113 0 162 65 162 179v460h123v-469c0 -168 -95 -283 -286 -283z" />
    <glyph glyph-name="Umacron.sc" horiz-adv-x="621" 
d="M154 639v91h312v-91h-312zM311 -10c-168 0 -248 92 -248 232v370h121v-367c0 -87 36 -138 129 -138c91 0 126 50 126 138v367h120v-369c0 -140 -79 -233 -248 -233z" />
    <glyph glyph-name="Uogonek" unicode="&#x172;" horiz-adv-x="721" 
d="M375 -187c-67 0 -104 29 -104 77c0 34 27 70 64 99c-185 9 -261 120 -261 281v470h125v-459c0 -113 49 -180 163 -180c113 0 162 65 162 179v460h123v-469c0 -154 -80 -263 -239 -281c-34 -27 -50 -54 -50 -81c0 -23 11 -42 48 -42s63 12 88 24l25 -39
c-41 -24 -88 -39 -144 -39z" />
    <glyph glyph-name="Uogonek.sc" horiz-adv-x="621" 
d="M316 -187c-67 0 -104 29 -104 77c0 35 28 72 67 101c-146 11 -216 100 -216 231v370h121v-367c0 -87 36 -138 129 -138c91 0 126 50 126 138v367h120v-369c0 -129 -67 -218 -209 -231c-35 -28 -51 -56 -51 -83c0 -23 11 -42 48 -42s63 12 88 24l25 -39
c-41 -24 -88 -39 -144 -39z" />
    <glyph glyph-name="Uring" unicode="&#x16e;" horiz-adv-x="721" 
d="M360 776c-58 0 -102 44 -102 102s44 101 102 101c59 0 102 -43 102 -101s-43 -102 -102 -102zM360 827c29 0 49 21 49 51c0 29 -20 51 -49 51c-28 0 -49 -22 -49 -51c0 -30 21 -51 49 -51zM361 -12c-204 0 -287 114 -287 282v470h125v-459c0 -113 49 -180 163 -180
c113 0 162 65 162 179v460h123v-469c0 -168 -95 -283 -286 -283z" />
    <glyph glyph-name="Uring.sc" horiz-adv-x="621" 
d="M310 634c-58 0 -102 44 -102 102s44 101 102 101c59 0 102 -43 102 -101s-43 -102 -102 -102zM310 685c29 0 49 21 49 51c0 29 -20 51 -49 51c-28 0 -49 -22 -49 -51c0 -30 21 -51 49 -51zM311 -10c-168 0 -248 92 -248 232v370h121v-367c0 -87 36 -138 129 -138
c91 0 126 50 126 138v367h120v-369c0 -140 -79 -233 -248 -233z" />
    <glyph glyph-name="Utilde" unicode="&#x168;" horiz-adv-x="721" 
d="M436 777c-66 0 -103 56 -145 56c-28 0 -41 -15 -41 -54h-69c0 98 39 139 104 139c66 0 103 -56 146 -56c27 0 41 15 41 54h69c0 -97 -40 -139 -105 -139zM361 -12c-204 0 -287 114 -287 282v470h125v-459c0 -113 49 -180 163 -180c113 0 162 65 162 179v460h123v-469
c0 -168 -95 -283 -286 -283z" />
    <glyph glyph-name="Utilde.sc" horiz-adv-x="621" 
d="M386 635c-66 0 -103 56 -145 56c-28 0 -41 -15 -41 -54h-69c0 98 39 139 104 139c66 0 103 -56 146 -56c27 0 41 15 41 54h69c0 -97 -40 -139 -105 -139zM311 -10c-168 0 -248 92 -248 232v370h121v-367c0 -87 36 -138 129 -138c91 0 126 50 126 138v367h120v-369
c0 -140 -79 -233 -248 -233z" />
    <glyph glyph-name="V" unicode="V" horiz-adv-x="682" 
d="M400 -3h-118l-257 743h127l191 -577h2l194 577h118z" />
    <glyph glyph-name="V.sc" horiz-adv-x="594" 
d="M354 -2h-115l-216 594h123l116 -334l36 -110h2l38 110l119 334h114z" />
    <glyph glyph-name="W" unicode="W" horiz-adv-x="944" 
d="M336 0h-110l-197 740h126l94 -383c15 -59 29 -114 39 -172h2c10 57 23 112 38 171l89 384h120l92 -386c16 -63 28 -107 39 -169h2c11 64 22 103 36 166l92 389h117l-195 -740h-109l-133 567h-2z" />
    <glyph glyph-name="W.sc" horiz-adv-x="811" 
d="M299 0h-104l-169 592h122l74 -287c12 -45 22 -85 32 -133h2c9 46 19 88 29 132l69 288h114l72 -289c12 -48 21 -80 30 -131h2c10 51 18 80 29 129l73 291h112l-165 -592h-104l-105 431h-2z" />
    <glyph glyph-name="Wacute" unicode="&#x1e82;" horiz-adv-x="944" 
d="M404 784l94 166h132l-145 -166h-81zM336 0h-110l-197 740h126l94 -383c15 -59 29 -114 39 -172h2c10 57 23 112 38 171l89 384h120l92 -386c16 -63 28 -107 39 -169h2c11 64 22 103 36 166l92 389h117l-195 -740h-109l-133 567h-2z" />
    <glyph glyph-name="Wacute.sc" horiz-adv-x="811" 
d="M371 642l94 166h132l-145 -166h-81zM299 0h-104l-169 592h122l74 -287c12 -45 22 -85 32 -133h2c9 46 19 88 29 132l69 288h114l72 -289c12 -48 21 -80 30 -131h2c10 51 18 80 29 129l73 291h112l-165 -592h-104l-105 431h-2z" />
    <glyph glyph-name="Wcircumflex" unicode="&#x174;" horiz-adv-x="944" 
d="M300 784l129 166h85l129 -166h-72l-100 84l-100 -84h-71zM336 0h-110l-197 740h126l94 -383c15 -59 29 -114 39 -172h2c10 57 23 112 38 171l89 384h120l92 -386c16 -63 28 -107 39 -169h2c11 64 22 103 36 166l92 389h117l-195 -740h-109l-133 567h-2z" />
    <glyph glyph-name="Wcircumflex.sc" horiz-adv-x="811" 
d="M234 642l129 166h85l129 -166h-72l-100 84l-100 -84h-71zM299 0h-104l-169 592h122l74 -287c12 -45 22 -85 32 -133h2c9 46 19 88 29 132l69 288h114l72 -289c12 -48 21 -80 30 -131h2c10 51 18 80 29 129l73 291h112l-165 -592h-104l-105 431h-2z" />
    <glyph glyph-name="Wdieresis" unicode="&#x1e84;" horiz-adv-x="944" 
d="M513 781v121h112v-121h-112zM315 781v121h112v-121h-112zM336 0h-110l-197 740h126l94 -383c15 -59 29 -114 39 -172h2c10 57 23 112 38 171l89 384h120l92 -386c16 -63 28 -107 39 -169h2c11 64 22 103 36 166l92 389h117l-195 -740h-109l-133 567h-2z" />
    <glyph glyph-name="Wdieresis.sc" horiz-adv-x="811" 
d="M447 639v121h112v-121h-112zM249 639v121h112v-121h-112zM299 0h-104l-169 592h122l74 -287c12 -45 22 -85 32 -133h2c9 46 19 88 29 132l69 288h114l72 -289c12 -48 21 -80 30 -131h2c10 51 18 80 29 129l73 291h112l-165 -592h-104l-105 431h-2z" />
    <glyph glyph-name="Wgrave" unicode="&#x1e80;" horiz-adv-x="944" 
d="M465 784l-146 166h133l94 -166h-81zM336 0h-110l-197 740h126l94 -383c15 -59 29 -114 39 -172h2c10 57 23 112 38 171l89 384h120l92 -386c16 -63 28 -107 39 -169h2c11 64 22 103 36 166l92 389h117l-195 -740h-109l-133 567h-2z" />
    <glyph glyph-name="Wgrave.sc" horiz-adv-x="811" 
d="M368 642l-146 166h133l94 -166h-81zM299 0h-104l-169 592h122l74 -287c12 -45 22 -85 32 -133h2c9 46 19 88 29 132l69 288h114l72 -289c12 -48 21 -80 30 -131h2c10 51 18 80 29 129l73 291h112l-165 -592h-104l-105 431h-2z" />
    <glyph glyph-name="X" unicode="X" horiz-adv-x="697" 
d="M163 0h-131l246 393l-220 347h143l154 -248l149 248h130l-216 -347l247 -393h-138l-183 293z" />
    <glyph glyph-name="X.sc" horiz-adv-x="591" 
d="M148 0h-126l204 314l-185 278h135l127 -194l121 194h123l-181 -281l204 -311h-132l-146 225z" />
    <glyph glyph-name="Y" unicode="Y" horiz-adv-x="661" 
d="M393 0h-126v319l-252 421h132l185 -315l184 315h130l-253 -421v-319z" />
    <glyph glyph-name="Y.sc" horiz-adv-x="583" 
d="M230 0v253l-215 339h129l151 -244l150 244h122l-215 -339v-253h-122z" />
    <glyph glyph-name="Yacute" unicode="&#xdd;" horiz-adv-x="661" 
d="M242 789l94 166h132l-145 -166h-81zM393 0h-126v319l-252 421h132l185 -315l184 315h130l-253 -421v-319z" />
    <glyph glyph-name="Yacute.sc" horiz-adv-x="583" 
d="M223 642l94 166h132l-145 -166h-81zM230 0v253l-215 339h129l151 -244l150 244h122l-215 -339v-253h-122z" />
    <glyph glyph-name="Ycircumflex" unicode="&#x176;" horiz-adv-x="661" 
d="M158 784l129 166h85l129 -166h-72l-100 84l-100 -84h-71zM393 0h-126v319l-252 421h132l185 -315l184 315h130l-253 -421v-319z" />
    <glyph glyph-name="Ycircumflex.sc" horiz-adv-x="583" 
d="M119 642l129 166h85l129 -166h-72l-100 84l-100 -84h-71zM230 0v253l-215 339h129l151 -244l150 244h122l-215 -339v-253h-122z" />
    <glyph glyph-name="Ydieresis" unicode="&#x178;" horiz-adv-x="661" 
d="M373 781v121h112v-121h-112zM175 781v121h112v-121h-112zM393 0h-126v319l-252 421h132l185 -315l184 315h130l-253 -421v-319z" />
    <glyph glyph-name="Ydieresis.sc" horiz-adv-x="583" 
d="M333 639v121h112v-121h-112zM135 639v121h112v-121h-112zM230 0v253l-215 339h129l151 -244l150 244h122l-215 -339v-253h-122z" />
    <glyph glyph-name="Ygrave" unicode="&#x1ef2;" horiz-adv-x="661" 
d="M318 784l-146 166h133l94 -166h-81zM393 0h-126v319l-252 421h132l185 -315l184 315h130l-253 -421v-319z" />
    <glyph glyph-name="Ygrave.sc" horiz-adv-x="583" 
d="M280 642l-146 166h133l94 -166h-81zM230 0v253l-215 339h129l151 -244l150 244h122l-215 -339v-253h-122z" />
    <glyph glyph-name="Z" unicode="Z" horiz-adv-x="645" 
d="M601 0h-566v87l409 548h-382v105h539v-90l-404 -548h404v-102z" />
    <glyph glyph-name="Z.sc" horiz-adv-x="563" 
d="M523 0h-491v83l338 411h-315v98h468v-85l-333 -411h333v-96z" />
    <glyph glyph-name="Zacute" unicode="&#x179;" horiz-adv-x="645" 
d="M242 784l94 166h132l-145 -166h-81zM601 0h-566v87l409 548h-382v105h539v-90l-404 -548h404v-102z" />
    <glyph glyph-name="Zacute.sc" horiz-adv-x="563" 
d="M213 642l94 166h132l-145 -166h-81zM523 0h-491v83l338 411h-315v98h468v-85l-333 -411h333v-96z" />
    <glyph glyph-name="Zcaron" unicode="&#x17d;" horiz-adv-x="645" 
d="M284 792l-129 166h72l100 -84l100 84h71l-129 -166h-85zM601 0h-566v87l409 548h-382v105h539v-90l-404 -548h404v-102z" />
    <glyph glyph-name="Zcaron.sc" horiz-adv-x="563" 
d="M238 645l-129 166h72l100 -84l100 84h71l-129 -166h-85zM523 0h-491v83l338 411h-315v98h468v-85l-333 -411h333v-96z" />
    <glyph glyph-name="Zdotaccent" unicode="&#x17b;" horiz-adv-x="645" 
d="M256 792v111h132v-111h-132zM601 0h-566v87l409 548h-382v105h539v-90l-404 -548h404v-102z" />
    <glyph glyph-name="Zdotaccent.sc" horiz-adv-x="563" 
d="M215 650v111h132v-111h-132zM523 0h-491v83l338 411h-315v98h468v-85l-333 -411h333v-96z" />
    <glyph glyph-name="a" unicode="a" horiz-adv-x="565" 
d="M230 87c63 0 112 24 151 61v117c-147 -20 -225 -56 -225 -114c0 -42 29 -64 74 -64zM185 -8c-86 0 -150 48 -150 136c0 115 98 192 346 220v16c0 53 -28 76 -87 76c-74 0 -134 -36 -179 -72l-60 77c57 52 146 96 256 96c142 0 191 -68 191 -192v-219
c0 -64 4 -103 15 -130h-124c-7 22 -12 38 -12 68c-54 -55 -117 -76 -196 -76z" />
    <glyph glyph-name="aacute" unicode="&#xe1;" horiz-adv-x="565" 
d="M223 587l94 166h132l-145 -166h-81zM230 87c63 0 112 24 151 61v117c-147 -20 -225 -56 -225 -114c0 -42 29 -64 74 -64zM185 -8c-86 0 -150 48 -150 136c0 115 98 192 346 220v16c0 53 -28 76 -87 76c-74 0 -134 -36 -179 -72l-60 77c57 52 146 96 256 96
c142 0 191 -68 191 -192v-219c0 -64 4 -103 15 -130h-124c-7 22 -12 38 -12 68c-54 -55 -117 -76 -196 -76z" />
    <glyph glyph-name="abreve" unicode="&#x103;" horiz-adv-x="565" 
d="M282 579c-103 0 -161 74 -166 177h69c9 -75 50 -95 97 -95s89 20 98 95h68c-5 -103 -63 -177 -166 -177zM230 87c63 0 112 24 151 61v117c-147 -20 -225 -56 -225 -114c0 -42 29 -64 74 -64zM185 -8c-86 0 -150 48 -150 136c0 115 98 192 346 220v16c0 53 -28 76 -87 76
c-74 0 -134 -36 -179 -72l-60 77c57 52 146 96 256 96c142 0 191 -68 191 -192v-219c0 -64 4 -103 15 -130h-124c-7 22 -12 38 -12 68c-54 -55 -117 -76 -196 -76z" />
    <glyph glyph-name="acircumflex" unicode="&#xe2;" horiz-adv-x="565" 
d="M114 587l129 166h85l129 -166h-72l-100 84l-100 -84h-71zM230 87c63 0 112 24 151 61v117c-147 -20 -225 -56 -225 -114c0 -42 29 -64 74 -64zM185 -8c-86 0 -150 48 -150 136c0 115 98 192 346 220v16c0 53 -28 76 -87 76c-74 0 -134 -36 -179 -72l-60 77
c57 52 146 96 256 96c142 0 191 -68 191 -192v-219c0 -64 4 -103 15 -130h-124c-7 22 -12 38 -12 68c-54 -55 -117 -76 -196 -76z" />
    <glyph glyph-name="acute" unicode="&#xb4;" horiz-adv-x="500" 
d="M157 587l94 166h132l-145 -166h-81z" />
    <glyph glyph-name="adieresis" unicode="&#xe4;" horiz-adv-x="565" 
d="M331 584v121h112v-121h-112zM133 584v121h112v-121h-112zM230 87c63 0 112 24 151 61v117c-147 -20 -225 -56 -225 -114c0 -42 29 -64 74 -64zM185 -8c-86 0 -150 48 -150 136c0 115 98 192 346 220v16c0 53 -28 76 -87 76c-74 0 -134 -36 -179 -72l-60 77
c57 52 146 96 256 96c142 0 191 -68 191 -192v-219c0 -64 4 -103 15 -130h-124c-7 22 -12 38 -12 68c-54 -55 -117 -76 -196 -76z" />
    <glyph glyph-name="ae" unicode="&#xe6;" horiz-adv-x="895" 
d="M185 -11c-87 0 -150 48 -150 136c0 115 98 195 346 223v16c0 53 -28 76 -87 76c-74 0 -134 -36 -179 -72l-60 77c57 52 146 96 256 96c93 0 130 -34 150 -83c31 47 97 83 162 83c118 0 233 -71 233 -287v-24h-363c5 -101 64 -143 142 -143c69 0 109 23 149 62l65 -64
c-56 -61 -128 -96 -224 -96c-86 0 -162 30 -207 108c-69 -75 -130 -108 -233 -108zM495 317h248c-7 81 -47 124 -121 124c-60 0 -115 -34 -127 -124zM229 84c61 0 113 24 163 76c-7 22 -10 49 -11 79v29c-147 -20 -225 -62 -225 -120c0 -42 28 -64 73 -64z" />
    <glyph glyph-name="agrave" unicode="&#xe0;" horiz-adv-x="565" 
d="M273 587l-146 166h133l94 -166h-81zM230 87c63 0 112 24 151 61v117c-147 -20 -225 -56 -225 -114c0 -42 29 -64 74 -64zM185 -8c-86 0 -150 48 -150 136c0 115 98 192 346 220v16c0 53 -28 76 -87 76c-74 0 -134 -36 -179 -72l-60 77c57 52 146 96 256 96
c142 0 191 -68 191 -192v-219c0 -64 4 -103 15 -130h-124c-7 22 -12 38 -12 68c-54 -55 -117 -76 -196 -76z" />
    <glyph glyph-name="amacron" unicode="&#x101;" horiz-adv-x="565" 
d="M126 584v91h312v-91h-312zM230 87c63 0 112 24 151 61v117c-147 -20 -225 -56 -225 -114c0 -42 29 -64 74 -64zM185 -8c-86 0 -150 48 -150 136c0 115 98 192 346 220v16c0 53 -28 76 -87 76c-74 0 -134 -36 -179 -72l-60 77c57 52 146 96 256 96c142 0 191 -68 191 -192
v-219c0 -64 4 -103 15 -130h-124c-7 22 -12 38 -12 68c-54 -55 -117 -76 -196 -76z" />
    <glyph glyph-name="ampersand" unicode="&#x26;" horiz-adv-x="734" 
d="M301 454c63 35 113 71 113 136c0 37 -25 69 -69 69c-49 0 -81 -24 -81 -80c0 -41 12 -80 37 -125zM293 86c49 0 90 8 128 33c-36 34 -73 77 -117 132c-23 29 -43 55 -61 81c-55 -35 -92 -79 -92 -133c0 -77 53 -113 142 -113zM282 -14c-162 0 -256 83 -256 197
c0 115 79 177 171 223c-31 57 -48 111 -48 166c0 94 62 182 194 182c122 0 177 -73 177 -154c0 -107 -82 -166 -177 -214c15 -22 33 -46 54 -72c37 -47 70 -85 100 -115c31 47 51 108 60 177h109c-12 -86 -40 -170 -86 -237c48 -32 93 -46 142 -46v-103
c-87 2 -153 20 -219 65c-56 -43 -125 -69 -221 -69z" />
    <glyph glyph-name="ampersand.sc" horiz-adv-x="633" 
d="M235 458c0 -26 6 -54 25 -89c49 26 90 53 90 100c0 31 -12 59 -51 59c-41 0 -64 -26 -64 -70zM254 73c31 0 65 9 94 29c-21 19 -45 44 -73 77c-27 28 -50 57 -69 85c-42 -25 -76 -54 -76 -100c0 -60 49 -91 124 -91zM482 302h98c-12 -76 -37 -138 -72 -186
c37 -23 69 -31 105 -33v-91c-64 -3 -121 11 -182 49c-50 -34 -111 -52 -178 -52c-160 0 -231 66 -231 162s70 143 145 180c-24 46 -36 88 -36 127c0 75 48 149 167 149c99 0 146 -53 146 -129c0 -91 -72 -135 -147 -171c14 -21 33 -43 55 -66c29 -33 54 -59 77 -79
c27 37 47 83 53 140z" />
    <glyph glyph-name="aogonek" unicode="&#x105;" horiz-adv-x="565" 
d="M230 87c63 0 112 24 151 61v117c-147 -20 -225 -56 -225 -114c0 -42 29 -64 74 -64zM558 -148c-41 -24 -88 -39 -144 -39c-67 0 -104 29 -104 77c0 40 36 81 82 112c-6 21 -11 37 -11 66c-54 -55 -117 -76 -196 -76c-86 0 -150 48 -150 136c0 115 98 192 346 220v16
c0 53 -28 76 -87 76c-74 0 -134 -36 -179 -72l-60 77c57 52 146 96 256 96c142 0 191 -68 191 -192v-219c0 -64 4 -103 15 -130h-58c-42 -31 -62 -61 -62 -91c0 -23 11 -42 48 -42s63 12 88 24z" />
    <glyph glyph-name="apple" unicode="&#xf8ff;" horiz-adv-x="760" 
d="M514 505l-89 6v-97h96zM239 414h96v97l-90 -6zM521 324h-96v-95l90 6zM239 324l6 -89l90 -6v95h-96zM159 128l2 23l-22 -2v94l29 -2l6 83l-164 -20v130l164 -20l-7 85l-28 -2v94l21 -2l-1 21h94l-2 -28l84 -6l-20 164h130l-20 -164l84 6l-2 28h94l-2 -21l22 2v-94l-29 2
l-6 -85l164 20v-130l-164 20l6 -83l29 2v-94l-22 2l2 -23h-94l2 30l-84 6l20 -164h-130l20 164l-84 -6l2 -30h-94z" />
    <glyph glyph-name="approxequal" unicode="&#x2248;" horiz-adv-x="642" 
d="M449 343c-78 2 -201 76 -249 78c-26 1 -44 -8 -49 -46l-74 12c10 96 57 134 122 132c82 -3 202 -77 250 -79c27 -1 45 9 49 46l75 -9c-11 -96 -59 -137 -124 -134zM441 120c-78 2 -202 76 -250 78c-27 1 -45 -8 -49 -46l-74 12c11 96 58 134 122 132
c82 -2 202 -77 250 -79c26 -1 45 9 49 46l75 -9c-11 -96 -58 -136 -123 -134z" />
    <glyph glyph-name="aring" unicode="&#xe5;" horiz-adv-x="565" 
d="M290 579c-58 0 -102 44 -102 102s44 101 102 101c59 0 102 -43 102 -101s-43 -102 -102 -102zM290 630c29 0 49 21 49 51c0 29 -20 51 -49 51c-28 0 -49 -22 -49 -51c0 -30 21 -51 49 -51zM230 87c63 0 112 24 151 61v117c-147 -20 -225 -56 -225 -114
c0 -42 29 -64 74 -64zM185 -8c-86 0 -150 48 -150 136c0 115 98 192 346 220v16c0 53 -28 76 -87 76c-74 0 -134 -36 -179 -72l-60 77c57 52 146 96 256 96c142 0 191 -68 191 -192v-219c0 -64 4 -103 15 -130h-124c-7 22 -12 38 -12 68c-54 -55 -117 -76 -196 -76z" />
    <glyph glyph-name="asciicircum" unicode="^" horiz-adv-x="642" 
d="M57 331l230 409h72l230 -409h-104l-162 284l-162 -284h-104z" />
    <glyph glyph-name="asciitilde" unicode="~" horiz-adv-x="642" 
d="M456 262c-78 2 -221 66 -270 68c-26 2 -44 -8 -48 -45l-75 11c11 96 58 134 123 132c81 -2 221 -67 270 -69c26 -1 45 9 49 47l74 -9c-11 -97 -58 -137 -123 -135z" />
    <glyph glyph-name="asterisk" unicode="*" horiz-adv-x="508" 
d="M254 479l-74 -156l-71 41l98 142l-172 -12v78l173 -12l-99 142l71 42l74 -157l74 157l71 -42l-98 -142l172 12v-78l-172 12l98 -142l-70 -41z" />
    <glyph glyph-name="asterisk.tab" 
d="M251 323l-70 42l98 141l-173 -12v78l173 -12l-98 142l70 42l74 -157l75 157l70 -42l-98 -142l172 12v-78l-172 12l98 -141l-70 -42l-75 156z" />
    <glyph glyph-name="at" unicode="@" horiz-adv-x="868" 
d="M428 -14c-231 0 -383 159 -383 383s161 385 390 385s388 -155 388 -374c0 -137 -71 -226 -185 -226c-73 0 -113 26 -128 75c-41 -41 -90 -66 -160 -66c-83 0 -140 53 -140 156c0 159 87 269 199 269c61 0 95 -23 121 -52l7 44h96l-47 -297c-7 -45 14 -73 65 -73
c64 0 113 57 113 167c0 189 -134 320 -329 320c-196 0 -328 -136 -328 -328c0 -193 129 -330 324 -330c77 0 138 17 195 52l27 -43c-60 -39 -139 -62 -225 -62zM385 238c38 0 73 17 106 49l28 177c-27 31 -54 44 -94 44c-74 0 -118 -86 -118 -179c0 -62 25 -91 78 -91z" />
    <glyph glyph-name="atilde" unicode="&#xe3;" horiz-adv-x="565" 
d="M360 580c-66 0 -103 56 -145 56c-28 0 -41 -15 -41 -54h-69c0 98 39 139 104 139c66 0 103 -56 146 -56c27 0 41 15 41 54h69c0 -97 -40 -139 -105 -139zM230 87c63 0 112 24 151 61v117c-147 -20 -225 -56 -225 -114c0 -42 29 -64 74 -64zM185 -8
c-86 0 -150 48 -150 136c0 115 98 192 346 220v16c0 53 -28 76 -87 76c-74 0 -134 -36 -179 -72l-60 77c57 52 146 96 256 96c142 0 191 -68 191 -192v-219c0 -64 4 -103 15 -130h-124c-7 22 -12 38 -12 68c-54 -55 -117 -76 -196 -76z" />
    <glyph glyph-name="b" unicode="b" horiz-adv-x="611" 
d="M344 -8c-57 0 -113 23 -152 67v-59h-123v740h123v-279c35 42 90 80 169 80c121 0 210 -91 210 -275s-91 -274 -227 -274zM317 90c93 0 131 57 131 175c0 112 -48 171 -127 171c-51 0 -100 -32 -129 -67v-213c33 -43 81 -66 125 -66z" />
    <glyph glyph-name="backslash" unicode="\" horiz-adv-x="583" 
d="M570 0h-127l-430 740h127z" />
    <glyph glyph-name="backslash.sc" horiz-adv-x="512" 
d="M145 592l344 -592h-122l-344 592h122z" />
    <glyph glyph-name="bar" unicode="|" horiz-adv-x="377" 
d="M249 -200h-121v940h121v-940z" />
    <glyph glyph-name="braceleft" unicode="{" horiz-adv-x="416" 
d="M386 -200h-109c-92 0 -137 56 -137 143v163c0 98 -36 120 -111 120v88c75 0 111 22 111 120v163c0 87 45 143 137 143h109v-88h-44c-54 0 -78 -27 -78 -78v-154c0 -98 -31 -131 -85 -149v-2c54 -18 85 -51 85 -149v-154c0 -51 24 -78 78 -78h44v-88z" />
    <glyph glyph-name="braceleft.uc" horiz-adv-x="416" 
d="M386 -130h-109c-92 0 -137 56 -137 143v163c0 98 -36 120 -111 120v88c75 0 111 22 111 120v163c0 87 45 143 137 143h109v-88h-44c-54 0 -78 -27 -78 -78v-154c0 -98 -31 -131 -85 -149v-2c54 -18 85 -51 85 -149v-154c0 -51 24 -78 78 -78h44v-88z" />
    <glyph glyph-name="braceright" unicode="}" horiz-adv-x="416" 
d="M149 -200h-119v88h44c54 0 78 27 78 78v164c0 98 31 121 85 139v2c-54 18 -85 41 -85 139v164c0 51 -22 80 -76 80h-44l-2 86h119c92 0 127 -46 127 -133v-173c0 -98 36 -120 111 -120v-88c-75 0 -111 -22 -111 -120v-173c0 -87 -35 -133 -127 -133z" />
    <glyph glyph-name="braceright.uc" horiz-adv-x="416" 
d="M149 -130h-119v88h44c54 0 78 27 78 78v164c0 98 31 121 85 139v2c-54 18 -85 41 -85 139v164c0 51 -22 80 -76 80h-44l-2 86h119c92 0 127 -46 127 -133v-173c0 -98 36 -120 111 -120v-88c-75 0 -111 -22 -111 -120v-173c0 -87 -35 -133 -127 -133z" />
    <glyph glyph-name="bracketleft" unicode="[" horiz-adv-x="421" 
d="M385 -200h-308v940h308v-88h-184v-764h184v-88z" />
    <glyph glyph-name="bracketleft.uc" horiz-adv-x="421" 
d="M385 -130h-308v940h308v-88h-184v-764h184v-88z" />
    <glyph glyph-name="bracketright" unicode="]" horiz-adv-x="421" 
d="M344 -200h-308v88h184v763h-184v89h308v-940z" />
    <glyph glyph-name="bracketright.uc" horiz-adv-x="421" 
d="M344 -130h-308v88h184v763h-184v89h308v-940z" />
    <glyph glyph-name="breve" unicode="&#x2d8;" horiz-adv-x="500" 
d="M250 579c-103 0 -161 74 -166 177h69c9 -75 50 -95 97 -95s89 20 98 95h68c-5 -103 -63 -177 -166 -177z" />
    <glyph glyph-name="brokenbar" unicode="&#xa6;" horiz-adv-x="377" 
d="M249 331h-121v409h121v-409zM249 -200h-121v409h121v-409z" />
    <glyph glyph-name="bullet" unicode="&#x2022;" horiz-adv-x="463" 
d="M231 222c-74 0 -128 54 -128 128c0 75 54 129 128 129c75 0 129 -54 129 -129c0 -74 -54 -128 -129 -128z" />
    <glyph glyph-name="c" unicode="c" horiz-adv-x="545" 
d="M287 -11c-123 0 -248 82 -248 276c0 203 137 276 255 276c132 0 188 -73 220 -155l-104 -37c-21 60 -59 89 -118 89c-70 0 -129 -46 -129 -173c0 -113 46 -175 127 -175c56 0 95 17 124 92l102 -37c-38 -85 -101 -156 -229 -156z" />
    <glyph glyph-name="cacute" unicode="&#x107;" horiz-adv-x="545" 
d="M222 587l94 166h132l-145 -166h-81zM287 -11c-123 0 -248 82 -248 276c0 203 137 276 255 276c132 0 188 -73 220 -155l-104 -37c-21 60 -59 89 -118 89c-70 0 -129 -46 -129 -173c0 -113 46 -175 127 -175c56 0 95 17 124 92l102 -37c-38 -85 -101 -156 -229 -156z" />
    <glyph glyph-name="caron" unicode="&#x2c7;" horiz-adv-x="535" 
d="M225 590l-129 166h72l100 -84l100 84h71l-129 -166h-85z" />
    <glyph glyph-name="ccaron" unicode="&#x10d;" horiz-adv-x="545" 
d="M230 590l-129 166h72l100 -84l100 84h71l-129 -166h-85zM287 -11c-123 0 -248 82 -248 276c0 203 137 276 255 276c132 0 188 -73 220 -155l-104 -37c-21 60 -59 89 -118 89c-70 0 -129 -46 -129 -173c0 -113 46 -175 127 -175c56 0 95 17 124 92l102 -37
c-38 -85 -101 -156 -229 -156z" />
    <glyph glyph-name="ccedilla" unicode="&#xe7;" horiz-adv-x="550" 
d="M289 -199c-54 0 -103 14 -138 37l24 40c30 -20 69 -30 103 -30c40 0 60 14 60 39c0 21 -14 31 -36 31c-19 0 -33 -7 -47 -18l-35 17l24 77c-108 16 -204 101 -204 271c0 203 136 276 254 276c132 0 188 -72 220 -155l-103 -37c-25 70 -60 100 -119 100
c-70 0 -129 -57 -129 -184c0 -113 46 -186 127 -186c56 0 96 28 125 103l101 -37c-37 -83 -97 -150 -216 -154l-11 -40c14 9 33 15 60 15c38 0 72 -24 72 -69c0 -63 -59 -96 -132 -96z" />
    <glyph glyph-name="ccircumflex" unicode="&#x109;" horiz-adv-x="545" 
d="M108 587l129 166h85l129 -166h-72l-100 84l-100 -84h-71zM287 -11c-123 0 -248 82 -248 276c0 203 137 276 255 276c132 0 188 -73 220 -155l-104 -37c-21 60 -59 89 -118 89c-70 0 -129 -46 -129 -173c0 -113 46 -175 127 -175c56 0 95 17 124 92l102 -37
c-38 -85 -101 -156 -229 -156z" />
    <glyph glyph-name="cdotaccent" unicode="&#x10b;" horiz-adv-x="545" 
d="M216 595v111h132v-111h-132zM287 -11c-123 0 -248 82 -248 276c0 203 137 276 255 276c132 0 188 -73 220 -155l-104 -37c-21 60 -59 89 -118 89c-70 0 -129 -46 -129 -173c0 -113 46 -175 127 -175c56 0 95 17 124 92l102 -37c-38 -85 -101 -156 -229 -156z" />
    <glyph glyph-name="cedilla" unicode="&#xb8;" horiz-adv-x="500" 
d="M258 -199c-53 0 -103 14 -138 37l25 40c30 -20 68 -30 102 -30c40 0 60 14 60 39c0 21 -14 31 -36 31c-18 0 -32 -7 -46 -18l-35 17l25 83h57l-14 -49c14 9 34 15 61 15c37 0 71 -24 71 -69c0 -63 -59 -96 -132 -96z" />
    <glyph glyph-name="cent" unicode="&#xa2;" horiz-adv-x="549" 
d="M202 118l92 322h-2c-70 0 -138 -43 -138 -175c0 -70 18 -118 48 -147zM127 -129l43 146c-74 40 -131 121 -131 248c0 198 137 276 255 276c9 0 18 0 26 -1l28 98h68l-32 -111c71 -25 108 -81 132 -141l-99 -37c-15 43 -37 68 -65 80l-96 -338c10 -3 22 -4 34 -4
c55 0 100 20 131 95l97 -37c-38 -85 -104 -156 -231 -156c-19 0 -37 2 -56 6l-35 -124h-69z" />
    <glyph glyph-name="cent.tab" 
d="M205 265c0 -59 14 -115 47 -151l96 338h-5c-71 0 -138 -52 -138 -187zM337 -11c-20 0 -38 2 -56 5l-35 -123h-68l42 145c-86 46 -130 143 -130 249c0 198 136 276 254 276c9 0 17 0 26 -1l28 98h68l-32 -111c54 -20 104 -61 133 -141l-96 -37c-13 38 -36 70 -68 88
l-100 -355c11 -3 23 -5 37 -5c56 0 104 30 135 105l93 -37c-37 -85 -103 -156 -231 -156z" />
    <glyph glyph-name="circumflex" unicode="&#x2c6;" horiz-adv-x="535" 
d="M96 587l129 166h85l129 -166h-72l-100 84l-100 -84h-71z" />
    <glyph glyph-name="colon" unicode=":" horiz-adv-x="285" 
d="M211 400h-137v131h137v-131zM211 0h-137v130h137v-130z" />
    <glyph glyph-name="colon.tab" horiz-adv-x="325" 
d="M94 401v130h137v-130h-137zM94 0v130h137v-130h-137z" />
    <glyph glyph-name="comma" unicode="," horiz-adv-x="276" 
d="M144 -112h-57l35 112h-53v130h138v-113z" />
    <glyph glyph-name="comma.tab" horiz-adv-x="325" 
d="M111 -112l35 112h-52v130h137v-113l-63 -129h-57z" />
    <glyph glyph-name="commaaccent" unicode="&#xf6c3;" horiz-adv-x="276" 
d="M93 -271l32 106h-48v120h123v-105l-55 -121h-52z" />
    <glyph glyph-name="commaaccent.scrap" horiz-adv-x="276" 
d="M77 584v105l54 121h52l-32 -106h49v-120h-123z" />
    <glyph glyph-name="copyright" unicode="&#xa9;" horiz-adv-x="865" 
d="M432 -14c-216 0 -382 168 -382 383s168 385 384 385c215 0 381 -168 381 -383s-168 -385 -383 -385zM434 44c181 0 318 142 318 325s-139 327 -320 327c-182 0 -319 -142 -319 -325s139 -327 321 -327zM430 155c-106 0 -177 82 -177 219c0 133 69 217 179 217
c91 0 142 -52 161 -133l-72 -19c-15 53 -38 84 -88 84c-62 0 -100 -59 -100 -149c0 -93 37 -149 100 -149c49 0 77 30 91 90c0 0 71 -19 74 -19c-23 -86 -73 -141 -168 -141z" />
    <glyph glyph-name="currency" unicode="&#xa4;" horiz-adv-x="642" 
d="M321 248c63 0 107 45 107 114s-44 113 -107 113s-107 -44 -107 -113s44 -114 107 -114zM321 177c-34 0 -64 8 -90 22l-99 -99l-72 72l98 98c-15 26 -24 57 -24 92c0 34 8 64 23 90l-97 96l72 72l98 -97c26 15 57 24 91 24s65 -9 91 -23l96 96l72 -72l-95 -95
c15 -26 23 -56 23 -90c0 -35 -9 -66 -24 -92l98 -98l-72 -72l-99 99c-26 -15 -57 -23 -90 -23z" />
    <glyph glyph-name="d" unicode="d" horiz-adv-x="611" 
d="M290 93c51 0 100 32 129 67v213c-33 43 -81 66 -125 66c-93 0 -131 -60 -131 -178c0 -112 48 -168 127 -168zM250 -8c-121 0 -210 88 -210 272s91 277 227 277c57 0 113 -23 152 -67v266h123v-610c0 -64 4 -103 16 -130h-127c-7 15 -12 45 -12 72
c-39 -45 -90 -80 -169 -80z" />
    <glyph glyph-name="dagger" unicode="&#x2020;" horiz-adv-x="588" 
d="M359 -200h-130l20 591l-211 -14v114l211 -15l-20 264h130l-20 -264l211 15v-114l-211 14z" />
    <glyph glyph-name="daggerdbl" unicode="&#x2021;" horiz-adv-x="588" 
d="M359 -200h-130l20 219l-196 -15v109l196 -14l-16 172l16 170l-196 -14v109l196 -15l-20 219h130l-20 -219l196 15v-109l-196 14l16 -170l-16 -172l196 14v-109l-196 15z" />
    <glyph glyph-name="dcaron" unicode="&#x10f;" horiz-adv-x="611" 
d="M605 582l31 103h-47v116h119v-101l-53 -118h-50zM290 93c51 0 100 32 129 67v213c-33 43 -81 66 -125 66c-93 0 -131 -60 -131 -178c0 -112 48 -168 127 -168zM250 -8c-121 0 -210 88 -210 272s91 277 227 277c57 0 113 -23 152 -67v266h123v-610c0 -64 4 -103 16 -130
h-127c-7 15 -12 45 -12 72c-39 -45 -90 -80 -169 -80z" />
    <glyph glyph-name="dcroat" unicode="&#x111;" horiz-adv-x="611" 
d="M290 86c51 0 92 28 129 67v222c-43 42 -80 64 -131 64c-75 0 -125 -57 -125 -176c0 -112 48 -177 127 -177zM419 80c-38 -48 -90 -89 -169 -89c-121 0 -210 87 -210 271s90 279 212 279c72 0 128 -31 167 -81v125h-96v82h96v73h123v-73h73v-82h-73v-455
c0 -64 4 -103 16 -130h-127c-7 15 -12 52 -12 80z" />
    <glyph glyph-name="degree" unicode="&#xb0;" horiz-adv-x="410" 
d="M205 449c-88 0 -154 64 -154 152s66 152 154 152s154 -63 154 -151s-66 -153 -154 -153zM205 513c48 0 82 35 82 88s-34 88 -82 88s-82 -35 -82 -88s34 -88 82 -88z" />
    <glyph glyph-name="dieresis" unicode="&#xa8;" horiz-adv-x="520" 
d="M302 584v121h112v-121h-112zM104 584v121h112v-121h-112z" />
    <glyph glyph-name="divide" unicode="&#xf7;" horiz-adv-x="642" 
d="M377 476h-115v105h115v-105zM576 292h-509v99h509v-99zM377 101h-115v105h115v-105z" />
    <glyph glyph-name="divide.sc" horiz-adv-x="642" 
d="M377 437h-115v105h115v-105zM576 253h-509v99h509v-99zM377 62h-115v105h115v-105z" />
    <glyph glyph-name="divide.tab" 
d="M267 476v105h114v-105h-114zM71 292v99h509v-99h-509zM267 101v105h114v-105h-114z" />
    <glyph glyph-name="dollar" unicode="$" horiz-adv-x="668" 
d="M298 445v206c-77 -6 -112 -45 -112 -97c0 -62 43 -88 112 -109zM371 314v-227c76 7 125 35 125 106c0 68 -48 98 -125 121zM294 -93v86c-130 12 -202 81 -245 152l87 59c42 -60 86 -105 162 -116v246c-116 30 -228 72 -228 209c0 115 86 196 224 205v71h80v-73
c111 -13 169 -68 209 -129l-85 -66c-32 49 -65 85 -127 96v-222c131 -34 241 -80 241 -221c0 -111 -77 -199 -238 -211v-86h-80z" />
    <glyph glyph-name="dollar.sc" horiz-adv-x="568" 
d="M247 361v155c-54 -4 -81 -36 -81 -74c0 -46 37 -66 81 -81zM319 246v-169c50 5 92 27 92 79c0 54 -41 73 -92 90zM321 -74h-76v69c-101 10 -164 66 -200 126c19 11 62 39 82 50c30 -47 70 -84 120 -91v185c-95 25 -182 63 -182 171c0 91 70 155 180 163v58h76v-60
c86 -9 138 -56 171 -107l-78 -55c-25 38 -49 65 -95 76v-168c105 -27 193 -64 193 -178c0 -88 -63 -158 -191 -171v-68z" />
    <glyph glyph-name="dollar.tab" 
d="M298 441v215c-33 -3 -112 -20 -112 -102c0 -66 52 -95 112 -113zM363 83c66 7 126 34 126 110c0 75 -61 104 -126 124v-234zM295 -93v86c-116 10 -194 67 -245 152l86 54c42 -63 88 -106 162 -115v249c-118 33 -227 76 -227 211c0 114 86 196 224 204v71h71v-74
c95 -10 165 -56 209 -128l-85 -61c-36 56 -72 84 -127 94v-224c121 -30 241 -80 241 -222c0 -118 -84 -200 -238 -210v-87h-71z" />
    <glyph glyph-name="dotaccent" unicode="&#x2d9;" horiz-adv-x="500" 
d="M184 595v111h132v-111h-132z" />
    <glyph glyph-name="dotlessi" unicode="&#x131;" horiz-adv-x="272" 
d="M198 0h-124v531h124v-531z" />
    <glyph glyph-name="e" unicode="e" horiz-adv-x="564" 
d="M295 -11c-133 0 -256 81 -256 276c0 202 143 276 253 276c119 0 233 -71 233 -287v-29h-363c5 -96 64 -138 142 -138c69 0 109 23 149 62l65 -64c-55 -61 -128 -96 -223 -96zM164 317h248c-7 81 -47 124 -121 124c-60 0 -115 -34 -127 -124z" />
    <glyph glyph-name="eacute" unicode="&#xe9;" horiz-adv-x="564" 
d="M224 587l94 166h132l-145 -166h-81zM295 -11c-133 0 -256 81 -256 276c0 202 143 276 253 276c119 0 233 -71 233 -287v-29h-363c5 -96 64 -138 142 -138c69 0 109 23 149 62l65 -64c-55 -61 -128 -96 -223 -96zM164 317h248c-7 81 -47 124 -121 124
c-60 0 -115 -34 -127 -124z" />
    <glyph glyph-name="ebreve" unicode="&#x115;" horiz-adv-x="564" 
d="M286 579c-103 0 -161 74 -166 177h69c9 -75 50 -95 97 -95s89 20 98 95h68c-5 -103 -63 -177 -166 -177zM295 -11c-133 0 -256 81 -256 276c0 202 143 276 253 276c119 0 233 -71 233 -287v-29h-363c5 -96 64 -138 142 -138c69 0 109 23 149 62l65 -64
c-55 -61 -128 -96 -223 -96zM164 317h248c-7 81 -47 124 -121 124c-60 0 -115 -34 -127 -124z" />
    <glyph glyph-name="ecaron" unicode="&#x11b;" horiz-adv-x="564" 
d="M239 590l-129 166h72l100 -84l100 84h71l-129 -166h-85zM295 -11c-133 0 -256 81 -256 276c0 202 143 276 253 276c119 0 233 -71 233 -287v-29h-363c5 -96 64 -138 142 -138c69 0 109 23 149 62l65 -64c-55 -61 -128 -96 -223 -96zM164 317h248c-7 81 -47 124 -121 124
c-60 0 -115 -34 -127 -124z" />
    <glyph glyph-name="ecircumflex" unicode="&#xea;" horiz-adv-x="564" 
d="M114 587l129 166h85l129 -166h-72l-100 84l-100 -84h-71zM295 -11c-133 0 -256 81 -256 276c0 202 143 276 253 276c119 0 233 -71 233 -287v-29h-363c5 -96 64 -138 142 -138c69 0 109 23 149 62l65 -64c-55 -61 -128 -96 -223 -96zM164 317h248c-7 81 -47 124 -121 124
c-60 0 -115 -34 -127 -124z" />
    <glyph glyph-name="edieresis" unicode="&#xeb;" horiz-adv-x="564" 
d="M326 584v121h112v-121h-112zM128 584v121h112v-121h-112zM295 -11c-133 0 -256 81 -256 276c0 202 143 276 253 276c119 0 233 -71 233 -287v-29h-363c5 -96 64 -138 142 -138c69 0 109 23 149 62l65 -64c-55 -61 -128 -96 -223 -96zM164 317h248c-7 81 -47 124 -121 124
c-60 0 -115 -34 -127 -124z" />
    <glyph glyph-name="edotaccent" unicode="&#x117;" horiz-adv-x="564" 
d="M215 595v111h132v-111h-132zM295 -11c-133 0 -256 81 -256 276c0 202 143 276 253 276c119 0 233 -71 233 -287v-29h-363c5 -96 64 -138 142 -138c69 0 109 23 149 62l65 -64c-55 -61 -128 -96 -223 -96zM164 317h248c-7 81 -47 124 -121 124c-60 0 -115 -34 -127 -124z
" />
    <glyph glyph-name="egrave" unicode="&#xe8;" horiz-adv-x="564" 
d="M264 587l-146 166h133l94 -166h-81zM295 -11c-133 0 -256 81 -256 276c0 202 143 276 253 276c119 0 233 -71 233 -287v-29h-363c5 -96 64 -138 142 -138c69 0 109 23 149 62l65 -64c-55 -61 -128 -96 -223 -96zM164 317h248c-7 81 -47 124 -121 124
c-60 0 -115 -34 -127 -124z" />
    <glyph glyph-name="eight" unicode="8" horiz-adv-x="625" 
d="M313 -17c-179 0 -284 84 -284 203c0 98 74 159 177 203c-89 43 -143 89 -143 181c0 93 87 187 250 187c167 0 249 -94 249 -187c0 -81 -52 -137 -143 -178c108 -47 177 -96 177 -206c0 -118 -105 -203 -283 -203zM321 435c84 39 120 70 120 126c0 47 -37 94 -128 94
c-88 0 -129 -43 -129 -92c0 -61 47 -91 137 -128zM313 84c96 0 158 41 158 109c0 67 -55 105 -167 150c-98 -45 -150 -86 -150 -150c0 -66 62 -109 159 -109z" />
    <glyph glyph-name="eight.dnom" horiz-adv-x="428" 
d="M214 -7c-121 0 -188 51 -188 128c0 61 45 100 106 127c-53 27 -84 56 -84 113c0 61 55 120 166 120c114 0 166 -59 166 -120c0 -50 -33 -86 -86 -110c64 -29 108 -61 108 -130c0 -76 -67 -128 -188 -128zM222 280c44 21 66 39 66 72c0 29 -22 58 -72 58
c-49 0 -74 -27 -74 -56c0 -36 23 -51 80 -74zM213 60c58 0 91 26 91 66c0 39 -36 65 -100 91c-56 -25 -83 -53 -83 -91c0 -40 34 -66 92 -66z" />
    <glyph glyph-name="eight.numr" horiz-adv-x="428" 
d="M214 256c-121 0 -188 51 -188 128c0 61 45 100 106 127c-53 27 -84 56 -84 113c0 61 55 120 166 120c114 0 166 -59 166 -120c0 -50 -33 -86 -86 -110c64 -29 108 -61 108 -130c0 -76 -67 -128 -188 -128zM222 543c44 21 66 39 66 72c0 29 -22 58 -72 58
c-49 0 -74 -27 -74 -56c0 -36 23 -51 80 -74zM213 323c58 0 91 26 91 66c0 39 -36 65 -100 91c-56 -25 -83 -53 -83 -91c0 -40 34 -66 92 -66z" />
    <glyph glyph-name="eight.sc" horiz-adv-x="523" 
d="M262 -13c-154 0 -235 67 -235 160c0 80 57 128 138 162c-68 34 -110 74 -110 146c0 81 80 148 207 148c135 0 206 -68 206 -148c0 -66 -42 -109 -112 -141c84 -36 140 -78 140 -165c0 -95 -84 -162 -234 -162zM268 352c67 30 89 56 89 94c0 37 -27 76 -95 76
c-65 0 -96 -36 -96 -73c0 -45 31 -69 102 -97zM262 68c72 0 119 34 119 87c0 50 -41 80 -126 114c-79 -34 -113 -68 -113 -114c0 -51 48 -87 120 -87z" />
    <glyph glyph-name="eight.sinf" unicode="&#x2088;" horiz-adv-x="468" 
d="M234 -208c-121 0 -188 51 -188 128c0 61 45 100 106 127c-53 27 -84 56 -84 113c0 61 55 120 166 120c114 0 166 -59 166 -120c0 -50 -33 -86 -86 -110c64 -29 108 -61 108 -130c0 -76 -67 -128 -188 -128zM242 79c44 21 66 39 66 72c0 29 -22 58 -72 58
c-49 0 -74 -27 -74 -56c0 -36 23 -51 80 -74zM233 -141c58 0 91 26 91 66c0 39 -36 65 -100 91c-56 -25 -83 -53 -83 -91c0 -40 34 -66 92 -66z" />
    <glyph glyph-name="eight.sups" unicode="&#x2078;" horiz-adv-x="468" 
d="M234 261c-121 0 -188 51 -188 128c0 61 45 100 106 127c-53 27 -84 56 -84 113c0 61 55 120 166 120c114 0 166 -59 166 -120c0 -50 -33 -86 -86 -110c64 -29 108 -61 108 -130c0 -76 -67 -128 -188 -128zM242 548c44 21 66 39 66 72c0 29 -22 58 -72 58
c-49 0 -74 -27 -74 -56c0 -36 23 -51 80 -74zM233 328c58 0 91 26 91 66c0 39 -36 65 -100 91c-56 -25 -83 -53 -83 -91c0 -40 34 -66 92 -66z" />
    <glyph glyph-name="eight.tab" 
d="M325 -14c-173 0 -278 81 -278 200c0 98 72 159 173 203c-87 43 -140 90 -140 182c0 93 88 183 245 183c162 0 245 -91 245 -183c0 -82 -56 -138 -145 -178c106 -48 178 -97 178 -207c0 -117 -105 -200 -278 -200zM333 435c84 39 116 70 116 126c0 47 -33 96 -123 96
c-87 0 -125 -45 -125 -93c0 -62 43 -92 132 -129zM325 81c95 0 154 44 154 112s-52 105 -162 151c-97 -46 -145 -87 -145 -151c0 -66 59 -112 153 -112z" />
    <glyph glyph-name="ellipsis" unicode="&#x2026;" horiz-adv-x="828" 
d="M483 0h-138v130h138v-130zM207 0h-138v130h138v-130zM759 0h-138v130h138v-130z" />
    <glyph glyph-name="emacron" unicode="&#x113;" horiz-adv-x="564" 
d="M125 584v91h312v-91h-312zM295 -11c-133 0 -256 81 -256 276c0 202 143 276 253 276c119 0 233 -71 233 -287v-29h-363c5 -96 64 -138 142 -138c69 0 109 23 149 62l65 -64c-55 -61 -128 -96 -223 -96zM164 317h248c-7 81 -47 124 -121 124c-60 0 -115 -34 -127 -124z
" />
    <glyph glyph-name="emdash" unicode="&#x2014;" horiz-adv-x="935" 
d="M875 259h-815v106h815v-106z" />
    <glyph glyph-name="emdash.salt_em" unicode="&#x2015;" horiz-adv-x="1000" 
d="M0 259v106h1000v-106h-1000z" />
    <glyph glyph-name="emdash.uc" horiz-adv-x="935" 
d="M875 329h-815v106h815v-106z" />
    <glyph glyph-name="emdash.uc_salt_em" horiz-adv-x="1000" 
d="M0 329v106h1000v-106h-1000z" />
    <glyph glyph-name="endash" unicode="&#x2013;" 
d="M590 259h-530v106h530v-106z" />
    <glyph glyph-name="endash.salt_en" horiz-adv-x="500" 
d="M0 260v105h500v-105h-500z" />
    <glyph glyph-name="endash.tab" unicode="&#x2012;" 
d="M590 259h-530v106h530v-106z" />
    <glyph glyph-name="endash.uc" 
d="M590 329h-530v106h530v-106z" />
    <glyph glyph-name="endash.uc_salt_en" horiz-adv-x="500" 
d="M0 330v105h500v-105h-500z" />
    <glyph glyph-name="eng" unicode="&#x14b;" horiz-adv-x="603" 
d="M70 0v531h123v-85c40 46 102 95 190 95c97 0 157 -50 157 -155v-453c0 -73 -25 -135 -148 -135c-22 0 -66 3 -74 5v87c8 -3 26 -5 40 -5c37 0 59 19 59 63v403c0 58 -24 88 -80 88c-54 0 -99 -27 -144 -69v-370h-123z" />
    <glyph glyph-name="eogonek" unicode="&#x119;" horiz-adv-x="564" 
d="M316 -187c-67 0 -104 29 -104 77c0 35 27 71 65 100c-126 7 -238 89 -238 275c0 202 143 276 253 276c119 0 233 -71 233 -287v-29h-363c5 -96 64 -138 142 -138c69 0 109 23 149 62l65 -64c-43 -48 -98 -80 -165 -91c-37 -29 -54 -57 -54 -85c0 -23 11 -42 48 -42
s63 12 88 24l25 -39c-41 -24 -88 -39 -144 -39zM164 317h248c-7 81 -47 124 -121 124c-60 0 -115 -34 -127 -124z" />
    <glyph glyph-name="equal" unicode="=" horiz-adv-x="642" 
d="M573 395h-505v91h505v-91zM573 167h-505v91h505v-91z" />
    <glyph glyph-name="equal.sc" horiz-adv-x="642" 
d="M573 370h-505v91h505v-91zM573 142h-505v91h505v-91z" />
    <glyph glyph-name="equal.tab" 
d="M72 395v91h505v-91h-505zM72 167v91h505v-91h-505z" />
    <glyph glyph-name="estimated" unicode="&#x212e;" horiz-adv-x="697" 
d="M664 318h-490v-220c47 -47 105 -71 174 -71c120 0 183 61 237 145l37 -23c-61 -95 -137 -161 -274 -161c-188 0 -310 151 -310 331c0 183 118 331 313 331c196 0 310 -151 313 -332zM525 358v182c-44 41 -108 71 -175 71c-68 0 -129 -24 -176 -71v-182h351z" />
    <glyph glyph-name="eth" unicode="&#xf0;" horiz-adv-x="595" 
d="M298 -11c-148 0 -258 97 -258 258c0 166 105 254 232 254c52 0 118 -26 155 -75c-12 52 -33 103 -70 148l-89 -38l-36 68l74 32c-20 20 -42 37 -66 54l59 70c36 -22 69 -47 98 -76l89 40l36 -69l-73 -33c68 -92 106 -210 106 -359c0 -172 -110 -274 -257 -274zM298 89
c82 0 134 55 134 160c0 99 -51 157 -134 157s-135 -54 -135 -158c0 -99 49 -159 135 -159z" />
    <glyph glyph-name="exclam" unicode="!" horiz-adv-x="339" 
d="M216 221h-88l-33 519h154zM241 0h-138v125h138v-125z" />
    <glyph glyph-name="exclam.sc" horiz-adv-x="294" 
d="M75 592h144l-28 -414h-86zM83 107h128v-107h-128v107z" />
    <glyph glyph-name="exclamdown" unicode="&#xa1;" horiz-adv-x="339" 
d="M236 615h-138v125h138v-125zM244 0h-154l33 519h88z" />
    <glyph glyph-name="exclamdown.sc" horiz-adv-x="294" 
d="M211 592v-107h-128v107h128zM190 414l29 -414h-143l28 414h86z" />
    <glyph glyph-name="f" unicode="f" horiz-adv-x="374" 
d="M238 0h-123v433h-92v98h92v54c0 89 37 158 172 158c23 0 64 -4 73 -5v-95c-8 2 -28 4 -42 4c-44 0 -80 -12 -80 -69v-47h116v-98h-116v-433z" />
    <glyph glyph-name="fi.sc" horiz-adv-x="781" 
d="M703 0h-121v592h121v-592zM193 0h-121v592h406v-98h-285v-156h206v-94h-206v-244z" />
    <glyph glyph-name="five" unicode="5" horiz-adv-x="598" 
d="M289 -14c-114 0 -206 45 -266 112l77 82c50 -47 106 -84 183 -84c109 0 159 63 159 149c0 98 -56 145 -145 145c-61 0 -110 -19 -150 -71l-83 27l29 394h426l-9 -110h-320l-15 -191c29 31 78 55 155 55c148 0 236 -99 236 -245c0 -154 -105 -263 -277 -263z" />
    <glyph glyph-name="five.dnom" horiz-adv-x="411" 
d="M197 -7c-81 0 -133 29 -174 74l49 62c30 -34 76 -58 123 -58c61 0 91 37 91 88c0 56 -33 85 -81 85c-36 0 -60 -14 -85 -45l-71 23l18 250h286l-6 -80h-203l-8 -110c17 19 47 33 96 33c87 0 152 -52 152 -156c0 -109 -76 -166 -187 -166z" />
    <glyph glyph-name="five.numr" horiz-adv-x="411" 
d="M197 256c-81 0 -133 29 -174 74l49 62c30 -34 76 -58 123 -58c61 0 91 37 91 88c0 56 -33 85 -81 85c-36 0 -60 -14 -85 -45l-71 23l18 250h286l-6 -80h-203l-8 -110c17 19 47 33 96 33c87 0 152 -52 152 -156c0 -109 -76 -166 -187 -166z" />
    <glyph glyph-name="five.sc" horiz-adv-x="496" 
d="M241 -14c-95 0 -176 37 -226 93l68 80c38 -43 91 -75 155 -75c82 0 121 47 121 113c0 73 -41 110 -111 110c-49 0 -90 -20 -120 -62l-76 24l23 323h359l-8 -98h-262l-11 -143c25 27 68 43 121 43c122 0 199 -75 199 -196c0 -128 -92 -212 -232 -212z" />
    <glyph glyph-name="five.sinf" unicode="&#x2085;" horiz-adv-x="451" 
d="M217 -208c-81 0 -133 29 -174 74l49 62c30 -34 76 -58 123 -58c61 0 91 37 91 88c0 56 -33 85 -81 85c-36 0 -60 -14 -85 -45l-71 23l18 250h286l-6 -80h-203l-8 -110c17 19 47 33 96 33c87 0 152 -52 152 -156c0 -109 -76 -166 -187 -166z" />
    <glyph glyph-name="five.sups" unicode="&#x2075;" horiz-adv-x="451" 
d="M217 261c-81 0 -133 29 -174 74l49 62c30 -34 76 -58 123 -58c61 0 91 37 91 88c0 56 -33 85 -81 85c-36 0 -60 -14 -85 -45l-71 23l18 250h286l-6 -80h-203l-8 -110c17 19 47 33 96 33c87 0 152 -52 152 -156c0 -109 -76 -166 -187 -166z" />
    <glyph glyph-name="five.tab" 
d="M313 -14c-113 0 -203 44 -261 112l77 83c45 -53 102 -84 178 -84c108 0 156 63 156 149c0 98 -54 149 -142 149c-60 0 -108 -24 -147 -76l-80 28l28 393h419l-7 -107h-317l-14 -189c30 31 79 55 149 55c144 0 235 -103 235 -249c0 -153 -107 -264 -274 -264z" />
    <glyph glyph-name="fl.sc" horiz-adv-x="1006" 
d="M981 0h-406v592h121v-496h285v-96zM193 0h-121v592h406v-98h-285v-156h206v-94h-206v-244z" />
    <glyph glyph-name="florin" unicode="&#x192;" horiz-adv-x="385" 
d="M-92 -197l11 87c8 -2 28 -4 41 -4c51 0 84 22 91 79l58 432h-92l11 89h92l13 99c11 90 56 158 193 158c23 0 64 -4 73 -5l-12 -90c-8 2 -28 4 -41 4c-44 0 -84 -12 -90 -69l-13 -97h116l-11 -89h-116l-60 -452c-11 -83 -55 -147 -191 -147c-24 0 -64 3 -73 5z" />
    <glyph glyph-name="florin.sc" horiz-adv-x="360" 
d="M-61 -166l11 82c10 -2 25 -4 35 -4c41 0 66 18 72 61c9 65 36 266 45 331h-73l9 80h75c2 18 7 56 9 74c11 74 51 128 164 128c16 0 63 -3 67 -4l-12 -81c-10 2 -25 4 -35 4c-33 0 -65 -9 -71 -54l-9 -67h95l-10 -80h-94c-9 -65 -40 -290 -49 -355
c-10 -67 -49 -119 -162 -119c-17 0 -62 3 -67 4z" />
    <glyph glyph-name="florin.tab" 
d="M59 -198l11 87c8 -2 28 -3 41 -3c51 0 84 22 91 79l58 432h-92l11 89h92l13 99c11 91 56 158 193 158c19 0 68 -3 73 -5l-12 -89c-8 2 -28 3 -41 3c-44 0 -84 -12 -90 -69l-13 -97h116l-11 -89h-116l-60 -452c-11 -83 -55 -147 -191 -147c-20 0 -68 3 -73 4z" />
    <glyph glyph-name="four" unicode="4" horiz-adv-x="647" 
d="M505 0h-121v152h-360v98l337 490h144v-480h125v-108h-125v-152zM382 591l-223 -331h225v331h-2z" />
    <glyph glyph-name="four.dnom" horiz-adv-x="433" 
d="M243 1v104h-214v63l209 304h104v-288h75v-79h-75v-104h-99zM127 179h121v180z" />
    <glyph glyph-name="four.numr" horiz-adv-x="433" 
d="M243 264v104h-214v63l209 304h104v-288h75v-79h-75v-104h-99zM127 442h121v180z" />
    <glyph glyph-name="four.sc" horiz-adv-x="533" 
d="M420 0h-112v121h-288v83l272 388h128v-379h101v-92h-101v-121zM307 456l-165 -243h166v243h-1z" />
    <glyph glyph-name="four.sinf" unicode="&#x2084;" horiz-adv-x="473" 
d="M263 -200v104h-214v63l209 304h104v-288h75v-79h-75v-104h-99zM147 -22h121v180z" />
    <glyph glyph-name="four.sups" unicode="&#x2074;" horiz-adv-x="473" 
d="M263 269v104h-214v63l209 304h104v-288h75v-79h-75v-104h-99zM147 447h121v180z" />
    <glyph glyph-name="four.tab" 
d="M386 0v152h-342v98l320 490h143v-480h108v-108h-108v-152h-121zM167 260h219v332h-2z" />
    <glyph glyph-name="fraction" unicode="&#x2044;" horiz-adv-x="512" 
d="M92 0h-108l436 740h108z" />
    <glyph glyph-name="g" unicode="g" horiz-adv-x="587" 
d="M272 247c67 0 107 35 107 100c0 66 -38 102 -108 102c-68 0 -108 -37 -108 -102s41 -100 109 -100zM269 -206c-183 0 -256 53 -256 130c0 53 33 91 87 112c-27 14 -41 36 -41 65c0 40 32 73 72 97c-54 34 -84 88 -84 153c0 109 84 190 223 190c73 0 127 -24 163 -56
c34 27 88 48 132 52v-100c-24 0 -58 -3 -93 -14c12 -19 19 -44 19 -72c0 -111 -83 -189 -221 -189c-30 0 -48 4 -74 11c-16 -9 -27 -20 -27 -34c0 -21 14 -28 61 -32l94 -6c157 -10 219 -52 219 -145c0 -109 -110 -162 -274 -162zM288 -117c90 0 146 24 146 62
s-27 52 -135 59l-92 6c-11 0 -21 1 -32 3c-35 -16 -49 -41 -49 -68c0 -47 54 -62 162 -62z" />
    <glyph glyph-name="gbreve" unicode="&#x11f;" horiz-adv-x="595" 
d="M281 579c-103 0 -161 74 -166 177h69c9 -75 50 -95 97 -95s89 20 98 95h68c-5 -103 -63 -177 -166 -177zM272 247c67 0 107 35 107 100c0 66 -38 102 -108 102c-68 0 -108 -37 -108 -102s41 -100 109 -100zM269 -206c-183 0 -256 53 -256 130c0 53 33 91 87 112
c-27 14 -41 36 -41 65c0 40 32 73 72 97c-54 34 -84 88 -84 153c0 109 84 190 223 190c73 0 127 -24 163 -56c34 27 88 48 132 52v-100c-24 0 -58 -3 -93 -14c12 -19 19 -44 19 -72c0 -111 -83 -189 -221 -189c-30 0 -48 4 -74 11c-16 -9 -27 -20 -27 -34
c0 -21 14 -28 61 -32l94 -6c157 -10 219 -52 219 -145c0 -109 -110 -162 -274 -162zM288 -117c90 0 146 24 146 62s-27 52 -135 59l-92 6c-11 0 -21 1 -32 3c-35 -16 -49 -41 -49 -68c0 -47 54 -62 162 -62z" />
    <glyph glyph-name="gcircumflex" unicode="&#x11d;" horiz-adv-x="595" 
d="M102 587l129 166h85l129 -166h-72l-100 84l-100 -84h-71zM272 247c67 0 107 35 107 100c0 66 -38 102 -108 102c-68 0 -108 -37 -108 -102s41 -100 109 -100zM269 -206c-183 0 -256 53 -256 130c0 53 33 91 87 112c-27 14 -41 36 -41 65c0 40 32 73 72 97
c-54 34 -84 88 -84 153c0 109 84 190 223 190c73 0 127 -24 163 -56c34 27 88 48 132 52v-100c-24 0 -58 -3 -93 -14c12 -19 19 -44 19 -72c0 -111 -83 -189 -221 -189c-30 0 -48 4 -74 11c-16 -9 -27 -20 -27 -34c0 -21 14 -28 61 -32l94 -6c157 -10 219 -52 219 -145
c0 -109 -110 -162 -274 -162zM288 -117c90 0 146 24 146 62s-27 52 -135 59l-92 6c-11 0 -21 1 -32 3c-35 -16 -49 -41 -49 -68c0 -47 54 -62 162 -62z" />
    <glyph glyph-name="gcommaaccent" unicode="&#x123;" horiz-adv-x="595" 
d="M220 584v105l54 121h52l-32 -106h49v-120h-123zM272 247c67 0 107 35 107 100c0 66 -38 102 -108 102c-68 0 -108 -37 -108 -102s41 -100 109 -100zM269 -206c-183 0 -256 53 -256 130c0 53 33 91 87 112c-27 14 -41 36 -41 65c0 40 32 73 72 97c-54 34 -84 88 -84 153
c0 109 84 190 223 190c73 0 127 -24 163 -56c34 27 88 48 132 52v-100c-24 0 -58 -3 -93 -14c12 -19 19 -44 19 -72c0 -111 -83 -189 -221 -189c-30 0 -48 4 -74 11c-16 -9 -27 -20 -27 -34c0 -21 14 -28 61 -32l94 -6c157 -10 219 -52 219 -145c0 -109 -110 -162 -274 -162
zM288 -117c90 0 146 24 146 62s-27 52 -135 59l-92 6c-11 0 -21 1 -32 3c-35 -16 -49 -41 -49 -68c0 -47 54 -62 162 -62z" />
    <glyph glyph-name="gdotaccent" unicode="&#x121;" horiz-adv-x="595" 
d="M207 595v111h132v-111h-132zM272 247c67 0 107 35 107 100c0 66 -38 102 -108 102c-68 0 -108 -37 -108 -102s41 -100 109 -100zM269 -206c-183 0 -256 53 -256 130c0 53 33 91 87 112c-27 14 -41 36 -41 65c0 40 32 73 72 97c-54 34 -84 88 -84 153
c0 109 84 190 223 190c73 0 127 -24 163 -56c34 27 88 48 132 52v-100c-24 0 -58 -3 -93 -14c12 -19 19 -44 19 -72c0 -111 -83 -189 -221 -189c-30 0 -48 4 -74 11c-16 -9 -27 -20 -27 -34c0 -21 14 -28 61 -32l94 -6c157 -10 219 -52 219 -145c0 -109 -110 -162 -274 -162
zM288 -117c90 0 146 24 146 62s-27 52 -135 59l-92 6c-11 0 -21 1 -32 3c-35 -16 -49 -41 -49 -68c0 -47 54 -62 162 -62z" />
    <glyph glyph-name="germandbls" unicode="&#xdf;" horiz-adv-x="655" 
d="M409 -11c-85 0 -144 29 -177 64l64 74c27 -25 64 -42 108 -42c63 0 102 47 102 116c0 111 -92 143 -224 148v89c115 1 153 46 153 111c0 56 -42 88 -117 88c-82 0 -127 -36 -127 -134v-503h-122v499c0 164 102 241 252 241c142 0 229 -66 229 -182
c0 -81 -55 -133 -128 -155c101 -12 199 -70 199 -197c0 -138 -82 -217 -212 -217z" />
    <glyph glyph-name="germandbls.sc" horiz-adv-x="1176" 
d="M891 -13c-112 0 -212 46 -261 143l92 57c29 -70 98 -106 169 -106c78 0 120 26 120 76c0 61 -47 73 -132 94c-122 27 -227 56 -227 187c0 101 88 165 216 165s206 -53 245 -121l-83 -60c-30 56 -93 87 -158 87c-67 0 -103 -23 -103 -68c0 -65 60 -75 156 -98
c97 -22 205 -51 205 -180c0 -115 -103 -176 -239 -176zM303 -13c-112 0 -212 46 -261 143l92 57c29 -70 98 -106 169 -106c78 0 120 26 120 76c0 61 -47 73 -132 94c-122 27 -227 56 -227 187c0 101 88 165 216 165s206 -53 245 -121l-83 -60c-30 56 -93 87 -158 87
c-67 0 -103 -23 -103 -68c0 -65 60 -75 156 -98c97 -22 205 -51 205 -180c0 -115 -103 -176 -239 -176z" />
    <glyph glyph-name="grave" unicode="`" horiz-adv-x="500" 
d="M263 587l-146 166h133l94 -166h-81z" />
    <glyph glyph-name="greater" unicode="&#x3e;" horiz-adv-x="642" 
d="M589 288l-529 -230v104l395 162l-395 162v104l529 -230v-72z" />
    <glyph glyph-name="greater.sc" horiz-adv-x="642" 
d="M589 266l-529 -230v104l395 162l-395 162v104l529 -230v-72z" />
    <glyph glyph-name="greater.tab" 
d="M64 58v104l395 162l-395 162v104l529 -230v-72z" />
    <glyph glyph-name="greaterequal" unicode="&#x2265;" horiz-adv-x="642" 
d="M60 143v104l380 117l-380 122v104l529 -190v-72zM60 29v93h529v-93h-529z" />
    <glyph glyph-name="guillemotleft" unicode="&#xab;" horiz-adv-x="588" 
d="M546 0h-119l-160 266l160 265h119l-154 -265zM311 0h-120l-159 266l159 265h120l-153 -265z" />
    <glyph glyph-name="guillemotleft.uc" horiz-adv-x="588" 
d="M546 70h-119l-160 266l160 265h119l-154 -265zM311 70h-120l-159 266l159 265h120l-153 -265z" />
    <glyph glyph-name="guillemotright" unicode="&#xbb;" horiz-adv-x="588" 
d="M396 0h-119l153 266l-153 265h119l159 -265zM161 0h-120l154 266l-154 265h120l160 -265z" />
    <glyph glyph-name="guillemotright.uc" horiz-adv-x="588" 
d="M396 70h-119l153 266l-153 265h119l159 -265zM161 70h-120l154 266l-154 265h120l160 -265z" />
    <glyph glyph-name="guilsinglleft" unicode="&#x2039;" horiz-adv-x="353" 
d="M311 0h-120l-159 266l159 265h120l-153 -265z" />
    <glyph glyph-name="guilsinglleft.uc" horiz-adv-x="353" 
d="M311 70h-120l-159 266l159 265h120l-153 -265z" />
    <glyph glyph-name="guilsinglright" unicode="&#x203a;" horiz-adv-x="353" 
d="M161 0h-120l154 266l-154 265h120l160 -265z" />
    <glyph glyph-name="guilsinglright.uc" horiz-adv-x="353" 
d="M161 70h-120l154 266l-154 265h120l160 -265z" />
    <glyph glyph-name="h" unicode="h" horiz-adv-x="603" 
d="M193 0h-124v740h124v-281c34 36 98 82 194 82c93 0 153 -55 153 -160v-381h-124v350c0 59 -25 86 -79 86s-99 -28 -144 -69v-367z" />
    <glyph glyph-name="hbar" unicode="&#x127;" horiz-adv-x="603" 
d="M193 367v-367h-124v585h-73v82h73v73h124v-73h95v-82h-95v-126c34 36 98 82 194 82c93 0 153 -55 153 -160v-381h-124v350c0 59 -25 86 -79 86s-99 -28 -144 -69z" />
    <glyph glyph-name="hcircumflex" unicode="&#x125;" horiz-adv-x="603" 
d="M-42 784l129 166h85l129 -166h-72l-100 84l-100 -84h-71zM193 0h-124v740h124v-281c34 36 98 82 194 82c93 0 153 -55 153 -160v-381h-124v350c0 59 -25 86 -79 86s-99 -28 -144 -69v-367z" />
    <glyph glyph-name="hungarumlaut" unicode="&#x2dd;" horiz-adv-x="518" 
d="M242 587l105 166h134l-157 -166h-82zM63 587l100 166h134l-152 -166h-82z" />
    <glyph glyph-name="hyphen" unicode="-" horiz-adv-x="357" 
d="M302 270h-247v88h247v-88z" />
    <glyph glyph-name="hyphen" unicode="&#xad;" horiz-adv-x="357" 
d="M302 270h-247v88h247v-88z" />
    <glyph glyph-name="hyphen.uc" horiz-adv-x="357" 
d="M302 340h-247v88h247v-88z" />
    <glyph glyph-name="i" unicode="i" horiz-adv-x="272" 
d="M199 623h-126v107h126v-107zM198 0h-124v531h124v-531z" />
    <glyph glyph-name="i.trk" horiz-adv-x="272" 
d="M199 623h-126v107h126v-107zM198 0h-124v531h124v-531z" />
    <glyph glyph-name="iacute" unicode="&#xed;" horiz-adv-x="272" 
d="M95 587l94 166h132l-145 -166h-81zM198 0h-124v531h124v-531z" />
    <glyph glyph-name="ibreve" unicode="&#x12d;" horiz-adv-x="272" 
d="M136 579c-103 0 -161 74 -166 177h69c9 -75 50 -95 97 -95s89 20 98 95h68c-5 -103 -63 -177 -166 -177zM198 0h-124v531h124v-531z" />
    <glyph glyph-name="icircumflex" unicode="&#xee;" horiz-adv-x="272" 
d="M-35 587l129 166h85l129 -166h-72l-100 84l-100 -84h-71zM198 0h-124v531h124v-531z" />
    <glyph glyph-name="idieresis" unicode="&#xef;" horiz-adv-x="272" 
d="M178 584v121h112v-121h-112zM-20 584v121h112v-121h-112zM198 0h-124v531h124v-531z" />
    <glyph glyph-name="igrave" unicode="&#xec;" horiz-adv-x="272" 
d="M105 587l-146 166h133l94 -166h-81zM198 0h-124v531h124v-531z" />
    <glyph glyph-name="ij" unicode="&#x133;" horiz-adv-x="544" 
d="M471 626h-126v107h126v-107zM199 623h-126v107h126v-107zM198 0h-124v531h124v-531zM322 -199c-23 0 -67 4 -75 6v86c9 -2 26 -4 40 -4c39 0 59 19 59 67v578h124v-597c0 -73 -25 -136 -148 -136z" />
    <glyph glyph-name="imacron" unicode="&#x12b;" horiz-adv-x="272" 
d="M-20 584v91h312v-91h-312zM198 0h-124v531h124v-531z" />
    <glyph glyph-name="infinity" unicode="&#x221e;" horiz-adv-x="784" 
d="M211 171c-117 0 -181 65 -181 188c0 122 64 189 181 189c76 0 134 -40 181 -109c46 69 104 109 181 109c117 0 181 -67 181 -189c0 -123 -64 -188 -181 -188c-77 0 -135 42 -181 112c-47 -70 -105 -112 -181 -112zM567 260c59 0 92 35 92 99c0 65 -33 101 -92 101
c-61 0 -96 -48 -128 -100c32 -52 67 -100 128 -100zM217 260c61 0 96 47 128 99c-32 52 -67 101 -128 101c-59 0 -92 -36 -92 -101c0 -64 33 -99 92 -99z" />
    <glyph glyph-name="integral" unicode="&#x222b;" horiz-adv-x="374" 
d="M90 -202c-23 0 -67 4 -75 6v86c9 -2 26 -4 40 -4c39 0 60 19 60 67v632c0 89 37 158 172 158c23 0 64 -4 73 -5v-95c-8 2 -28 4 -42 4c-44 0 -80 -12 -80 -69v-644c0 -73 -25 -136 -148 -136z" />
    <glyph glyph-name="iogonek" unicode="&#x12f;" horiz-adv-x="272" 
d="M199 623h-126v107h126v-107zM240 -148c-41 -24 -88 -39 -144 -39c-67 0 -104 29 -104 77c0 40 36 81 82 112v529h124v-531h-57c-42 -31 -62 -61 -62 -91c0 -23 11 -42 48 -42s63 12 88 24z" />
    <glyph glyph-name="itilde" unicode="&#x129;" horiz-adv-x="272" 
d="M212 580c-66 0 -103 56 -145 56c-28 0 -41 -15 -41 -54h-69c0 98 39 139 104 139c66 0 103 -56 146 -56c27 0 41 15 41 54h69c0 -97 -40 -139 -105 -139zM198 0h-124v531h124v-531z" />
    <glyph glyph-name="j" unicode="j" horiz-adv-x="272" 
d="M199 623h-126v107h126v-107zM50 -202c-23 0 -67 4 -75 6v86c9 -2 26 -4 40 -4c39 0 59 19 59 67v578h124v-597c0 -73 -25 -136 -148 -136z" />
    <glyph glyph-name="jcircumflex" unicode="&#x135;" horiz-adv-x="272" 
d="M-35 587l129 166h85l129 -166h-72l-100 84l-100 -84h-71zM50 -202c-22 0 -67 3 -75 5v87c9 -3 27 -5 41 -5c38 0 59 20 59 67v579h123v-598c0 -73 -25 -135 -148 -135z" />
    <glyph glyph-name="k" unicode="k" horiz-adv-x="563" 
d="M192 0h-123v740h123v-441l201 232h135l-173 -194l188 -337h-129l-137 246l-85 -93v-153z" />
    <glyph glyph-name="kcommaaccent" unicode="&#x137;" horiz-adv-x="563" 
d="M192 0h-123v740h123v-441l201 232h135l-173 -194l188 -337h-129l-137 246l-85 -93v-153zM236 -271l32 106h-48v120h123v-105l-55 -121h-52z" />
    <glyph glyph-name="kgreenlandic" unicode="&#x138;" horiz-adv-x="563" 
d="M69 0v531h123v-232l201 232h135l-173 -194l188 -337h-129l-137 247l-85 -94v-153h-123z" />
    <glyph glyph-name="l" unicode="l" horiz-adv-x="272" 
d="M198 0h-124v740h124v-740z" />
    <glyph glyph-name="lacute" unicode="&#x13a;" horiz-adv-x="272" 
d="M93 784l94 166h132l-145 -166h-81zM198 0h-124v740h124v-740z" />
    <glyph glyph-name="lcaron" unicode="&#x13e;" horiz-adv-x="272" 
d="M259 582l31 103h-47v116h119v-101l-53 -118h-50zM198 0h-124v740h124v-740z" />
    <glyph glyph-name="lcommaaccent" unicode="&#x13c;" horiz-adv-x="272" 
d="M198 0h-124v740h124v-740zM92 -271l32 106h-48v120h123v-105l-55 -121h-52z" />
    <glyph glyph-name="ldot" unicode="&#x140;" horiz-adv-x="396" 
d="M198 0h-124v740h124v-740zM273 276v110h122v-110h-122z" />
    <glyph glyph-name="less" unicode="&#x3c;" horiz-adv-x="642" 
d="M586 162v-104l-529 230v72l529 230v-104l-395 -162z" />
    <glyph glyph-name="less.sc" horiz-adv-x="642" 
d="M586 140v-104l-529 230v72l529 230v-104l-395 -162z" />
    <glyph glyph-name="less.tab" 
d="M590 58l-529 230v72l529 230v-104l-395 -162l395 -162v-104z" />
    <glyph glyph-name="lessequal" unicode="&#x2264;" horiz-adv-x="642" 
d="M586 143l-529 185v72l529 190v-104l-380 -122l380 -117v-104zM57 29v93h529v-93h-529z" />
    <glyph glyph-name="logicalnot" unicode="&#xac;" horiz-adv-x="639" 
d="M572 399v-313h-100v207h-405v106h505z" />
    <glyph glyph-name="lozenge" unicode="&#x25ca;" 
d="M276 0l-231 370l231 370h94l235 -370l-231 -370h-98zM325 119l159 251l-159 251l-159 -251z" />
    <glyph glyph-name="lslash" unicode="&#x142;" horiz-adv-x="321" 
d="M100 0v415l-78 -21v92l78 21v233h123v-200l78 21v-92l-78 -21v-448h-123z" />
    <glyph glyph-name="m" unicode="m" horiz-adv-x="924" 
d="M192 0h-123v531h123v-73c41 45 101 83 182 83c89 0 124 -35 145 -87c42 46 105 87 186 87c108 0 155 -65 155 -160v-381h-123v350c0 59 -17 86 -75 86c-50 0 -90 -28 -136 -69v-367h-123v350c0 59 -17 86 -75 86c-49 0 -90 -28 -136 -69v-367z" />
    <glyph glyph-name="macron" unicode="&#xaf;" horiz-adv-x="500" 
d="M94 584v91h312v-91h-312z" />
    <glyph glyph-name="minus" unicode="&#x2212;" horiz-adv-x="642" 
d="M576 292h-509v99h509v-99z" />
    <glyph glyph-name="minus.sc" horiz-adv-x="642" 
d="M576 252h-509v99h509v-99z" />
    <glyph glyph-name="minus.tab" 
d="M71 292v99h509v-99h-509z" />
    <glyph glyph-name="minute" unicode="&#x2032;" horiz-adv-x="251" 
d="M62 478l18 196l11 66h109l-63 -262h-75z" />
    <glyph glyph-name="minute.tab" horiz-adv-x="325" 
d="M101 478l17 196l12 66h109l-63 -262h-75z" />
    <glyph glyph-name="mu" unicode="&#x3bc;" horiz-adv-x="608" 
d="M192 -200h-123v731h123v-351c0 -59 24 -89 80 -89c54 0 98 28 144 69v371h123v-531h-123v84c-37 -40 -87 -79 -152 -88c-29 -2 -53 1 -72 16v-212z" />
    <glyph glyph-name="multiply" unicode="&#xd7;" horiz-adv-x="642" 
d="M321 249l-164 -165l-73 73l164 163l-164 163l73 72l163 -163l163 163l72 -72l-162 -162l164 -163l-73 -72z" />
    <glyph glyph-name="multiply.sc" horiz-adv-x="642" 
d="M321 231l-164 -165l-73 73l164 163l-164 163l73 72l163 -163l163 163l72 -72l-162 -162l164 -163l-73 -72z" />
    <glyph glyph-name="multiply.tab" 
d="M161 85l-72 72l163 163l-163 163l72 72l163 -163l163 163l72 -72l-162 -162l164 -163l-72 -72l-164 163z" />
    <glyph glyph-name="n" unicode="n" horiz-adv-x="603" 
d="M193 0h-123v531h123v-85c40 46 102 95 190 95c97 0 157 -50 157 -155v-386h-123v351c0 58 -24 88 -80 88c-54 0 -99 -27 -144 -69v-370z" />
    <glyph glyph-name="nacute" unicode="&#x144;" horiz-adv-x="603" 
d="M219 587l94 166h132l-145 -166h-81zM193 0h-123v531h123v-85c40 46 102 95 190 95c97 0 157 -50 157 -155v-386h-123v351c0 58 -24 88 -80 88c-54 0 -99 -27 -144 -69v-370z" />
    <glyph glyph-name="ncaron" unicode="&#x148;" horiz-adv-x="603" 
d="M260 590l-129 166h72l100 -84l100 84h71l-129 -166h-85zM193 0h-123v531h123v-85c40 46 102 95 190 95c97 0 157 -50 157 -155v-386h-123v351c0 58 -24 88 -80 88c-54 0 -99 -27 -144 -69v-370z" />
    <glyph glyph-name="ncommaaccent" unicode="&#x146;" horiz-adv-x="603" 
d="M193 0h-123v531h123v-85c40 46 102 95 190 95c97 0 157 -50 157 -155v-386h-123v351c0 58 -24 88 -80 88c-54 0 -99 -27 -144 -69v-370zM258 -271l32 106h-48v120h123v-105l-55 -121h-52z" />
    <glyph glyph-name="nine" unicode="9" horiz-adv-x="636" 
d="M295 373c70 0 139 35 171 73c-10 143 -75 200 -168 200c-90 0 -143 -52 -143 -140c0 -77 36 -133 140 -133zM270 -14c-83 0 -151 29 -191 60l60 92c34 -24 78 -45 136 -45c112 0 186 100 192 256c-50 -45 -114 -80 -195 -80c-141 0 -236 81 -236 233
c0 149 121 252 268 252c170 0 286 -124 286 -371c0 -261 -146 -397 -320 -397z" />
    <glyph glyph-name="nine.dnom" horiz-adv-x="436" 
d="M202 240c42 0 71 19 96 46c-6 77 -41 117 -93 117c-54 0 -84 -32 -84 -82c0 -51 24 -81 81 -81zM191 -7c-68 0 -117 20 -146 44l43 68c31 -22 62 -33 103 -33c70 0 105 43 108 142c-32 -27 -64 -48 -122 -48c-91 0 -151 54 -151 152c0 96 64 163 180 163
c119 0 192 -78 192 -237c0 -174 -97 -251 -207 -251z" />
    <glyph glyph-name="nine.numr" horiz-adv-x="436" 
d="M202 503c42 0 71 19 96 46c-6 77 -41 117 -93 117c-54 0 -84 -32 -84 -82c0 -51 24 -81 81 -81zM191 256c-68 0 -117 20 -146 44l43 68c31 -22 62 -33 103 -33c70 0 105 43 108 142c-32 -27 -64 -48 -122 -48c-91 0 -151 54 -151 152c0 96 64 163 180 163
c119 0 192 -78 192 -237c0 -174 -97 -251 -207 -251z" />
    <glyph glyph-name="nine.sc" horiz-adv-x="532" 
d="M247 295c51 0 98 23 132 61c-7 110 -59 158 -129 158c-67 0 -109 -41 -109 -109c0 -64 29 -110 106 -110zM235 -13c-86 0 -142 25 -178 54l53 82c36 -29 70 -43 121 -43c83 0 141 73 148 194c-29 -31 -88 -64 -151 -64c-118 0 -198 70 -198 191c0 120 87 203 224 203
c138 0 238 -100 238 -298c0 -209 -123 -319 -257 -319z" />
    <glyph glyph-name="nine.sinf" unicode="&#x2089;" horiz-adv-x="476" 
d="M222 39c42 0 71 19 96 46c-6 77 -41 117 -93 117c-54 0 -84 -32 -84 -82c0 -51 24 -81 81 -81zM211 -208c-68 0 -117 20 -146 44l43 68c31 -22 62 -33 103 -33c70 0 105 43 108 142c-32 -27 -64 -48 -122 -48c-91 0 -151 54 -151 152c0 96 64 163 180 163
c119 0 192 -78 192 -237c0 -174 -97 -251 -207 -251z" />
    <glyph glyph-name="nine.sups" unicode="&#x2079;" horiz-adv-x="476" 
d="M222 508c42 0 71 19 96 46c-6 77 -41 117 -93 117c-54 0 -84 -32 -84 -82c0 -51 24 -81 81 -81zM211 261c-68 0 -117 20 -146 44l43 68c31 -22 62 -33 103 -33c70 0 105 43 108 142c-32 -27 -64 -48 -122 -48c-91 0 -151 54 -151 152c0 96 64 163 180 163
c119 0 192 -78 192 -237c0 -174 -97 -251 -207 -251z" />
    <glyph glyph-name="nine.tab" 
d="M302 369c69 0 125 28 166 77c-10 144 -71 201 -162 201c-89 0 -139 -52 -139 -140c0 -78 33 -138 135 -138zM288 -14c-102 0 -169 29 -215 66l62 91c44 -34 82 -52 148 -52c110 0 180 102 186 258c-49 -44 -109 -80 -189 -80c-138 0 -232 81 -232 233
c0 149 105 252 263 252c159 0 280 -124 280 -371c0 -261 -147 -397 -303 -397z" />
    <glyph glyph-name="notequal" unicode="&#x2260;" horiz-adv-x="642" 
d="M135 -1l70 168h-137v91h170l60 137h-230v91h264l78 188h106l-78 -188h135v-91h-168l-61 -137h229v-91h-262l-70 -168h-106z" />
    <glyph glyph-name="ntilde" unicode="&#xf1;" horiz-adv-x="603" 
d="M381 580c-66 0 -103 56 -145 56c-28 0 -41 -15 -41 -54h-69c0 98 39 139 104 139c66 0 103 -56 146 -56c27 0 41 15 41 54h69c0 -97 -40 -139 -105 -139zM207 0h-123v531h123v-85c40 46 102 95 190 95c97 0 157 -50 157 -155v-386h-123v351c0 58 -24 88 -80 88
c-54 0 -99 -27 -144 -69v-370z" />
    <glyph glyph-name="numbersign" unicode="#" horiz-adv-x="740" 
d="M309 448l-33 -156h145l32 156h-144zM215 0h-111l41 199h-112v93h132l32 156h-121v93h141l42 199h111l-41 -199h144l42 199h111l-42 -199h123v-93h-142l-33 -156h132v-93h-151l-42 -199h-111l41 199h-144z" />
    <glyph glyph-name="numbersign.sc" horiz-adv-x="643" 
d="M274 351l-23 -109h107l23 109h-107zM198 0h-105l33 153h-91v89h110l23 109h-97v89h117l32 152h106l-33 -152h107l33 152h106l-33 -152h102v-89h-121l-23 -109h108v-89h-127l-33 -153h-106l32 153h-106z" />
    <glyph glyph-name="numbersign.tab" 
d="M239 292h134l29 156h-133zM89 0l36 199h-88v93h104l30 156h-96v93h111l37 199h99l-39 -199h135l38 199h97l-37 -199h96v-93h-111l-30 -156h104v-93h-119l-37 -199h-98l36 199h-133l-38 -199h-97z" />
    <glyph glyph-name="o" unicode="o" horiz-adv-x="596" 
d="M298 -11c-129 0 -259 82 -259 276c0 196 129 276 259 276c129 0 259 -80 259 -276c0 -194 -130 -276 -259 -276zM298 92c89 0 135 64 135 173c0 99 -42 171 -135 171c-89 0 -135 -64 -135 -171c0 -101 41 -173 135 -173z" />
    <glyph glyph-name="oacute" unicode="&#xf3;" horiz-adv-x="596" 
d="M236 587l94 166h132l-145 -166h-81zM298 -11c-129 0 -259 82 -259 276c0 196 129 276 259 276c129 0 259 -80 259 -276c0 -194 -130 -276 -259 -276zM298 92c89 0 135 64 135 173c0 99 -42 171 -135 171c-89 0 -135 -64 -135 -171c0 -101 41 -173 135 -173z" />
    <glyph glyph-name="obreve" unicode="&#x14f;" horiz-adv-x="596" 
d="M298 579c-103 0 -161 74 -166 177h69c9 -75 50 -95 97 -95s89 20 98 95h68c-5 -103 -63 -177 -166 -177zM298 -11c-129 0 -259 82 -259 276c0 196 129 276 259 276c129 0 259 -80 259 -276c0 -194 -130 -276 -259 -276zM298 92c89 0 135 64 135 173
c0 99 -42 171 -135 171c-89 0 -135 -64 -135 -171c0 -101 41 -173 135 -173z" />
    <glyph glyph-name="ocircumflex" unicode="&#xf4;" horiz-adv-x="596" 
d="M126 587l129 166h85l129 -166h-72l-100 84l-100 -84h-71zM298 -11c-129 0 -259 82 -259 276c0 196 129 276 259 276c129 0 259 -80 259 -276c0 -194 -130 -276 -259 -276zM298 92c89 0 135 64 135 173c0 99 -42 171 -135 171c-89 0 -135 -64 -135 -171
c0 -101 41 -173 135 -173z" />
    <glyph glyph-name="odieresis" unicode="&#xf6;" horiz-adv-x="596" 
d="M339 584v121h112v-121h-112zM141 584v121h112v-121h-112zM298 -11c-129 0 -259 82 -259 276c0 196 129 276 259 276c129 0 259 -80 259 -276c0 -194 -130 -276 -259 -276zM298 92c89 0 135 64 135 173c0 99 -42 171 -135 171c-89 0 -135 -64 -135 -171
c0 -101 41 -173 135 -173z" />
    <glyph glyph-name="oe" unicode="&#x153;" horiz-adv-x="950" 
d="M297 -11c-129 0 -258 82 -258 276c0 196 128 276 258 276c82 0 156 -39 193 -107c34 64 114 107 189 107c118 0 232 -71 232 -287v-24h-363c5 -101 64 -143 142 -143c69 0 109 23 149 62l65 -64c-55 -61 -127 -96 -223 -96c-80 0 -162 39 -193 103
c-40 -63 -109 -103 -191 -103zM550 317h248c-7 81 -47 124 -121 124c-60 0 -115 -34 -127 -124zM297 91c89 0 134 65 134 174c0 99 -41 171 -134 171c-89 0 -134 -64 -134 -171c0 -101 40 -174 134 -174z" />
    <glyph glyph-name="ogonek" unicode="&#x2db;" horiz-adv-x="500" 
d="M260 -187c-67 0 -104 29 -104 77c0 42 40 86 90 117h69c-49 -33 -72 -66 -72 -98c0 -23 11 -42 48 -42s63 12 88 24l25 -39c-41 -24 -88 -39 -144 -39z" />
    <glyph glyph-name="ograve" unicode="&#xf2;" horiz-adv-x="596" 
d="M278 587l-146 166h133l94 -166h-81zM298 -11c-129 0 -259 82 -259 276c0 196 129 276 259 276c129 0 259 -80 259 -276c0 -194 -130 -276 -259 -276zM298 92c89 0 135 64 135 173c0 99 -42 171 -135 171c-89 0 -135 -64 -135 -171c0 -101 41 -173 135 -173z" />
    <glyph glyph-name="ohungarumlaut" unicode="&#x151;" horiz-adv-x="596" 
d="M325 587l105 166h134l-157 -166h-82zM146 587l100 166h134l-152 -166h-82zM298 -11c-129 0 -259 82 -259 276c0 196 129 276 259 276c129 0 259 -80 259 -276c0 -194 -130 -276 -259 -276zM298 92c89 0 135 64 135 173c0 99 -42 171 -135 171c-89 0 -135 -64 -135 -171
c0 -101 41 -173 135 -173z" />
    <glyph glyph-name="omacron" unicode="&#x14d;" horiz-adv-x="596" 
d="M142 584v91h312v-91h-312zM298 -11c-129 0 -259 82 -259 276c0 196 129 276 259 276c129 0 259 -80 259 -276c0 -194 -130 -276 -259 -276zM298 92c89 0 135 64 135 173c0 99 -42 171 -135 171c-89 0 -135 -64 -135 -171c0 -101 41 -173 135 -173z" />
    <glyph glyph-name="one" unicode="1" horiz-adv-x="448" 
d="M422 0h-379v110h136v503c-36 -19 -91 -34 -134 -34v113c57 2 105 17 138 48h118v-630h121v-110z" />
    <glyph glyph-name="one.dnom" horiz-adv-x="329" 
d="M46 1v81h85v305c-23 -11 -55 -19 -84 -19v74c39 1 68 10 88 30h97v-390h76v-81h-262z" />
    <glyph glyph-name="one.numr" horiz-adv-x="329" 
d="M46 264v81h85v305c-23 -11 -55 -19 -84 -19v74c39 1 68 10 88 30h97v-390h76v-81h-262z" />
    <glyph glyph-name="one.sc" horiz-adv-x="400" 
d="M376 0h-339v97h125v382c-32 -17 -85 -30 -123 -30v102c51 1 97 14 127 41h100v-495h110v-97z" />
    <glyph glyph-name="one.sinf" unicode="&#x2081;" horiz-adv-x="369" 
d="M66 -200v81h85v305c-23 -11 -55 -19 -84 -19v74c39 1 68 10 88 30h97v-390h76v-81h-262z" />
    <glyph glyph-name="one.sups" unicode="&#xb9;" horiz-adv-x="371" 
d="M70 269v81h85v305c-23 -11 -55 -19 -84 -19v74c39 1 68 10 88 30h97v-390h76v-81h-262z" />
    <glyph glyph-name="one.tab" 
d="M125 0v110h156v503c-36 -19 -111 -34 -154 -34v113c57 2 125 17 158 48h117v-630h141v-110h-418z" />
    <glyph glyph-name="onehalf" unicode="&#xbd;" horiz-adv-x="1043" 
d="M83 269v82h82v288c-22 -8 -50 -13 -80 -13v84c44 2 70 9 90 30h91v-389h72v-82h-255zM238 0l443 740h108l-443 -740h-108zM639 0v24c0 68 22 132 146 211c61 40 90 61 90 103c0 35 -22 57 -61 57c-35 0 -72 -22 -102 -76l-71 48c43 75 99 113 177 113
c99 0 156 -56 156 -140c0 -57 -26 -106 -119 -160c-62 -37 -92 -70 -98 -97h220v-83h-338z" />
    <glyph glyph-name="onequarter" unicode="&#xbc;" horiz-adv-x="1008" 
d="M238 0l443 740h108l-443 -740h-108zM83 269v82h82v288c-22 -8 -50 -13 -80 -13v84c44 2 70 9 90 30h91v-389h72v-82h-255zM782 0v104h-214v64l209 304h105v-288h75v-80h-75v-104h-100zM667 179h120v180z" />
    <glyph glyph-name="ordfeminine" unicode="&#xaa;" horiz-adv-x="434" 
d="M183 434c44 0 77 19 103 43v84c-119 -15 -153 -46 -153 -85c0 -28 20 -42 50 -42zM152 364c-62 0 -108 34 -108 96c0 81 69 134 242 153v12c0 35 -18 55 -58 55c-51 0 -91 -19 -127 -50l-43 51c41 39 95 69 182 69c94 0 135 -48 135 -135v-152c0 -44 3 -71 12 -92h-92
c-5 16 -8 33 -9 52c-37 -37 -80 -59 -134 -59z" />
    <glyph glyph-name="ordfeminine.sc" horiz-adv-x="461" 
d="M215 462l-34 -94h93l-34 93l-11 35h-2zM130 226h-84l138 368h92l138 -368h-92l-28 81h-133z" />
    <glyph glyph-name="ordmasculine" unicode="&#xba;" horiz-adv-x="451" 
d="M226 364c-92 0 -184 57 -184 193c0 138 92 193 184 193c91 0 183 -55 183 -193c0 -136 -92 -193 -183 -193zM226 431c61 0 92 53 92 126c0 68 -28 126 -92 126c-62 0 -93 -53 -93 -126c0 -68 27 -126 93 -126z" />
    <glyph glyph-name="ordmasculine.sc" horiz-adv-x="451" 
d="M226 217c-92 0 -183 57 -183 193c0 138 91 194 183 194c91 0 183 -56 183 -194c0 -136 -92 -193 -183 -193zM226 284c61 0 93 53 93 126c0 68 -29 126 -93 126c-62 0 -93 -53 -93 -126c0 -68 27 -126 93 -126z" />
    <glyph glyph-name="oslash" unicode="&#xf8;" horiz-adv-x="596" 
d="M178 166l202 249c-21 17 -49 27 -82 27c-90 0 -138 -69 -138 -177c0 -37 6 -71 18 -99zM420 359l-202 -248c20 -16 47 -26 80 -26c90 0 138 70 138 180c0 35 -5 67 -16 94zM557 515l-56 -65c34 -44 56 -105 56 -185c0 -194 -130 -276 -259 -276c-52 0 -103 13 -147 41
l-59 -68l-52 48l58 67c-36 45 -59 107 -59 188c0 196 129 276 259 276c53 0 106 -13 150 -43l56 66z" />
    <glyph glyph-name="otilde" unicode="&#xf5;" horiz-adv-x="596" 
d="M374 580c-66 0 -103 56 -145 56c-28 0 -41 -15 -41 -54h-69c0 98 39 139 104 139c66 0 103 -56 146 -56c27 0 41 15 41 54h69c0 -97 -40 -139 -105 -139zM298 -11c-129 0 -259 82 -259 276c0 196 129 276 259 276c129 0 259 -80 259 -276c0 -194 -130 -276 -259 -276z
M298 92c89 0 135 64 135 173c0 99 -42 171 -135 171c-89 0 -135 -64 -135 -171c0 -101 41 -173 135 -173z" />
    <glyph glyph-name="p" unicode="p" horiz-adv-x="611" 
d="M317 90c93 0 131 57 131 175c0 112 -48 171 -127 171c-51 0 -100 -32 -129 -67v-213c33 -43 81 -66 125 -66zM192 -200h-123v731h123v-70c35 42 90 80 169 80c121 0 210 -91 210 -275s-91 -274 -227 -274c-57 0 -113 23 -152 67v-259z" />
    <glyph glyph-name="paragraph" unicode="&#xb6;" horiz-adv-x="630" 
d="M382 -200h-88v523c-157 3 -243 75 -243 207c0 118 81 210 229 210h283v-940h-88v845h-93v-845z" />
    <glyph glyph-name="parenleft" unicode="(" horiz-adv-x="401" 
d="M365 -148l-60 -57c-163 137 -253 289 -253 485c0 197 90 348 253 485l57 -61c-109 -110 -180 -254 -180 -424c0 -171 72 -317 183 -428z" />
    <glyph glyph-name="parenleft.tab" horiz-adv-x="325" 
d="M267 -205c-163 137 -253 289 -253 485c0 197 90 348 253 485l56 -60c-108 -110 -179 -255 -179 -425c0 -171 72 -318 182 -428z" />
    <glyph glyph-name="parenleft.uc" horiz-adv-x="401" 
d="M365 -78l-60 -57c-163 137 -253 289 -253 485c0 197 90 348 253 485l57 -61c-109 -110 -180 -254 -180 -424c0 -171 72 -317 183 -428z" />
    <glyph glyph-name="parenright" unicode=")" horiz-adv-x="401" 
d="M96 -205l-60 57c111 111 183 257 183 428c0 170 -71 314 -180 424l57 61c163 -137 253 -288 253 -485c0 -196 -90 -348 -253 -485z" />
    <glyph glyph-name="parenright.tab" horiz-adv-x="325" 
d="M58 -205l-60 57c111 110 183 257 183 428c0 170 -71 315 -180 425l57 60c163 -137 253 -288 253 -485c0 -196 -90 -348 -253 -485z" />
    <glyph glyph-name="parenright.uc" horiz-adv-x="401" 
d="M96 -135l-60 57c111 111 183 257 183 428c0 170 -71 314 -180 424l57 61c163 -137 253 -288 253 -485c0 -196 -90 -348 -253 -485z" />
    <glyph glyph-name="partialdiff" unicode="&#x2202;" horiz-adv-x="587" 
d="M370 764c128 -108 177 -261 177 -433c0 -222 -131 -342 -291 -342c-146 0 -231 95 -231 224c0 192 140 289 258 289c61 0 118 -29 150 -78c-7 100 -67 213 -133 274zM261 77c77 0 157 73 157 203c0 83 -41 138 -110 138c-79 0 -160 -75 -160 -205c0 -81 42 -136 113 -136
z" />
    <glyph glyph-name="percent" unicode="%" horiz-adv-x="1052" 
d="M237 283c-118 0 -186 94 -186 233c0 143 72 236 187 236s185 -92 185 -234c0 -139 -69 -235 -186 -235zM359 0h-108l442 740h108zM238 371c55 0 81 57 81 146c0 93 -27 146 -82 146c-56 0 -82 -56 -82 -145c0 -93 27 -147 83 -147zM815 -10c-118 0 -186 94 -186 233
c0 143 72 235 187 235c114 0 185 -91 185 -233c0 -139 -70 -235 -186 -235zM815 77c56 0 82 58 82 147c0 93 -27 146 -82 146c-57 0 -83 -56 -83 -145c0 -93 27 -148 83 -148z" />
    <glyph glyph-name="percent.sc" horiz-adv-x="892" 
d="M189 225c-96 0 -155 76 -155 190c0 116 64 192 156 192c90 0 152 -75 152 -191c0 -113 -60 -191 -153 -191zM216 0l354 592h102l-354 -592h-102zM189 302c42 0 63 42 63 114c0 73 -23 113 -63 113c-41 0 -65 -41 -65 -113c0 -76 23 -114 65 -114zM705 -11
c-95 0 -155 77 -155 191c0 116 65 192 156 192c90 0 152 -75 152 -191c0 -113 -60 -192 -153 -192zM705 66c42 0 62 42 62 115c0 75 -22 113 -62 113s-64 -40 -64 -113c0 -76 22 -115 64 -115z" />
    <glyph glyph-name="percent.tab" horiz-adv-x="980" 
d="M229 283c-109 0 -177 86 -177 232c0 151 71 234 178 234s176 -83 176 -232c0 -146 -68 -234 -177 -234zM244 0l409 740h83l-409 -740h-83zM229 373c53 0 79 52 79 143c0 95 -27 142 -79 142c-53 0 -79 -50 -79 -141c0 -95 28 -144 79 -144zM751 -9
c-109 0 -176 86 -176 232c0 151 71 234 177 234c107 0 176 -83 176 -232c0 -146 -68 -234 -177 -234zM752 81c52 0 79 52 79 143c0 95 -28 142 -80 142s-79 -50 -79 -141c0 -95 28 -144 80 -144z" />
    <glyph glyph-name="period" unicode="." horiz-adv-x="276" 
d="M207 0h-138v130h138v-130z" />
    <glyph glyph-name="period.tab" horiz-adv-x="325" 
d="M94 0v130h137v-130h-137z" />
    <glyph glyph-name="periodcentered" unicode="&#xb7;" horiz-adv-x="281" 
d="M212 264h-143v130h143v-130z" />
    <glyph glyph-name="periodcentered.tab" horiz-adv-x="325" 
d="M92 264v130h142v-130h-142z" />
    <glyph glyph-name="periodcentered.uc" horiz-adv-x="281" 
d="M212 334h-143v130h143v-130z" />
    <glyph glyph-name="perthousand" unicode="&#x2030;" horiz-adv-x="1483" 
d="M237 283c-118 0 -186 94 -186 233c0 143 72 236 187 236s185 -92 185 -234c0 -139 -69 -235 -186 -235zM359 0h-108l442 740h108zM238 371c55 0 81 57 81 146c0 93 -27 146 -82 146c-56 0 -82 -56 -82 -145c0 -93 27 -147 83 -147zM1246 -10c-118 0 -186 94 -186 233
c0 143 72 235 187 235c114 0 185 -91 185 -233c0 -139 -70 -235 -186 -235zM815 -10c-118 0 -186 94 -186 233c0 143 72 235 187 235c114 0 185 -91 185 -233c0 -139 -70 -235 -186 -235zM1246 77c56 0 82 58 82 147c0 93 -27 146 -82 146c-57 0 -83 -56 -83 -145
c0 -93 27 -148 83 -148zM815 77c56 0 82 58 82 147c0 93 -27 146 -82 146c-57 0 -83 -56 -83 -145c0 -93 27 -148 83 -148z" />
    <glyph glyph-name="perthousand.sc" horiz-adv-x="1246" 
d="M184 225c-96 0 -155 76 -155 190c0 116 64 192 156 192c90 0 152 -75 152 -191c0 -113 -60 -191 -153 -191zM211 0l354 592h102l-354 -592h-102zM184 302c42 0 63 42 63 114c0 73 -23 113 -63 113c-41 0 -65 -41 -65 -113c0 -76 23 -114 65 -114zM1064 -11
c-95 0 -155 77 -155 191c0 116 64 192 156 192c90 0 152 -75 152 -191c0 -113 -60 -192 -153 -192zM700 -11c-95 0 -155 77 -155 191c0 116 65 192 156 192c90 0 152 -75 152 -191c0 -113 -60 -192 -153 -192zM1065 66c41 0 62 42 62 115c0 75 -23 113 -63 113
s-64 -40 -64 -113c0 -76 23 -115 65 -115zM700 66c42 0 62 42 62 115c0 75 -22 113 -62 113s-64 -40 -64 -113c0 -76 22 -115 64 -115z" />
    <glyph glyph-name="pi" unicode="&#x3c0;" horiz-adv-x="669" 
d="M8 434v98h653v-98h-92v-434h-122v434h-225v-434h-123v434h-91z" />
    <glyph glyph-name="plus" unicode="+" horiz-adv-x="642" 
d="M372 82h-102v210h-203v99h203v210h102v-210h204v-99h-204v-210z" />
    <glyph glyph-name="plus.sc" horiz-adv-x="642" 
d="M372 42h-102v210h-203v99h203v210h102v-210h204v-99h-204v-210z" />
    <glyph glyph-name="plus.tab" 
d="M275 82v210h-204v99h204v210h101v-210h204v-99h-204v-210h-101z" />
    <glyph glyph-name="plusminus" unicode="&#xb1;" horiz-adv-x="642" 
d="M67 29v93h205v186h-205v97h205v211h99v-211h205v-97h-205v-186h205v-93h-509z" />
    <glyph glyph-name="product" unicode="&#x220f;" horiz-adv-x="742" 
d="M84 -200v940h574v-940h-125v827h-324v-827h-125z" />
    <glyph glyph-name="q" unicode="q" horiz-adv-x="611" 
d="M542 -200h-123v272c-39 -45 -90 -80 -169 -80c-121 0 -210 88 -210 272s91 277 227 277c57 0 113 -23 152 -67v57h123v-731zM290 93c51 0 100 32 129 67v213c-33 43 -81 66 -125 66c-93 0 -131 -60 -131 -178c0 -112 48 -168 127 -168z" />
    <glyph glyph-name="question" unicode="?" horiz-adv-x="572" 
d="M313 219h-101c-3 24 -3 46 -3 70c0 73 36 121 98 156c65 38 95 59 95 118c0 50 -42 81 -115 81c-74 0 -137 -43 -174 -86l-79 71c58 70 141 125 264 125c149 0 227 -76 227 -182c0 -95 -54 -140 -122 -177c-88 -48 -90 -72 -90 -176zM331 0h-137v125h137v-125z" />
    <glyph glyph-name="question.sc" horiz-adv-x="495" 
d="M277 176h-98c-3 17 -4 35 -4 51c0 64 33 95 82 123c53 29 82 48 82 92c0 43 -29 69 -96 69c-58 0 -116 -29 -156 -70l-61 77c50 50 123 88 227 88c134 0 202 -62 202 -153c0 -83 -54 -118 -110 -149c-54 -32 -73 -55 -68 -128zM291 107v-107h-128v107h128z" />
    <glyph glyph-name="questiondown" unicode="&#xbf;" horiz-adv-x="572" 
d="M378 615h-137v125h137v-125zM274 -14c-149 0 -227 76 -227 182c0 95 54 140 122 177c88 48 90 72 90 176h101c3 -24 3 -46 3 -70c0 -73 -36 -121 -98 -156c-65 -38 -95 -59 -95 -118c0 -50 42 -81 115 -81c74 0 137 43 174 86l79 -71c-58 -70 -141 -125 -264 -125z" />
    <glyph glyph-name="questiondown.sc" horiz-adv-x="486" 
d="M196 485v107h129v-107h-129zM210 416h99c3 -17 4 -35 4 -51c0 -64 -34 -95 -83 -123c-52 -29 -82 -48 -82 -92c0 -43 29 -69 97 -69c58 0 115 29 156 70l61 -77c-50 -50 -124 -89 -227 -89c-135 0 -202 63 -202 154c0 83 54 118 109 149c55 32 74 55 68 128z" />
    <glyph glyph-name="quotedbl" unicode="&#x22;" horiz-adv-x="437" 
d="M163 478h-75l-17 196v66h109v-66zM349 478h-75l-17 196v66h109v-66z" />
    <glyph glyph-name="quotedblbase" unicode="&#x201e;" horiz-adv-x="493" 
d="M140 -112h-57l35 112h-46v130h132v-119zM357 -112h-57l35 112h-46v130h132v-119z" />
    <glyph glyph-name="quotedblleft" unicode="&#x201c;" horiz-adv-x="493" 
d="M204 498h-132v119l64 123h57l-35 -112h46v-130zM421 498h-132v119l64 123h57l-35 -112h46v-130z" />
    <glyph glyph-name="quotedblright" unicode="&#x201d;" horiz-adv-x="493" 
d="M140 498h-57l35 112h-46v130h132v-119zM357 498h-57l35 112h-46v130h132v-119z" />
    <glyph glyph-name="quoteleft" unicode="&#x2018;" horiz-adv-x="276" 
d="M204 498h-132v119l64 123h57l-35 -112h46v-130z" />
    <glyph glyph-name="quoteright" unicode="&#x2019;" horiz-adv-x="276" 
d="M140 498h-57l35 112h-46v130h132v-119z" />
    <glyph glyph-name="quotesinglbase" unicode="&#x201a;" horiz-adv-x="276" 
d="M140 -112h-57l35 112h-46v130h132v-119z" />
    <glyph glyph-name="quotesingle" unicode="'" horiz-adv-x="251" 
d="M163 478h-75l-17 196v66h109v-66z" />
    <glyph glyph-name="r" unicode="r" horiz-adv-x="412" 
d="M192 0h-123v531h123v-87h2c33 53 90 97 191 97h8l-4 -113c-6 1 -26 2 -33 2c-79 0 -129 -37 -164 -94v-336z" />
    <glyph glyph-name="racute" unicode="&#x155;" horiz-adv-x="412" 
d="M138 587l94 166h132l-145 -166h-81zM192 0h-123v531h123v-87h2c33 53 90 97 191 97h8l-4 -113c-6 1 -26 2 -33 2c-79 0 -129 -37 -164 -94v-336z" />
    <glyph glyph-name="radical" unicode="&#x221a;" horiz-adv-x="632" 
d="M391 -2h-124l-161 445h-81v88h178l130 -392h2l201 601h118z" />
    <glyph glyph-name="rcaron" unicode="&#x159;" horiz-adv-x="412" 
d="M163 590l-129 166h72l100 -84l100 84h71l-129 -166h-85zM192 0h-123v531h123v-87h2c33 53 90 97 191 97h8l-4 -113c-6 1 -26 2 -33 2c-79 0 -129 -37 -164 -94v-336z" />
    <glyph glyph-name="rcommaaccent" unicode="&#x157;" horiz-adv-x="412" 
d="M192 0h-123v531h123v-87h2c33 53 90 97 191 97h8l-4 -113c-6 1 -26 2 -33 2c-79 0 -129 -37 -164 -94v-336zM86 -271l32 106h-48v120h123v-105l-55 -121h-52z" />
    <glyph glyph-name="registered" unicode="&#xae;" horiz-adv-x="536" 
d="M268 292c-130 0 -231 101 -231 232c0 130 102 232 232 232s230 -101 230 -231c0 -131 -101 -233 -231 -233zM269 330c108 0 190 84 190 194c0 109 -83 194 -191 194s-190 -84 -190 -193c0 -110 83 -195 191 -195zM230 538h41c31 0 48 10 48 37c0 25 -17 36 -49 36h-40
v-73zM179 402v254h95c60 0 95 -26 95 -78c0 -41 -20 -62 -50 -72l55 -104h-53l-51 97h-40v-97h-51z" />
    <glyph glyph-name="registered.salt_big" horiz-adv-x="865" 
d="M432 -14c-216 0 -382 168 -382 383s168 385 384 385c215 0 381 -168 381 -383s-168 -385 -383 -385zM434 44c181 0 318 142 318 325s-139 327 -320 327c-182 0 -319 -142 -319 -325s139 -327 321 -327zM365 517v-126h72c53 0 83 18 83 64c0 44 -30 62 -84 62h-71z
M365 168h-79v419h155c99 0 157 -43 157 -128c0 -66 -34 -101 -85 -118l91 -173h-85l-84 163h-70v-163z" />
    <glyph glyph-name="ring" unicode="&#x2da;" horiz-adv-x="540" 
d="M270 579c-58 0 -102 44 -102 102s44 101 102 101c59 0 102 -43 102 -101s-43 -102 -102 -102zM270 630c29 0 49 21 49 51c0 29 -20 51 -49 51c-28 0 -49 -22 -49 -51c0 -30 21 -51 49 -51z" />
    <glyph glyph-name="s" unicode="s" horiz-adv-x="523" 
d="M263 -11c-98 0 -186 35 -234 84l67 75c40 -34 99 -63 167 -63c66 0 106 17 106 61c0 43 -54 56 -118 71c-91 21 -200 45 -200 168c0 93 80 156 197 156c101 0 163 -29 218 -75l-59 -80c-39 32 -102 58 -150 58c-68 0 -90 -24 -90 -54c0 -43 53 -56 116 -70
c91 -20 202 -43 202 -167c0 -112 -101 -164 -222 -164z" />
    <glyph glyph-name="sacute" unicode="&#x15b;" horiz-adv-x="523" 
d="M193 587l94 166h132l-145 -166h-81zM263 -11c-98 0 -186 35 -234 84l67 75c40 -34 99 -63 167 -63c66 0 106 17 106 61c0 43 -54 56 -118 71c-91 21 -200 45 -200 168c0 93 80 156 197 156c101 0 163 -29 218 -75l-59 -80c-39 32 -102 58 -150 58c-68 0 -90 -24 -90 -54
c0 -43 53 -56 116 -70c91 -20 202 -43 202 -167c0 -112 -101 -164 -222 -164z" />
    <glyph glyph-name="scaron" unicode="&#x161;" horiz-adv-x="523" 
d="M219 590l-129 166h72l100 -84l100 84h71l-129 -166h-85zM263 -11c-98 0 -186 35 -234 84l67 75c40 -34 99 -63 167 -63c66 0 106 17 106 61c0 43 -54 56 -118 71c-91 21 -200 45 -200 168c0 93 80 156 197 156c101 0 163 -29 218 -75l-59 -80c-39 32 -102 58 -150 58
c-68 0 -90 -24 -90 -54c0 -43 53 -56 116 -70c91 -20 202 -43 202 -167c0 -112 -101 -164 -222 -164z" />
    <glyph glyph-name="scedilla" unicode="&#x15f;" horiz-adv-x="523" 
d="M269 -199c-53 0 -103 14 -138 37l25 40c30 -20 68 -30 102 -30c40 0 60 14 60 39c0 21 -14 31 -36 31c-18 0 -32 -7 -46 -18l-35 17l22 74c-81 8 -153 40 -194 82l67 75c40 -34 99 -63 167 -63c66 0 106 17 106 61c0 43 -54 56 -118 71c-91 21 -200 45 -200 168
c0 93 80 156 197 156c101 0 163 -29 218 -75l-59 -80c-39 32 -102 58 -150 58c-68 0 -90 -24 -90 -54c0 -43 53 -56 116 -70c91 -20 202 -43 202 -167c0 -107 -92 -159 -205 -164l-11 -38c14 9 34 15 61 15c37 0 71 -24 71 -69c0 -63 -59 -96 -132 -96z" />
    <glyph glyph-name="schwa" unicode="&#x259;" horiz-adv-x="565" 
d="M269 541c133 0 256 -81 256 -276c0 -202 -143 -276 -253 -276c-119 0 -233 71 -233 287v29h363c-5 96 -64 138 -142 138c-69 0 -109 -23 -149 -62l-65 64c55 61 128 96 223 96zM400 213h-248c7 -81 47 -124 121 -124c60 0 115 34 127 124z" />
    <glyph glyph-name="scircumflex" unicode="&#x15d;" horiz-adv-x="523" 
d="M81 587l129 166h85l129 -166h-72l-100 84l-100 -84h-71zM263 -11c-98 0 -186 35 -234 84l67 75c40 -34 99 -63 167 -63c66 0 106 17 106 61c0 43 -54 56 -118 71c-91 21 -200 45 -200 168c0 93 80 156 197 156c101 0 163 -29 218 -75l-59 -80c-39 32 -102 58 -150 58
c-68 0 -90 -24 -90 -54c0 -43 53 -56 116 -70c91 -20 202 -43 202 -167c0 -112 -101 -164 -222 -164z" />
    <glyph glyph-name="scommaaccent" unicode="&#x219;" horiz-adv-x="523" 
d="M263 -11c-98 0 -186 35 -234 84l67 75c40 -34 99 -63 167 -63c66 0 106 17 106 61c0 43 -54 56 -118 71c-91 21 -200 45 -200 168c0 93 80 156 197 156c101 0 163 -29 218 -75l-59 -80c-39 32 -102 58 -150 58c-68 0 -90 -24 -90 -54c0 -43 53 -56 116 -70
c91 -20 202 -43 202 -167c0 -112 -101 -164 -222 -164zM216 -271l32 106h-48v120h123v-105l-55 -121h-52z" />
    <glyph glyph-name="second" unicode="&#x2033;" horiz-adv-x="437" 
d="M248 478l18 196l11 66h109l-63 -262h-75zM62 478l18 196l11 66h109l-63 -262h-75z" />
    <glyph glyph-name="second.tab" 
d="M356 478l17 196l12 66h109l-63 -262h-75zM170 478l17 196l12 66h109l-63 -262h-75z" />
    <glyph glyph-name="section" unicode="&#xa7;" horiz-adv-x="561" 
d="M332 151c46 24 72 55 72 91c0 52 -26 75 -144 144c-11 6 -22 12 -32 17c-43 -23 -71 -55 -71 -91c0 -52 26 -75 144 -144c11 -6 22 -12 31 -17zM280 -200c-144 0 -193 70 -214 143l92 38c18 -56 48 -89 117 -89c65 0 85 31 85 69c0 44 -39 75 -124 123
c-107 62 -183 109 -183 205c0 77 58 130 109 159c-58 45 -79 83 -79 139c0 89 73 167 198 167c146 0 197 -70 218 -143l-97 -41c-18 56 -59 95 -116 95c-65 0 -90 -34 -90 -72c0 -44 43 -75 128 -123c109 -61 183 -109 183 -205c0 -77 -57 -131 -108 -160
c57 -45 74 -83 74 -138c0 -89 -68 -167 -193 -167z" />
    <glyph glyph-name="semicolon" unicode=";" horiz-adv-x="285" 
d="M211 400h-137v131h137v-131zM147 -112h-57l35 112h-51v130h137v-111z" />
    <glyph glyph-name="semicolon.tab" horiz-adv-x="325" 
d="M94 401v130h137v-130h-137zM110 -112l35 112h-51v130h137v-111l-64 -131h-57z" />
    <glyph glyph-name="seven" unicode="7" horiz-adv-x="543" 
d="M224 0h-128l295 630h-364v110h493v-102z" />
    <glyph glyph-name="seven.dnom" horiz-adv-x="376" 
d="M67 1l179 388h-221v83h327v-75l-181 -396h-104z" />
    <glyph glyph-name="seven.numr" horiz-adv-x="376" 
d="M67 264l179 388h-221v83h327v-75l-181 -396h-104z" />
    <glyph glyph-name="seven.sc" horiz-adv-x="455" 
d="M198 0h-117l234 495h-290v97h409v-91z" />
    <glyph glyph-name="seven.sinf" unicode="&#x2087;" horiz-adv-x="416" 
d="M87 -200l179 388h-221v83h327v-75l-181 -396h-104z" />
    <glyph glyph-name="seven.sups" unicode="&#x2077;" horiz-adv-x="416" 
d="M87 269l179 388h-221v83h327v-75l-181 -396h-104z" />
    <glyph glyph-name="seven.tab" 
d="M150 0l295 627h-364v113h492v-105l-296 -635h-127z" />
    <glyph glyph-name="six" unicode="6" horiz-adv-x="636" 
d="M332 -14c-170 0 -286 124 -286 371c0 261 146 397 320 397c83 0 151 -29 191 -60l-60 -92c-34 24 -78 43 -136 43c-112 0 -186 -98 -192 -254c50 45 114 80 195 80c141 0 236 -81 236 -233c0 -149 -121 -252 -268 -252zM338 92c90 0 143 54 143 142
c0 77 -36 133 -140 133c-70 0 -139 -35 -171 -73c10 -143 75 -202 168 -202z" />
    <glyph glyph-name="six.dnom" horiz-adv-x="436" 
d="M230 -7c-120 0 -192 78 -192 237c0 174 88 251 207 251c67 0 116 -21 145 -45l-43 -70c-30 22 -61 34 -103 34c-70 0 -104 -44 -108 -143c32 28 65 48 123 48c91 0 151 -51 151 -150c0 -95 -65 -162 -180 -162zM231 69c53 0 83 32 83 82s-24 80 -81 80
c-42 0 -71 -18 -96 -46c6 -76 42 -116 94 -116z" />
    <glyph glyph-name="six.numr" horiz-adv-x="436" 
d="M230 256c-120 0 -192 78 -192 237c0 174 88 251 207 251c67 0 116 -21 145 -45l-43 -70c-30 22 -61 34 -103 34c-70 0 -104 -44 -108 -143c32 28 65 48 123 48c91 0 151 -51 151 -150c0 -95 -65 -162 -180 -162zM231 332c53 0 83 32 83 82s-24 80 -81 80
c-42 0 -71 -18 -96 -46c6 -76 42 -116 94 -116z" />
    <glyph glyph-name="six.sc" horiz-adv-x="531" 
d="M278 -13c-137 0 -238 101 -238 299c0 209 124 318 257 318c87 0 133 -23 169 -49l-51 -81c-30 23 -67 38 -114 38c-85 0 -141 -73 -148 -193c34 34 90 63 152 63c117 0 196 -69 196 -191c0 -120 -85 -204 -223 -204zM282 74c67 0 109 45 109 113c0 60 -27 106 -106 106
c-51 0 -98 -20 -132 -58c9 -111 61 -161 129 -161z" />
    <glyph glyph-name="six.sinf" unicode="&#x2086;" horiz-adv-x="476" 
d="M250 -208c-120 0 -192 78 -192 237c0 174 88 251 207 251c67 0 116 -21 145 -45l-43 -70c-30 22 -61 34 -103 34c-70 0 -104 -44 -108 -143c32 28 65 48 123 48c91 0 151 -51 151 -150c0 -95 -65 -162 -180 -162zM251 -132c53 0 83 32 83 82s-24 80 -81 80
c-42 0 -71 -18 -96 -46c6 -76 42 -116 94 -116z" />
    <glyph glyph-name="six.sups" unicode="&#x2076;" horiz-adv-x="476" 
d="M250 261c-120 0 -192 78 -192 237c0 174 88 251 207 251c67 0 116 -21 145 -45l-43 -70c-30 22 -61 34 -103 34c-70 0 -104 -44 -108 -143c32 28 65 48 123 48c91 0 151 -51 151 -150c0 -95 -65 -162 -180 -162zM251 337c53 0 83 32 83 82s-24 80 -81 80
c-42 0 -71 -18 -96 -46c6 -76 42 -116 94 -116z" />
    <glyph glyph-name="six.tab" 
d="M338 -14c-158 0 -280 124 -280 371c0 261 148 397 304 397c99 0 165 -28 206 -59l-62 -97c-41 30 -78 46 -140 46c-109 0 -180 -97 -185 -253c48 45 108 80 188 80c138 0 232 -81 232 -233c0 -148 -105 -252 -263 -252zM344 91c88 0 138 55 138 143
c0 77 -33 133 -135 133c-69 0 -125 -24 -165 -73c10 -143 71 -203 162 -203z" />
    <glyph glyph-name="slash" unicode="/" horiz-adv-x="603" 
d="M150 0h-127l430 740h127z" />
    <glyph glyph-name="slash.sc" horiz-adv-x="512" 
d="M145 0h-122l344 592h122z" />
    <glyph glyph-name="slash.tab" 
d="M47 0l430 740h127l-430 -740h-127z" />
    <glyph glyph-name="space" unicode=" " horiz-adv-x="251" 
 />
    <glyph glyph-name="space" unicode="&#xa0;" horiz-adv-x="251" 
 />
    <glyph glyph-name="space.em" unicode="&#x2003;" horiz-adv-x="1000" 
 />
    <glyph glyph-name="space.en" unicode="&#x2002;" horiz-adv-x="500" 
 />
    <glyph glyph-name="space.frac" horiz-adv-x="80" 
 />
    <glyph glyph-name="space.tab" horiz-adv-x="325" 
 />
    <glyph glyph-name="space.tab_em" horiz-adv-x="1300" 
 />
    <glyph glyph-name="space.tab_en" unicode="&#x2007;" 
 />
    <glyph glyph-name="space.tab_thin" horiz-adv-x="163" 
 />
    <glyph glyph-name="space.thin" unicode="&#x2009;" horiz-adv-x="200" 
 />
    <glyph glyph-name="space.thin_fra" horiz-adv-x="120" 
 />
    <glyph glyph-name="sterling" unicode="&#xa3;" horiz-adv-x="657" 
d="M226 337h-137v82h90c-24 42 -43 85 -43 137c0 113 81 198 211 198c158 0 208 -97 224 -193l-111 -21c-8 63 -34 111 -110 111c-62 0 -94 -40 -94 -94c0 -49 25 -91 51 -138h175v-82h-136c13 -33 21 -69 21 -113c0 -38 -7 -73 -20 -104c30 -19 60 -34 94 -34
c65 0 83 29 86 110h109c0 -112 -41 -210 -176 -210c-69 0 -120 28 -162 61c-38 -38 -90 -61 -154 -61c-60 0 -124 34 -124 110c0 78 55 123 131 123c41 0 75 -16 108 -36c1 10 1 20 1 31c0 46 -15 86 -34 123zM234 102c-28 24 -54 43 -82 43c-31 0 -50 -19 -50 -46
c0 -26 20 -45 49 -45c37 0 65 18 83 48z" />
    <glyph glyph-name="sterling.sc" horiz-adv-x="558" 
d="M129 -13c-56 0 -112 27 -112 95c0 67 52 103 114 103c31 0 63 -14 87 -31c1 7 2 18 1 27c-1 34 -15 64 -30 92h-113v61h71c-20 33 -37 68 -37 109c0 90 75 160 186 160c134 0 181 -79 194 -164l-102 -18c-7 49 -27 95 -87 95c-47 0 -77 -27 -77 -72c0 -41 20 -73 43 -110
h142v-61h-109c12 -28 20 -58 20 -95c0 -30 -5 -55 -13 -78c21 -17 42 -31 68 -31c43 0 67 22 70 93h92c-5 -93 -32 -175 -146 -175c-57 0 -100 23 -136 49c-31 -31 -74 -49 -126 -49zM131 50c29 0 53 11 66 36c-20 20 -43 35 -65 35c-26 0 -42 -14 -42 -35
c0 -25 18 -36 41 -36z" />
    <glyph glyph-name="sterling.tab" 
d="M455 -14c-66 0 -117 32 -159 67c-36 -43 -85 -67 -143 -67c-63 0 -125 34 -125 110c0 78 57 123 127 123c39 0 71 -16 98 -38c1 19 1 39 -1 61c-4 34 -16 65 -30 95h-133v82h89c-23 43 -42 86 -42 137c0 113 83 198 209 198c154 0 206 -96 218 -193l-105 -21
c-8 64 -37 112 -109 112c-58 0 -94 -32 -94 -95c0 -46 24 -90 49 -138h172v-82h-134c13 -34 22 -71 22 -113c0 -38 -7 -72 -18 -103c28 -23 57 -45 92 -45c48 0 69 28 74 120h102c-2 -112 -28 -210 -159 -210zM155 54c37 0 64 17 81 52c-26 25 -53 43 -80 43
c-30 0 -49 -20 -49 -49c0 -28 20 -46 48 -46z" />
    <glyph glyph-name="summation" unicode="&#x2211;" horiz-adv-x="604" 
d="M393 289l-209 -379h374v-110h-510v94l215 390l-204 345v111h486v-113h-350z" />
    <glyph glyph-name="t" unicode="t" horiz-adv-x="403" 
d="M275 -7c-135 0 -164 50 -164 146v294h-92v98h92v185h123v-185h137v-98h-137v-263c0 -57 17 -80 78 -80c18 0 41 3 53 7v-97c-13 -3 -59 -7 -90 -7z" />
    <glyph glyph-name="tbar" unicode="&#x167;" horiz-adv-x="401" 
d="M363 0c-14 -3 -60 -7 -90 -7c-135 0 -164 50 -164 146v94h-92v83h92v117h-92v98h92v185h123v-185h137v-98h-137v-117h137v-83h-137v-63c0 -57 16 -80 77 -80c19 0 42 3 54 7v-97z" />
    <glyph glyph-name="tcaron" unicode="&#x165;" horiz-adv-x="401" 
d="M304 606l31 102h-47v116h119v-101l-53 -117h-50zM275 -7c-135 0 -164 50 -164 146v294h-92v98h92v185h123v-185h137v-98h-137v-263c0 -57 17 -80 78 -80c18 0 41 3 53 7v-97c-13 -3 -59 -7 -90 -7z" />
    <glyph glyph-name="tcommaaccent" unicode="&#x21b;" horiz-adv-x="401" 
d="M275 -7c-135 0 -164 50 -164 146v294h-92v98h92v185h123v-185h137v-98h-137v-263c0 -57 17 -80 78 -80c18 0 41 3 53 7v-97c-13 -3 -59 -7 -90 -7zM140 -271l32 106h-48v120h123v-105l-55 -121h-52z" />
    <glyph glyph-name="thorn" unicode="&#xfe;" horiz-adv-x="611" 
d="M317 90c93 0 131 57 131 175c0 112 -48 171 -127 171c-51 0 -100 -32 -129 -67v-213c33 -43 81 -66 125 -66zM192 -200h-123v940h123v-279c35 42 90 80 169 80c121 0 210 -91 210 -275s-91 -274 -227 -274c-57 0 -113 23 -152 67v-259z" />
    <glyph glyph-name="three" unicode="3" horiz-adv-x="610" 
d="M293 -14c-117 0 -212 45 -275 130l87 70c51 -67 115 -90 186 -90c91 0 150 35 150 114c0 93 -67 128 -206 128h-34v102h37c145 0 183 43 183 108c0 59 -35 93 -127 93c-63 0 -127 -26 -171 -71l-73 78c61 64 154 105 256 105c159 0 238 -77 238 -187
c0 -89 -50 -150 -136 -173c109 -22 157 -89 157 -188c0 -133 -107 -219 -272 -219z" />
    <glyph glyph-name="three.dnom" horiz-adv-x="425" 
d="M210 -6c-76 0 -142 34 -182 97l63 53c35 -51 75 -67 112 -67c56 0 81 28 81 66c0 48 -30 71 -109 71h-34v72h36c73 0 98 21 98 60c0 30 -20 52 -65 52c-34 0 -71 -15 -107 -52l-57 60c48 50 107 76 172 76c105 0 157 -53 157 -126c0 -45 -22 -85 -74 -102
c62 -19 87 -60 87 -113c0 -92 -70 -147 -178 -147z" />
    <glyph glyph-name="three.numr" horiz-adv-x="425" 
d="M210 257c-76 0 -142 34 -182 97l63 53c35 -51 75 -67 112 -67c56 0 81 28 81 66c0 48 -30 71 -109 71h-34v72h36c73 0 98 21 98 60c0 30 -20 52 -65 52c-34 0 -71 -15 -107 -52l-57 60c48 50 107 76 172 76c105 0 157 -53 157 -126c0 -45 -22 -85 -74 -102
c62 -19 87 -60 87 -113c0 -92 -70 -147 -178 -147z" />
    <glyph glyph-name="three.sc" horiz-adv-x="516" 
d="M246 -14c-98 0 -173 38 -226 108l73 63c41 -56 94 -76 149 -76c75 0 116 30 116 87c0 71 -46 98 -157 98h-29v88h31c116 0 143 31 143 81c0 43 -27 73 -100 73c-49 0 -95 -18 -135 -59l-66 67c51 52 128 89 212 89c130 0 203 -65 203 -154c0 -69 -42 -124 -121 -138
c89 -11 138 -70 138 -150c0 -107 -96 -177 -231 -177z" />
    <glyph glyph-name="three.sinf" unicode="&#x2083;" horiz-adv-x="465" 
d="M230 -207c-76 0 -142 34 -182 97l63 53c35 -51 75 -67 112 -67c56 0 81 28 81 66c0 48 -30 71 -109 71h-34v72h36c73 0 98 21 98 60c0 30 -20 52 -65 52c-34 0 -71 -15 -107 -52l-57 60c48 50 107 76 172 76c105 0 157 -53 157 -126c0 -45 -22 -85 -74 -102
c62 -19 87 -60 87 -113c0 -92 -70 -147 -178 -147z" />
    <glyph glyph-name="three.sups" unicode="&#xb3;" horiz-adv-x="465" 
d="M230 262c-76 0 -142 34 -182 97l63 53c35 -51 75 -67 112 -67c56 0 81 28 81 66c0 48 -30 71 -109 71h-34v72h36c73 0 98 21 98 60c0 30 -20 52 -65 52c-34 0 -71 -15 -107 -52l-57 60c48 50 107 76 172 76c105 0 157 -53 157 -126c0 -45 -22 -85 -74 -102
c62 -19 87 -60 87 -113c0 -92 -70 -147 -178 -147z" />
    <glyph glyph-name="three.tab" 
d="M307 -14c-115 0 -208 44 -269 130l86 74c51 -64 111 -93 179 -93c92 0 145 38 145 113c0 94 -60 128 -198 128h-32v102h36c141 0 179 43 179 109c0 59 -34 92 -125 92c-62 0 -118 -16 -167 -69l-74 76c59 64 153 106 253 106c155 0 236 -78 236 -188
c0 -89 -52 -155 -143 -173c109 -20 164 -88 164 -188c0 -132 -110 -219 -270 -219z" />
    <glyph glyph-name="threequarters" unicode="&#xbe;" horiz-adv-x="1042" 
d="M273 0l442 740h108l-442 -740h-108zM816 0v104h-214v64l209 304h105v-288h75v-80h-75v-104h-100zM230 262c-76 0 -142 34 -182 97l63 53c35 -51 75 -67 112 -67c56 0 81 28 81 66c0 48 -30 71 -109 71h-34v72h36c73 0 98 21 98 60c0 30 -20 52 -65 52
c-34 0 -71 -15 -107 -52l-57 60c48 50 107 76 172 76c105 0 157 -53 157 -126c0 -45 -22 -85 -74 -102c62 -19 87 -60 87 -113c0 -92 -70 -147 -178 -147zM701 179h120v180z" />
    <glyph glyph-name="tilde" unicode="&#x2dc;" horiz-adv-x="515" 
d="M333 580c-66 0 -103 56 -145 56c-28 0 -41 -15 -41 -54h-69c0 98 39 139 104 139c66 0 103 -56 146 -56c27 0 41 15 41 54h69c0 -97 -40 -139 -105 -139z" />
    <glyph glyph-name="trademark" unicode="&#x2122;" horiz-adv-x="905" 
d="M238 317h-87v351h-122v72h331v-72h-122v-351zM503 317h-78v423h116l98 -310l99 310h115v-423h-84v299l-97 -299h-72l-97 297v-297z" />
    <glyph glyph-name="two" unicode="2" horiz-adv-x="603" 
d="M551 0h-516v16c0 107 37 210 232 335c113 73 158 108 158 184c0 69 -46 107 -116 107c-65 0 -128 -40 -174 -109l-93 64c60 92 146 157 273 157c145 0 232 -84 232 -210c0 -90 -33 -158 -175 -248c-118 -75 -178 -133 -191 -186h370v-110z" />
    <glyph glyph-name="two.dnom" horiz-adv-x="425" 
d="M41 2v24c0 68 20 134 145 211c70 43 92 61 92 103c0 35 -21 57 -61 57c-37 0 -74 -22 -103 -76l-71 48c43 75 98 113 177 113c102 0 156 -56 156 -140c0 -57 -26 -106 -121 -160c-66 -39 -92 -70 -99 -97h222v-83h-337z" />
    <glyph glyph-name="two.numr" horiz-adv-x="425" 
d="M41 265v24c0 68 20 134 145 211c70 43 92 61 92 103c0 35 -21 57 -61 57c-37 0 -74 -22 -103 -76l-71 48c43 75 98 113 177 113c102 0 156 -56 156 -140c0 -57 -26 -106 -121 -160c-66 -39 -92 -70 -99 -97h222v-83h-337z" />
    <glyph glyph-name="two.sc" horiz-adv-x="500" 
d="M456 0h-426v15c0 89 33 170 192 272c86 54 120 89 120 140s-29 79 -89 79c-50 0 -97 -23 -131 -89l-84 51c46 85 125 137 221 137c122 0 194 -69 194 -170c0 -85 -46 -134 -140 -197c-78 -51 -140 -99 -147 -142h290v-96z" />
    <glyph glyph-name="two.sinf" unicode="&#x2082;" horiz-adv-x="465" 
d="M61 -199v24c0 68 20 134 145 211c70 43 92 61 92 103c0 35 -21 57 -61 57c-37 0 -74 -22 -103 -76l-71 48c43 75 98 113 177 113c102 0 156 -56 156 -140c0 -57 -26 -106 -121 -160c-66 -39 -92 -70 -99 -97h222v-83h-337z" />
    <glyph glyph-name="two.sups" unicode="&#xb2;" horiz-adv-x="465" 
d="M61 270v24c0 68 20 134 145 211c70 43 92 61 92 103c0 35 -21 57 -61 57c-37 0 -74 -22 -103 -76l-71 48c43 75 98 113 177 113c102 0 156 -56 156 -140c0 -57 -26 -106 -121 -160c-66 -39 -92 -70 -99 -97h222v-83h-337z" />
    <glyph glyph-name="two.tab" 
d="M63 0v16c0 107 27 202 227 333c110 73 156 113 156 187c0 69 -42 105 -119 105c-69 0 -124 -32 -168 -108l-89 60c57 100 140 161 262 161c148 0 235 -82 235 -210c0 -90 -34 -158 -172 -248c-133 -86 -182 -136 -195 -186h370v-110h-507z" />
    <glyph glyph-name="u" unicode="u" horiz-adv-x="603" 
d="M216 -10c-93 0 -153 55 -153 160v381h124v-352c0 -59 25 -86 79 -86s99 28 144 69v369h124v-531h-124v72c-34 -36 -98 -82 -194 -82z" />
    <glyph glyph-name="uacute" unicode="&#xfa;" horiz-adv-x="603" 
d="M233 587l94 166h132l-145 -166h-81zM216 -10c-93 0 -153 55 -153 160v381h124v-352c0 -59 25 -86 79 -86s99 28 144 69v369h124v-531h-124v72c-34 -36 -98 -82 -194 -82z" />
    <glyph glyph-name="ubreve" unicode="&#x16d;" horiz-adv-x="603" 
d="M301 579c-103 0 -161 74 -166 177h69c9 -75 50 -95 97 -95s89 20 98 95h68c-5 -103 -63 -177 -166 -177zM216 -10c-93 0 -153 55 -153 160v381h124v-352c0 -59 25 -86 79 -86s99 28 144 69v369h124v-531h-124v72c-34 -36 -98 -82 -194 -82z" />
    <glyph glyph-name="ucircumflex" unicode="&#xfb;" horiz-adv-x="603" 
d="M127 587l129 166h85l129 -166h-72l-100 84l-100 -84h-71zM216 -10c-93 0 -153 55 -153 160v381h124v-352c0 -59 25 -86 79 -86s99 28 144 69v369h124v-531h-124v72c-34 -36 -98 -82 -194 -82z" />
    <glyph glyph-name="udieresis" unicode="&#xfc;" horiz-adv-x="603" 
d="M341 584v121h112v-121h-112zM143 584v121h112v-121h-112zM216 -10c-93 0 -153 55 -153 160v381h124v-352c0 -59 25 -86 79 -86s99 28 144 69v369h124v-531h-124v72c-34 -36 -98 -82 -194 -82z" />
    <glyph glyph-name="ugrave" unicode="&#xf9;" horiz-adv-x="603" 
d="M283 587l-146 166h133l94 -166h-81zM216 -10c-93 0 -153 55 -153 160v381h124v-352c0 -59 25 -86 79 -86s99 28 144 69v369h124v-531h-124v72c-34 -36 -98 -82 -194 -82z" />
    <glyph glyph-name="uhungarumlaut" unicode="&#x171;" horiz-adv-x="603" 
d="M330 587l105 166h134l-157 -166h-82zM151 587l100 166h134l-152 -166h-82zM216 -10c-93 0 -153 55 -153 160v381h124v-352c0 -59 25 -86 79 -86s99 28 144 69v369h124v-531h-124v72c-34 -36 -98 -82 -194 -82z" />
    <glyph glyph-name="umacron" unicode="&#x16b;" horiz-adv-x="603" 
d="M145 584v91h312v-91h-312zM216 -10c-93 0 -153 55 -153 160v381h124v-352c0 -59 25 -86 79 -86s99 28 144 69v369h124v-531h-124v72c-34 -36 -98 -82 -194 -82z" />
    <glyph glyph-name="underscore" unicode="_" horiz-adv-x="500" 
d="M500 -145h-500v89h500v-89z" />
    <glyph glyph-name="uni00B5" unicode="&#xb5;" horiz-adv-x="608" 
d="M192 -200h-123v731h123v-351c0 -59 24 -89 80 -89c54 0 98 28 144 69v371h123v-531h-123v84c-37 -40 -87 -79 -152 -88c-29 -2 -53 1 -72 16v-212z" />
    <glyph glyph-name="uni02C9" unicode="&#x2c9;" horiz-adv-x="500" 
d="M94 584v91h312v-91h-312z" />
    <glyph glyph-name="uni2117" unicode="&#x2117;" horiz-adv-x="865" 
d="M432 -14c-216 0 -382 168 -382 383s168 385 384 385c215 0 381 -168 381 -383s-168 -385 -383 -385zM434 44c181 0 318 142 318 325s-139 327 -320 327c-182 0 -319 -142 -319 -325s139 -327 321 -327zM377 163h-79v419h155c97 0 156 -39 156 -126
c0 -91 -64 -131 -162 -131h-70v-162zM377 514v-124h73c52 0 81 18 81 62s-29 62 -82 62h-72z" />
    <glyph glyph-name="uni2126" unicode="&#x2126;" horiz-adv-x="762" 
d="M381 754c210 0 323 -171 323 -355c0 -116 -53 -224 -147 -296h140v-103h-249v103c85 81 132 167 132 295c0 137 -70 251 -200 251c-125 0 -197 -108 -197 -249c0 -129 47 -216 132 -297v-103h-250v103h141c-94 71 -148 182 -148 296c0 186 116 355 323 355z" />
    <glyph glyph-name="uni2206" unicode="&#x2206;" horiz-adv-x="694" 
d="M23 0l265 743h118l265 -743h-648zM172 110h340l-167 458h-2z" />
    <glyph glyph-name="uni2215" unicode="&#x2215;" horiz-adv-x="512" 
d="M92 0h-108l436 740h108z" />
    <glyph glyph-name="uni2219" unicode="&#x2219;" horiz-adv-x="281" 
d="M212 264h-143v130h143v-130z" />
    <glyph glyph-name="uni2713" unicode="&#x2713;" horiz-adv-x="567" 
d="M326 -1h-125l-192 532h129l130 -392h2l200 601h119z" />
    <glyph glyph-name="uogonek" unicode="&#x173;" horiz-adv-x="603" 
d="M575 -148c-41 -24 -88 -39 -144 -39c-67 0 -104 29 -104 77c0 40 36 82 83 113v69c-34 -36 -98 -82 -194 -82c-93 0 -153 55 -153 160v381h124v-352c0 -59 25 -86 79 -86s99 28 144 69v369h124v-531h-58c-42 -31 -62 -61 -62 -91c0 -23 11 -42 48 -42s63 12 88 24z" />
    <glyph glyph-name="uring" unicode="&#x16f;" horiz-adv-x="603" 
d="M301 579c-58 0 -102 44 -102 102s44 101 102 101c59 0 102 -43 102 -101s-43 -102 -102 -102zM301 630c29 0 49 21 49 51c0 29 -20 51 -49 51c-28 0 -49 -22 -49 -51c0 -30 21 -51 49 -51zM216 -10c-93 0 -153 55 -153 160v381h124v-352c0 -59 25 -86 79 -86
s99 28 144 69v369h124v-531h-124v72c-34 -36 -98 -82 -194 -82z" />
    <glyph glyph-name="utilde" unicode="&#x169;" horiz-adv-x="603" 
d="M377 580c-66 0 -103 56 -145 56c-28 0 -41 -15 -41 -54h-69c0 98 39 139 104 139c66 0 103 -56 146 -56c27 0 41 15 41 54h69c0 -97 -40 -139 -105 -139zM216 -10c-93 0 -153 55 -153 160v381h124v-352c0 -59 25 -86 79 -86s99 28 144 69v369h124v-531h-124v72
c-34 -36 -98 -82 -194 -82z" />
    <glyph glyph-name="v" unicode="v" horiz-adv-x="527" 
d="M326 -1h-125l-192 532h129l130 -392h2l129 392h119z" />
    <glyph glyph-name="w" unicode="w" horiz-adv-x="763" 
d="M284 0h-114l-158 531h125l58 -220c16 -60 26 -101 40 -169h2c16 72 25 110 42 171l56 218h100l59 -222c17 -59 26 -99 41 -167h2c16 69 25 107 42 165l60 224h112l-158 -531h-115l-96 369h-2z" />
    <glyph glyph-name="wacute" unicode="&#x1e83;" horiz-adv-x="764" 
d="M343 587l94 166h132l-145 -166h-81zM284 0h-114l-158 531h125l58 -220c16 -60 26 -101 40 -169h2c16 72 25 110 42 171l56 218h100l59 -222c17 -59 26 -99 41 -167h2c16 69 25 107 42 165l60 224h112l-158 -531h-115l-96 369h-2z" />
    <glyph glyph-name="wcircumflex" unicode="&#x175;" horiz-adv-x="764" 
d="M210 587l129 166h85l129 -166h-72l-100 84l-100 -84h-71zM284 0h-114l-158 531h125l58 -220c16 -60 26 -101 40 -169h2c16 72 25 110 42 171l56 218h100l59 -222c17 -59 26 -99 41 -167h2c16 69 25 107 42 165l60 224h112l-158 -531h-115l-96 369h-2z" />
    <glyph glyph-name="wdieresis" unicode="&#x1e85;" horiz-adv-x="764" 
d="M423 584v121h112v-121h-112zM225 584v121h112v-121h-112zM284 0h-114l-158 531h125l58 -220c16 -60 26 -101 40 -169h2c16 72 25 110 42 171l56 218h100l59 -222c17 -59 26 -99 41 -167h2c16 69 25 107 42 165l60 224h112l-158 -531h-115l-96 369h-2z" />
    <glyph glyph-name="wgrave" unicode="&#x1e81;" horiz-adv-x="764" 
d="M346 587l-146 166h133l94 -166h-81zM284 0h-114l-158 531h125l58 -220c16 -60 26 -101 40 -169h2c16 72 25 110 42 171l56 218h100l59 -222c17 -59 26 -99 41 -167h2c16 69 25 107 42 165l60 224h112l-158 -531h-115l-96 369h-2z" />
    <glyph glyph-name="x" unicode="x" horiz-adv-x="533" 
d="M145 0h-126l185 274l-172 257h131l111 -170l107 170h127l-174 -257l184 -274h-131l-122 186z" />
    <glyph glyph-name="y" unicode="y" horiz-adv-x="547" 
d="M125 -206c-63 0 -100 9 -126 16l28 99c15 -4 47 -11 90 -11c44 0 67 17 84 60l15 39l-204 534h128l137 -387h2l136 387h122l-226 -589c-35 -93 -81 -148 -186 -148z" />
    <glyph glyph-name="yacute" unicode="&#xfd;" horiz-adv-x="547" 
d="M185 587l94 166h132l-145 -166h-81zM125 -206c-63 0 -100 9 -126 16l28 99c15 -4 47 -11 90 -11c44 0 67 17 84 60l15 39l-204 534h128l137 -387h2l136 387h122l-226 -589c-35 -93 -81 -148 -186 -148z" />
    <glyph glyph-name="ycircumflex" unicode="&#x177;" horiz-adv-x="547" 
d="M106 587l129 166h85l129 -166h-72l-100 84l-100 -84h-71zM125 -206c-63 0 -100 9 -126 16l28 99c15 -4 47 -11 90 -11c44 0 67 17 84 60l15 39l-204 534h128l137 -387h2l136 387h122l-226 -589c-35 -93 -81 -148 -186 -148z" />
    <glyph glyph-name="ydieresis" unicode="&#xff;" horiz-adv-x="547" 
d="M319 584v121h112v-121h-112zM121 584v121h112v-121h-112zM125 -206c-63 0 -100 9 -126 16l28 99c15 -4 47 -11 90 -11c44 0 67 17 84 60l15 39l-204 534h128l137 -387h2l136 387h122l-226 -589c-35 -93 -81 -148 -186 -148z" />
    <glyph glyph-name="yen" unicode="&#xa5;" horiz-adv-x="656" 
d="M390 0h-125v97h-184v83h184v70h-184v83h181l-243 407h131l179 -305l179 305h129l-245 -407h184v-83h-186v-70h186v-83h-186v-97z" />
    <glyph glyph-name="yen.sc" horiz-adv-x="559" 
d="M222 0v86h-148v63h148v56h-148v62h146l-198 325h121l138 -236l138 236h119l-199 -325h149v-62h-150v-56h150v-62h-150v-87h-116z" />
    <glyph glyph-name="yen.tab" 
d="M262 0v97h-179v84h179v70h-179v82h176l-238 407h131l174 -306l174 306h129l-240 -407h179v-82h-181v-70h181v-84h-181v-97h-125z" />
    <glyph glyph-name="ygrave" unicode="&#x1ef3;" horiz-adv-x="547" 
d="M250 587l-146 166h133l94 -166h-81zM125 -206c-63 0 -100 9 -126 16l28 99c15 -4 47 -11 90 -11c44 0 67 17 84 60l15 39l-204 534h128l137 -387h2l136 387h122l-226 -589c-35 -93 -81 -148 -186 -148z" />
    <glyph glyph-name="z" unicode="z" horiz-adv-x="520" 
d="M488 0h-454v71l283 362h-262v98h416v-74l-284 -362h301v-95z" />
    <glyph glyph-name="zacute" unicode="&#x17a;" horiz-adv-x="520" 
d="M192 587l94 166h132l-145 -166h-81zM488 0h-454v71l283 362h-262v98h416v-74l-284 -362h301v-95z" />
    <glyph glyph-name="zcaron" unicode="&#x17e;" horiz-adv-x="520" 
d="M220 590l-129 166h72l100 -84l100 84h71l-129 -166h-85zM488 0h-454v71l283 362h-262v98h416v-74l-284 -362h301v-95z" />
    <glyph glyph-name="zdotaccent" unicode="&#x17c;" horiz-adv-x="520" 
d="M194 595v111h132v-111h-132zM488 0h-454v71l283 362h-262v98h416v-74l-284 -362h301v-95z" />
    <glyph glyph-name="zero" unicode="0" horiz-adv-x="678" 
d="M340 -14c-186 0 -294 153 -294 384s108 384 294 384s292 -153 292 -384s-106 -384 -292 -384zM340 96c107 0 167 89 167 274s-63 272 -167 272c-109 0 -169 -87 -169 -272s64 -274 169 -274z" />
    <glyph glyph-name="zero.dnom" horiz-adv-x="467" 
d="M234 -7c-127 0 -196 95 -196 243c0 147 69 245 196 245c126 0 196 -98 196 -245c0 -148 -70 -243 -196 -243zM234 73c65 0 95 57 95 163c0 104 -32 163 -95 163c-66 0 -96 -59 -96 -163c0 -106 32 -163 96 -163z" />
    <glyph glyph-name="zero.numr" horiz-adv-x="467" 
d="M234 256c-127 0 -196 95 -196 243c0 147 69 245 196 245c126 0 196 -98 196 -245c0 -148 -70 -243 -196 -243zM234 336c65 0 95 57 95 163c0 104 -32 163 -95 163c-66 0 -96 -59 -96 -163c0 -106 32 -163 96 -163z" />
    <glyph glyph-name="zero.salt_slash" horiz-adv-x="678" 
d="M340 -14c-186 0 -294 153 -294 384s108 384 294 384s292 -153 292 -384s-106 -384 -292 -384zM171 370c0 -53 5 -98 15 -135l274 344c-28 42 -69 63 -120 63c-109 0 -169 -87 -169 -272zM340 96c107 0 167 89 167 274c0 51 -5 95 -14 131l-274 -341
c29 -43 70 -64 121 -64z" />
    <glyph glyph-name="zero.sc" horiz-adv-x="562" 
d="M281 -13c-156 0 -245 124 -245 309s89 308 245 308s245 -123 245 -308s-89 -309 -245 -309zM281 81c83 0 128 69 128 215c0 145 -48 213 -128 213c-83 0 -129 -68 -129 -213c0 -146 49 -215 129 -215z" />
    <glyph glyph-name="zero.sc_salt_slash" horiz-adv-x="562" 
d="M281 -13c-156 0 -245 124 -245 309s89 308 245 308s245 -123 245 -308s-89 -309 -245 -309zM152 296c0 -41 4 -76 11 -105l204 277c-21 28 -51 41 -86 41c-83 0 -129 -68 -129 -213zM281 81c83 0 129 69 129 215c0 42 -4 77 -12 106l-204 -280c22 -27 51 -41 87 -41z" />
    <glyph glyph-name="zero.sinf" unicode="&#x2080;" horiz-adv-x="507" 
d="M254 -208c-127 0 -196 95 -196 243c0 147 69 245 196 245c126 0 196 -98 196 -245c0 -148 -70 -243 -196 -243zM254 -128c65 0 95 57 95 163c0 104 -32 163 -95 163c-66 0 -96 -59 -96 -163c0 -106 32 -163 96 -163z" />
    <glyph glyph-name="zero.sups" unicode="&#x2070;" horiz-adv-x="507" 
d="M254 261c-127 0 -196 95 -196 243c0 147 69 245 196 245c126 0 196 -98 196 -245c0 -148 -70 -243 -196 -243zM254 341c65 0 95 57 95 163c0 104 -32 163 -95 163c-66 0 -96 -59 -96 -163c0 -106 32 -163 96 -163z" />
    <glyph glyph-name="zero.tab" 
d="M325 -14c-181 0 -287 153 -287 384s106 384 287 384s287 -153 287 -384s-106 -384 -287 -384zM325 94c106 0 168 91 168 276c0 186 -65 275 -168 275c-106 0 -168 -89 -168 -275c0 -185 65 -276 168 -276z" />
    <glyph glyph-name="zero.tab_salt_slash" 
d="M326 -14c-186 0 -294 153 -294 384s108 384 294 384s292 -153 292 -384s-106 -384 -292 -384zM157 370c0 -53 5 -98 15 -135l274 344c-28 42 -69 63 -120 63c-109 0 -169 -87 -169 -272zM326 96c107 0 167 89 167 274c0 51 -5 95 -14 131l-274 -341
c29 -43 70 -64 121 -64z" />
    </font>
</defs>
</svg>
